<svg width="33" height="33" viewBox="0 0 33 33" fill="none" xmlns="http://www.w3.org/2000/svg">
<path d="M16.4998 27.871C21.3535 27.871 25.8773 25.011 29.026 20.061C30.2635 18.1222 30.2635 14.8635 29.026 12.9247C25.8773 7.97475 21.3535 5.11475 16.4998 5.11475C11.646 5.11475 7.12228 7.97475 3.97354 12.9247C2.73604 14.8635 2.73604 18.1222 3.97354 20.061C7.12228 25.011 11.646 27.871 16.4998 27.871Z" fill="#2A365A" stroke="#E4EFFF" stroke-width="1.5" stroke-linecap="round" stroke-linejoin="round"/>
<path d="M21.4221 16.4999C21.4221 19.2224 19.2221 21.4224 16.4996 21.4224C13.7771 21.4224 11.5771 19.2224 11.5771 16.4999C11.5771 13.7774 13.7771 11.5774 16.4996 11.5774C19.2221 11.5774 21.4221 13.7774 21.4221 16.4999Z" fill="#2A365A" stroke="#E4EFFF" stroke-width="1.5" stroke-linecap="round" stroke-linejoin="round"/>
</svg>
