<svg width="646" height="758" viewBox="0 0 646 758" fill="none" xmlns="http://www.w3.org/2000/svg">
<path d="M255.22 225.584L204.896 312.746L206.25 313.528L256.575 226.366" fill="#47A2DF" fill-opacity="0.34"/>
<path d="M454.031 398.901C455.821 397.888 456.453 395.616 455.44 393.826C454.429 392.034 452.157 391.403 450.365 392.415C448.575 393.428 447.943 395.7 448.955 397.489C449.967 399.281 452.239 399.913 454.031 398.901Z" fill="#47A2DF" fill-opacity="0.34"/>
<path d="M474.482 355.412L424.158 442.574L425.512 443.356L475.837 356.194" fill="#47A2DF" fill-opacity="0.34"/>
<path d="M482.478 404.337L561.072 258.838L535.245 192.54L645.137 3.13989L639.726 -3.05176e-05L528.324 192.005L554.193 258.411L476.975 401.364L482.478 404.337Z" fill="#47A2DF" fill-opacity="0.34"/>
<path d="M483.136 411.825H480.008C480.007 413.112 479.496 414.247 478.654 415.093C477.808 415.935 476.673 416.444 475.386 416.447C474.101 416.446 472.966 415.935 472.118 415.093C471.278 414.247 470.767 413.112 470.766 411.825C470.767 410.54 471.278 409.405 472.12 408.559C472.966 407.717 474.101 407.206 475.386 407.204C476.673 407.206 477.808 407.717 478.654 408.559C479.496 409.405 480.007 410.54 480.008 411.825H483.136H486.263C486.262 405.817 481.394 400.953 475.386 400.95C469.378 400.953 464.512 405.819 464.511 411.825C464.512 417.834 469.38 422.699 475.386 422.701C481.394 422.701 486.262 417.834 486.263 411.825H483.136Z" fill="#47A2DF" fill-opacity="0.34"/>
<path d="M162.661 353L84.0645 498.497L109.892 564.795L0 754.195L5.41042 757.333L116.813 565.33L90.9432 498.924L168.163 355.973L162.661 353Z" fill="#47A2DF" fill-opacity="0.34"/>
<path d="M203.002 253.388H206.13C206.131 252.103 206.641 250.968 207.482 250.122C208.328 249.281 209.465 248.769 210.751 248.768C212.036 248.769 213.171 249.281 214.017 250.122C214.858 250.968 215.37 252.103 215.371 253.388C215.37 254.675 214.858 255.811 214.017 256.656C213.171 257.498 212.036 258.009 210.751 258.011C209.465 258.009 208.328 257.498 207.482 256.656C206.641 255.811 206.131 254.675 206.13 253.388H203.002H199.875C199.877 259.396 204.743 264.262 210.751 264.265C216.758 264.262 221.623 259.396 221.626 253.388C221.623 247.381 216.758 242.516 210.751 242.513C204.743 242.516 199.877 247.381 199.875 253.388H203.002Z" fill="#47A2DF" fill-opacity="0.34"/>
<path d="M244.723 208.67C237.869 208.67 232.311 203.111 232.311 196.255C232.311 189.4 237.869 183.841 244.723 183.841C251.58 183.841 257.139 189.4 257.139 196.255C257.139 203.111 251.58 208.67 244.723 208.67ZM259.402 196.255C259.402 196.09 259.394 195.925 259.389 195.761L261.084 195.583L260.867 193.511L259.173 193.689C259.115 193.363 259.048 193.04 258.972 192.721L260.587 192.196L259.944 190.215L258.327 190.74C258.201 190.434 258.069 190.132 257.925 189.836L259.397 188.987L258.354 187.183L256.884 188.033C256.698 187.76 256.501 187.496 256.299 187.236L257.564 186.096L256.171 184.548L254.904 185.688C254.667 185.46 254.423 185.238 254.169 185.025L255.172 183.649L253.486 182.423L252.485 183.801C252.205 183.625 251.922 183.46 251.63 183.303L252.323 181.752L250.42 180.905L249.727 182.454C249.419 182.343 249.105 182.245 248.787 182.152L249.141 180.489L247.103 180.056L246.748 181.721C246.424 181.675 246.096 181.643 245.766 181.619V179.915H243.682V181.619C243.352 181.643 243.023 181.675 242.7 181.721L242.346 180.056L240.307 180.489L240.662 182.152C240.345 182.245 240.027 182.343 239.719 182.454L239.03 180.905L237.127 181.752L237.818 183.303C237.527 183.46 237.241 183.625 236.963 183.801L235.963 182.423L234.278 183.649L235.277 185.025C235.025 185.238 234.781 185.46 234.545 185.688L233.278 184.548L231.884 186.096L233.15 187.236C232.947 187.496 232.75 187.76 232.565 188.033L231.092 187.183L230.051 188.987L231.522 189.836C231.379 190.132 231.247 190.434 231.122 190.74L229.505 190.215L228.863 192.196L230.478 192.721C230.4 193.04 230.332 193.363 230.275 193.689L228.583 193.511L228.364 195.583L230.059 195.761C230.054 195.925 230.048 196.09 230.048 196.255C230.048 196.421 230.054 196.585 230.059 196.749L228.364 196.928L228.583 199L230.275 198.821C230.332 199.148 230.4 199.47 230.478 199.789L228.863 200.315L229.505 202.296L231.122 201.77C231.247 202.077 231.379 202.379 231.524 202.674L230.051 203.523L231.092 205.328L232.565 204.477C232.75 204.751 232.947 205.015 233.15 205.275L231.884 206.415L233.278 207.963L234.545 206.823C234.781 207.051 235.025 207.273 235.277 207.486L234.278 208.863L235.963 210.088L236.963 208.71C237.241 208.885 237.527 209.051 237.818 209.206L237.127 210.759L239.03 211.606L239.719 210.057C240.029 210.169 240.345 210.268 240.662 210.358L240.307 212.022L242.346 212.455L242.7 210.79C243.023 210.835 243.352 210.868 243.682 210.892V212.596H245.766V210.892C246.096 210.868 246.424 210.835 246.748 210.79L247.103 212.455L249.141 212.022L248.787 210.358C249.105 210.268 249.419 210.169 249.727 210.057L250.42 211.606L252.323 210.759L251.63 209.207C251.922 209.051 252.205 208.885 252.485 208.71L253.486 210.088L255.172 208.863L254.169 207.486C254.423 207.273 254.667 207.051 254.904 206.823L256.171 207.963L257.564 206.415L256.299 205.275C256.501 205.015 256.698 204.751 256.884 204.477L258.354 205.328L259.397 203.523L257.925 202.674C258.069 202.379 258.201 202.077 258.327 201.77L259.944 202.296L260.587 200.315L258.972 199.789C259.048 199.47 259.115 199.148 259.173 198.821L260.867 199L261.084 196.928L259.389 196.749C259.394 196.585 259.402 196.421 259.402 196.255Z" fill="#47A2DF" fill-opacity="0.34"/>
<path d="M389.6 482.357C385.621 482.357 382.393 479.13 382.393 475.15C382.393 471.171 385.621 467.943 389.6 467.943C393.582 467.943 396.807 471.171 396.807 475.15C396.807 479.13 393.582 482.357 389.6 482.357ZM398.121 475.15L398.113 474.864L399.098 474.761L398.972 473.557L397.988 473.66C397.954 473.471 397.916 473.283 397.871 473.099L398.809 472.794L398.435 471.643L397.497 471.95C397.425 471.77 397.349 471.595 397.264 471.424L398.118 470.93L397.513 469.882L396.659 470.376C396.551 470.218 396.437 470.065 396.32 469.914L397.054 469.252L396.246 468.353L395.51 469.016C395.372 468.883 395.23 468.755 395.086 468.631L395.666 467.831L394.687 467.121L394.107 467.92C393.944 467.818 393.78 467.723 393.61 467.632L394.012 466.73L392.906 466.237L392.506 467.138C392.326 467.074 392.145 467.016 391.958 466.963L392.163 465.997L390.981 465.746L390.776 466.713C390.589 466.686 390.396 466.667 390.204 466.653V465.663H388.995V466.653C388.804 466.667 388.614 466.686 388.426 466.713L388.22 465.746L387.036 465.997L387.242 466.963C387.058 467.016 386.875 467.074 386.695 467.138L386.293 466.237L385.189 466.73L385.591 467.632C385.422 467.723 385.256 467.818 385.095 467.92L384.514 467.121L383.536 467.831L384.117 468.631C383.97 468.755 383.827 468.883 383.69 469.016L382.956 468.353L382.146 469.252L382.881 469.914C382.764 470.065 382.648 470.218 382.542 470.376L381.687 469.882L381.081 470.93L381.937 471.424C381.854 471.595 381.777 471.77 381.704 471.95L380.766 471.643L380.392 472.794L381.33 473.099C381.285 473.283 381.246 473.471 381.211 473.66L380.231 473.557L380.103 474.761L381.086 474.864L381.08 475.15L381.086 475.437L380.103 475.541L380.231 476.744L381.211 476.641C381.246 476.83 381.285 477.017 381.33 477.202L380.392 477.505L380.766 478.658L381.704 478.351C381.777 478.53 381.854 478.705 381.937 478.877L381.081 479.369L381.687 480.417L382.542 479.923C382.648 480.082 382.764 480.236 382.881 480.386L382.146 481.049L382.956 481.946L383.69 481.285C383.827 481.418 383.97 481.546 384.117 481.669L383.536 482.468L384.514 483.18L385.095 482.381C385.256 482.483 385.422 482.579 385.591 482.669L385.189 483.569L386.293 484.062L386.695 483.163C386.875 483.228 387.058 483.285 387.242 483.338L387.036 484.303L388.22 484.554L388.426 483.588C388.614 483.615 388.804 483.633 388.995 483.647V484.636H390.204V483.647C390.396 483.633 390.589 483.615 390.776 483.588L390.981 484.554L392.163 484.303L391.958 483.338C392.145 483.285 392.326 483.228 392.506 483.163L392.906 484.062L394.012 483.569L393.61 482.669C393.78 482.579 393.944 482.483 394.107 482.381L394.687 483.18L395.666 482.468L395.086 481.669C395.23 481.546 395.372 481.418 395.51 481.285L396.246 481.946L397.054 481.049L396.32 480.386C396.437 480.236 396.551 480.082 396.659 479.923L397.513 480.417L398.118 479.369L397.264 478.877C397.349 478.705 397.425 478.53 397.497 478.351L398.435 478.658L398.809 477.505L397.871 477.202C397.916 477.017 397.954 476.83 397.988 476.641L398.972 476.744L399.098 475.541L398.113 475.437L398.121 475.15Z" fill="#47A2DF" fill-opacity="0.34"/>
<path d="M370.026 110.81C366.464 110.81 363.574 107.922 363.574 104.358C363.574 100.793 366.464 97.9047 370.026 97.9047C373.589 97.9047 376.479 100.793 376.479 104.358C376.479 107.922 373.589 110.81 370.026 110.81ZM380.296 106.123L379.539 105.848C379.119 105.695 378.859 105.282 378.883 104.835C378.892 104.677 378.897 104.518 378.897 104.358C378.897 104.205 378.892 104.053 378.884 103.901L380.41 103.492C380.947 103.349 381.263 102.799 381.119 102.266L380.679 100.622C380.537 100.089 379.986 99.7702 379.45 99.9141L378.671 100.124C378.241 100.238 377.793 100.052 377.558 99.6732L377.455 99.5137C377.211 99.14 377.231 98.6537 377.517 98.3113L378.037 97.692C378.393 97.2683 378.338 96.6365 377.913 96.2816L376.611 95.1885C376.187 94.832 375.553 94.8868 375.198 95.3121L374.681 95.9282C374.396 96.2675 373.924 96.3769 373.519 96.2034C373.217 96.0736 372.909 95.961 372.592 95.8656C372.168 95.7374 371.879 95.3512 371.879 94.9102V94.1033C371.879 93.5498 371.43 93.101 370.876 93.101H369.177C368.623 93.101 368.174 93.5498 368.174 94.1033V94.9071C368.174 95.3543 367.876 95.739 367.449 95.8688L367.266 95.9251C366.842 96.0642 366.379 95.9188 366.123 95.5529L365.662 94.8946C365.344 94.4427 364.72 94.3316 364.267 94.6491L362.873 95.6248C362.42 95.9422 362.311 96.5677 362.628 97.0197L363.091 97.6811C363.347 98.047 363.324 98.5333 363.049 98.8851L362.933 99.0337C362.665 99.3902 362.201 99.5387 361.784 99.3855L361.024 99.1103C360.504 98.9195 359.929 99.1885 359.74 99.7092L359.158 101.306C358.969 101.826 359.238 102.402 359.759 102.591L360.514 102.866C360.936 103.02 361.196 103.432 361.169 103.88C361.161 104.037 361.157 104.197 361.157 104.358C361.157 104.51 361.16 104.661 361.167 104.813L359.643 105.223C359.108 105.365 358.791 105.915 358.933 106.449L359.374 108.092C359.516 108.627 360.067 108.944 360.601 108.801L361.38 108.593C361.81 108.477 362.259 108.663 362.497 109.041L362.597 109.201C362.841 109.575 362.822 110.061 362.534 110.403L362.017 111.021C361.662 111.446 361.716 112.078 362.14 112.435L363.443 113.526C363.866 113.883 364.498 113.828 364.855 113.402L365.374 112.785C365.657 112.447 366.128 112.338 366.534 112.511C366.834 112.641 367.144 112.754 367.461 112.849C367.884 112.977 368.174 113.363 368.174 113.806V114.611C368.174 115.165 368.623 115.614 369.177 115.614H370.876C371.43 115.614 371.879 115.165 371.879 114.611V113.807C371.879 113.36 372.176 112.976 372.604 112.846L372.786 112.789C373.209 112.65 373.674 112.796 373.929 113.162L374.39 113.818C374.707 114.272 375.333 114.383 375.786 114.065L377.178 113.091C377.632 112.772 377.743 112.147 377.425 111.693L376.962 111.033C376.707 110.668 376.728 110.181 377.005 109.831L377.119 109.679C377.388 109.324 377.85 109.177 378.271 109.329L379.028 109.604C379.549 109.795 380.124 109.526 380.313 109.005L380.893 107.409C381.083 106.888 380.817 106.313 380.296 106.123Z" fill="#47A2DF" fill-opacity="0.34"/>
<path d="M244.723 504.135C241.161 504.135 238.271 501.246 238.271 497.682C238.271 494.118 241.161 491.23 244.723 491.23C248.288 491.23 251.176 494.118 251.176 497.682C251.176 501.246 248.288 504.135 244.723 504.135ZM254.993 499.449L254.237 499.174C253.816 499.019 253.556 498.608 253.58 498.159C253.589 498.002 253.594 497.841 253.594 497.682C253.594 497.529 253.589 497.377 253.581 497.227L255.108 496.817C255.644 496.673 255.96 496.124 255.818 495.59L255.377 493.948C255.234 493.413 254.684 493.096 254.151 493.239L253.37 493.447C252.939 493.563 252.49 493.377 252.255 492.999L252.152 492.838C251.908 492.464 251.929 491.978 252.215 491.637L252.734 491.017C253.09 490.594 253.036 489.96 252.61 489.605L251.308 488.512C250.884 488.157 250.251 488.212 249.896 488.638L249.378 489.254C249.094 489.593 248.621 489.701 248.216 489.527C247.915 489.399 247.607 489.286 247.289 489.19C246.865 489.063 246.576 488.675 246.576 488.234V487.427C246.576 486.875 246.127 486.425 245.574 486.425H243.874C243.32 486.425 242.872 486.875 242.872 487.427V488.233C242.872 488.678 242.573 489.064 242.146 489.193L241.965 489.25C241.541 489.388 241.077 489.243 240.82 488.878L240.359 488.22C240.043 487.767 239.417 487.657 238.964 487.975L237.571 488.949C237.117 489.266 237.008 489.892 237.325 490.345L237.788 491.005C238.045 491.372 238.021 491.857 237.746 492.209L237.63 492.358C237.363 492.716 236.898 492.863 236.481 492.711L235.721 492.434C235.202 492.245 234.626 492.512 234.437 493.033L233.855 494.631C233.666 495.152 233.935 495.727 234.456 495.917L235.211 496.192C235.633 496.343 235.893 496.758 235.868 497.203C235.859 497.363 235.854 497.521 235.854 497.682C235.854 497.834 235.857 497.987 235.865 498.139L234.34 498.547C233.805 498.689 233.488 499.239 233.632 499.774L234.071 501.416C234.215 501.951 234.764 502.268 235.299 502.126L236.077 501.916C236.509 501.801 236.956 501.988 237.194 502.367L237.294 502.525C237.54 502.9 237.521 503.386 237.233 503.729L236.714 504.345C236.359 504.77 236.414 505.402 236.837 505.758L238.14 506.851C238.564 507.208 239.195 507.152 239.552 506.728L240.071 506.11C240.354 505.772 240.825 505.661 241.233 505.837C241.532 505.966 241.843 506.079 242.159 506.173C242.581 506.301 242.872 506.687 242.872 507.13V507.935C242.872 508.49 243.32 508.939 243.874 508.939H245.574C246.127 508.939 246.576 508.49 246.576 507.935V507.133C246.576 506.686 246.873 506.299 247.302 506.17L247.483 506.113C247.907 505.974 248.371 506.12 248.626 506.487L249.087 507.144C249.405 507.599 250.03 507.708 250.484 507.391L251.877 506.415C252.33 506.098 252.44 505.472 252.124 505.019L251.66 504.357C251.405 503.993 251.427 503.505 251.702 503.155L251.818 503.005C252.085 502.648 252.548 502.501 252.968 502.653L253.725 502.93C254.246 503.119 254.821 502.85 255.011 502.329L255.591 500.733C255.782 500.214 255.514 499.638 254.993 499.449Z" fill="#47A2DF" fill-opacity="0.34"/>
<path d="M435.152 461.796C432.946 461.796 431.159 460.009 431.159 457.803C431.159 455.598 432.946 453.809 435.152 453.809C437.357 453.809 439.144 455.598 439.144 457.803C439.144 460.009 437.357 461.796 435.152 461.796ZM441.506 458.896L441.038 458.727C440.777 458.63 440.617 458.375 440.631 458.098L440.641 457.803L440.633 457.521L441.578 457.268C441.909 457.179 442.105 456.84 442.015 456.508L441.743 455.492C441.656 455.16 441.315 454.965 440.983 455.054L440.502 455.182C440.236 455.254 439.958 455.138 439.812 454.904L439.748 454.805C439.598 454.574 439.61 454.274 439.787 454.061L440.108 453.679C440.328 453.417 440.295 453.024 440.033 452.805L439.226 452.128C438.963 451.908 438.572 451.944 438.352 452.206L438.031 452.588C437.856 452.797 437.565 452.865 437.312 452.757C437.126 452.675 436.935 452.608 436.739 452.547C436.477 452.469 436.299 452.228 436.299 451.958V451.457C436.299 451.115 436.02 450.838 435.678 450.838H434.625C434.283 450.838 434.005 451.115 434.005 451.457V451.956C434.005 452.231 433.822 452.471 433.556 452.549L433.445 452.585C433.182 452.671 432.894 452.582 432.736 452.355L432.45 451.948C432.255 451.667 431.867 451.598 431.587 451.795L430.725 452.399C430.446 452.596 430.377 452.982 430.574 453.262L430.858 453.672C431.018 453.898 431.004 454.198 430.833 454.416L430.761 454.508C430.596 454.73 430.31 454.821 430.05 454.727L429.581 454.557C429.259 454.438 428.902 454.605 428.785 454.926L428.427 455.915C428.31 456.238 428.474 456.592 428.796 456.71L429.265 456.88C429.525 456.974 429.686 457.23 429.672 457.507L429.662 457.803L429.67 458.084L428.726 458.339C428.394 458.427 428.197 458.768 428.288 459.098L428.56 460.114C428.647 460.444 428.988 460.641 429.318 460.553L429.801 460.424C430.069 460.353 430.344 460.467 430.491 460.702L430.553 460.8C430.705 461.032 430.693 461.334 430.516 461.545L430.195 461.926C429.975 462.189 430.009 462.58 430.27 462.8L431.077 463.477C431.338 463.696 431.731 463.664 431.951 463.401L432.272 463.019C432.447 462.81 432.74 462.741 432.991 462.849C433.177 462.929 433.368 462.999 433.564 463.058C433.826 463.137 434.005 463.376 434.005 463.649V464.148C434.005 464.491 434.283 464.769 434.625 464.769H435.678C436.02 464.769 436.299 464.491 436.299 464.148V463.651C436.299 463.374 436.481 463.137 436.747 463.055L436.858 463.021C437.121 462.935 437.409 463.026 437.567 463.251L437.851 463.659C438.048 463.94 438.435 464.008 438.716 463.812L439.579 463.207C439.857 463.011 439.926 462.624 439.729 462.344L439.445 461.934C439.285 461.709 439.299 461.407 439.47 461.19L439.542 461.096C439.707 460.877 439.994 460.785 440.253 460.88L440.722 461.051C441.044 461.168 441.401 461.002 441.518 460.68L441.876 459.692C441.995 459.37 441.828 459.013 441.506 458.896Z" fill="#47A2DF" fill-opacity="0.34"/>
<path d="M490.005 62.1868C487.801 62.1868 486.012 60.3995 486.012 58.1931C486.012 55.9883 487.801 54.201 490.005 54.201C492.212 54.201 493.998 55.9883 493.998 58.1931C493.998 60.3995 492.212 62.1868 490.005 62.1868ZM496.36 59.2877L495.891 59.1158C495.632 59.0219 495.471 58.7671 495.488 58.4903L495.494 58.1931L495.488 57.9117L496.432 57.6584C496.762 57.5708 496.959 57.2299 496.87 56.8984L496.596 55.882C496.509 55.5521 496.169 55.3566 495.838 55.4442L495.356 55.5739C495.091 55.6443 494.812 55.5302 494.665 55.2956L494.603 55.1971C494.451 54.9657 494.464 54.6639 494.642 54.4513L494.964 54.0697C495.183 53.807 495.148 53.416 494.886 53.1956L494.08 52.5201C493.818 52.2996 493.427 52.334 493.206 52.5951L492.884 52.9783C492.709 53.1878 492.418 53.255 492.166 53.1487C491.98 53.0674 491.788 52.9986 491.593 52.9392C491.331 52.861 491.152 52.6202 491.152 52.3465V51.8492C491.152 51.5052 490.873 51.2284 490.532 51.2284H489.48C489.138 51.2284 488.859 51.5052 488.859 51.8492V52.3465C488.859 52.6233 488.675 52.861 488.41 52.9407L488.298 52.9767C488.035 53.0611 487.747 52.972 487.591 52.7452L487.305 52.3387C487.108 52.0572 486.722 51.99 486.44 52.1854L485.58 52.7906C485.299 52.9861 485.23 53.3739 485.427 53.6538L485.715 54.0619C485.871 54.2886 485.857 54.5889 485.686 54.8062L485.616 54.9001C485.45 55.1205 485.163 55.2112 484.905 55.1173L484.434 54.9469C484.112 54.8297 483.757 54.9954 483.64 55.3175L483.28 56.3058C483.163 56.6279 483.328 56.9844 483.651 57.1001L484.118 57.2706C484.379 57.3659 484.54 57.6209 484.525 57.8976L484.517 58.1931L484.523 58.4762L483.579 58.7295C483.249 58.8171 483.052 59.1579 483.141 59.4894L483.413 60.5058C483.5 60.8358 483.841 61.0313 484.173 60.9437L484.656 60.8139C484.922 60.7435 485.199 60.8593 485.346 61.0938L485.408 61.1923C485.56 61.4222 485.547 61.724 485.369 61.9351L485.048 62.3182C484.828 62.5809 484.862 62.9718 485.125 63.1923L485.93 63.8678C486.193 64.0883 486.584 64.0539 486.805 63.7912L487.125 63.4097C487.302 63.2001 487.593 63.1328 487.844 63.2392C488.031 63.3205 488.221 63.3893 488.418 63.4488C488.679 63.5285 488.859 63.7678 488.859 64.0414V64.5402C488.859 64.8827 489.138 65.1594 489.48 65.1594H490.532C490.873 65.1594 491.152 64.8827 491.152 64.5402V64.0414C491.152 63.7662 491.336 63.5269 491.6 63.4471L491.713 63.4128C491.976 63.3268 492.263 63.4159 492.421 63.6426L492.706 64.0492C492.903 64.3291 493.289 64.3979 493.571 64.2009L494.432 63.5989C494.712 63.4018 494.779 63.0156 494.584 62.7341L494.298 62.326C494.138 62.0993 494.154 61.799 494.323 61.5801L494.395 61.4879C494.562 61.2674 494.847 61.1767 495.106 61.2705L495.577 61.4409C495.897 61.5582 496.254 61.3925 496.371 61.0704L496.731 60.0821C496.848 59.76 496.682 59.4034 496.36 59.2877Z" fill="#47A2DF" fill-opacity="0.34"/>
</svg>
