<svg width="354" height="124" viewBox="0 0 354 124" fill="none" xmlns="http://www.w3.org/2000/svg">
<path d="M71.6924 16.5772C71.6924 13.4799 74.2056 10.9668 77.3028 10.9668C80.4025 10.9668 82.9132 13.4799 82.9132 16.5772C82.9132 19.6768 80.4025 22.1875 77.3028 22.1875C74.2056 22.1875 71.6924 19.6768 71.6924 16.5772Z" fill="#47A2DF" fill-opacity="0.34"/>
<path d="M342 5.61036C342 2.5131 344.513 7.62939e-06 347.61 7.62939e-06C350.71 7.62939e-06 353.221 2.5131 353.221 5.61036C353.221 8.70997 350.71 11.2207 347.61 11.2207C344.513 11.2207 342 8.70997 342 5.61036Z" fill="#47A2DF" fill-opacity="0.34"/>
<path d="M8.37427 122.496C11.0688 120.972 12.0203 117.55 10.4964 114.853C8.97012 112.153 5.54784 111.202 2.85099 112.728C0.154137 114.252 -0.79742 117.674 0.726477 120.371C2.25273 123.07 5.67507 124.02 8.37427 122.496Z" fill="#47A2DF" fill-opacity="0.34"/>
<path d="M303.373 81.4969C306.07 79.9707 307.022 76.5484 305.496 73.8515C303.974 71.1523 300.547 70.2031 297.853 71.727C295.153 73.2509 294.202 76.6732 295.728 79.3724C297.252 82.0693 300.674 83.0208 303.373 81.4969Z" fill="#47A2DF" fill-opacity="0.34"/>
</svg>
