<svg width="480" height="492" viewBox="0 0 480 492" fill="none" xmlns="http://www.w3.org/2000/svg">
<path d="M222.374 10.4957C225.069 8.97178 226.02 5.5495 224.496 2.85265C222.97 0.153449 219.548 -0.798108 216.851 0.728144C214.154 2.25204 213.203 5.67432 214.726 8.37117C216.253 11.0704 219.675 12.0196 222.374 10.4957Z" fill="#47A2DF" fill-opacity="0.34"/>
<path d="M461.374 143.496C464.069 141.972 465.02 138.55 463.496 135.853C461.97 133.153 458.548 132.202 455.851 133.728C453.154 135.252 452.203 138.674 453.726 141.371C455.253 144.07 458.675 145.02 461.374 143.496Z" fill="#47A2DF" fill-opacity="0.34"/>
<path fill-rule="evenodd" clip-rule="evenodd" d="M-136.79 286.847C-141.324 278.137 -137.939 267.401 -129.229 262.866L348.393 14.2102C357.103 9.67578 367.839 13.0606 372.374 21.7704L470.898 211.017C475.432 219.727 472.048 230.463 463.338 234.998L-14.2846 483.654C-22.9945 488.188 -33.7311 484.804 -38.2655 476.094L-136.79 286.847ZM-126.884 267.372C-133.105 270.611 -135.523 278.28 -132.284 284.501L-33.7597 473.748C-30.5208 479.969 -22.8518 482.387 -16.6304 479.148L460.992 230.492C467.213 227.253 469.631 219.584 466.392 213.363L367.868 24.1162C364.629 17.8949 356.96 15.4772 350.739 18.7161L-126.884 267.372Z" fill="#47A2DF" fill-opacity="0.2"/>
<path fill-rule="evenodd" clip-rule="evenodd" d="M-109.197 306.845C-112.436 300.624 -110.019 292.955 -103.797 289.716L355.802 50.4429C362.023 47.204 369.692 49.6218 372.931 55.8431L452.688 209.043C455.927 215.264 453.51 222.933 447.288 226.172L-12.3106 465.445C-18.5319 468.684 -26.201 466.266 -29.4398 460.045L-109.197 306.845ZM-101.452 294.222C-105.184 296.165 -106.635 300.766 -104.692 304.499L-24.934 457.699C-22.9906 461.432 -18.3892 462.882 -14.6565 460.939L444.942 221.666C448.675 219.723 450.126 215.121 448.183 211.389L368.425 58.1889C366.482 54.4561 361.88 53.0055 358.147 54.9488L-101.452 294.222Z" fill="#47A2DF" fill-opacity="0.2"/>
<path fill-rule="evenodd" clip-rule="evenodd" d="M5.45829 301.562L-21.5769 315.636C-22.8212 316.284 -23.3048 317.818 -22.657 319.062L-10.9279 341.592C-10.2801 342.836 -10.7637 344.37 -12.0079 345.017L-34.5373 356.746C-35.7816 357.394 -36.2651 358.928 -35.6173 360.172L-21.5425 387.208C-20.8947 388.452 -19.3609 388.935 -18.1166 388.288L4.41274 376.559C5.65701 375.911 7.19081 376.394 7.83859 377.639L19.5676 400.168C20.2185 401.418 21.7461 401.897 22.9844 401.253L50.0405 387.167C51.2771 386.523 51.7605 384.999 51.1087 383.747L39.3797 361.218C38.7319 359.974 39.2155 358.44 40.4597 357.792L62.9891 346.063C64.2333 345.415 64.7169 343.881 64.0691 342.637L49.9942 315.602C49.3465 314.358 47.8126 313.874 46.5684 314.522L24.039 326.251C22.7948 326.899 21.261 326.415 20.6132 325.171L8.88412 302.642C8.23635 301.397 6.70254 300.914 5.45829 301.562ZM-23.9228 311.131L3.11247 297.056C6.84526 295.112 11.4467 296.563 13.39 300.296L23.9462 320.572L44.2226 310.016C47.9554 308.073 52.5568 309.523 54.5001 313.256L68.575 340.291C70.5183 344.024 69.0677 348.626 65.3349 350.569L45.0585 361.125L55.6146 381.401C57.5539 385.127 56.1268 389.725 52.3863 391.673L25.3302 405.759C21.5915 407.705 17.002 406.241 15.0618 402.514L4.50562 382.237L-15.7708 392.793C-19.5036 394.737 -24.105 393.286 -26.0483 389.553L-40.1232 362.518C-42.0665 358.785 -40.6159 354.184 -36.8831 352.241L-16.6067 341.684L-27.1628 321.408C-29.1062 317.675 -27.6555 313.074 -23.9228 311.131Z" fill="#47A2DF" fill-opacity="0.2"/>
<path fill-rule="evenodd" clip-rule="evenodd" d="M90.9186 317.205C88.9753 313.472 90.4259 308.871 94.1587 306.928L220.323 241.245C224.056 239.301 228.657 240.752 230.601 244.485L249.367 280.532C251.31 284.265 249.86 288.866 246.127 290.809L119.963 356.492C116.23 358.435 111.628 356.985 109.685 353.252L90.9186 317.205ZM96.5045 311.433C95.2603 312.081 94.7767 313.615 95.4245 314.859L114.191 350.906C114.839 352.151 116.373 352.634 117.617 351.986L243.781 286.304C245.025 285.656 245.509 284.122 244.861 282.878L226.095 246.831C225.447 245.586 223.913 245.103 222.669 245.751L96.5045 311.433Z" fill="#47A2DF" fill-opacity="0.2"/>
<path fill-rule="evenodd" clip-rule="evenodd" d="M250.784 228.25C248.841 224.517 250.292 219.916 254.024 217.972L299.083 194.514C302.816 192.571 307.417 194.021 309.361 197.754L332.819 242.813C334.762 246.546 333.312 251.147 329.579 253.09L284.52 276.549C280.787 278.492 276.186 277.041 274.242 273.308L250.784 228.25ZM256.37 222.478C255.126 223.126 254.642 224.66 255.29 225.904L278.748 270.963C279.396 272.207 280.93 272.69 282.174 272.043L327.233 248.585C328.477 247.937 328.961 246.403 328.313 245.159L304.855 200.1C304.207 198.856 302.673 198.372 301.429 199.02L256.37 222.478Z" fill="#47A2DF" fill-opacity="0.2"/>
<path fill-rule="evenodd" clip-rule="evenodd" d="M318.372 193.063C316.429 189.33 317.88 184.728 321.612 182.785L366.671 159.327C370.404 157.384 375.005 158.834 376.949 162.567L400.407 207.626C402.35 211.358 400.899 215.96 397.167 217.903L352.108 241.361C348.375 243.305 343.774 241.854 341.83 238.121L318.372 193.063ZM323.958 187.291C322.714 187.939 322.23 189.472 322.878 190.717L346.336 235.775C346.984 237.02 348.518 237.503 349.762 236.855L394.821 213.397C396.065 212.75 396.549 211.216 395.901 209.971L372.443 164.913C371.795 163.669 370.261 163.185 369.017 163.833L323.958 187.291Z" fill="#47A2DF" fill-opacity="0.2"/>
<path fill-rule="evenodd" clip-rule="evenodd" d="M58.0773 254.123C56.134 250.39 57.5846 245.788 61.3174 243.845L187.482 178.162C191.215 176.219 195.816 177.67 197.759 181.402L204.797 194.92C206.74 198.653 205.289 203.254 201.557 205.198L75.3923 270.88C71.6595 272.824 67.0581 271.373 65.1148 267.64L58.0773 254.123ZM63.6632 248.351C62.419 248.999 61.9354 250.533 62.5832 251.777L69.6206 265.294C70.2684 266.539 71.8022 267.022 73.0465 266.374L199.211 200.692C200.455 200.044 200.939 198.51 200.291 197.266L193.253 183.748C192.606 182.504 191.072 182.02 189.828 182.668L63.6632 248.351Z" fill="#47A2DF" fill-opacity="0.2"/>
<path fill-rule="evenodd" clip-rule="evenodd" d="M74.4977 285.664C72.5544 281.931 74.005 277.33 77.7378 275.386L203.902 209.704C207.635 207.76 212.236 209.211 214.18 212.944L221.217 226.461C223.161 230.194 221.71 234.795 217.977 236.739L91.8127 302.422C88.0799 304.365 83.4785 302.914 81.5352 299.181L74.4977 285.664ZM80.0836 279.892C78.8394 280.54 78.3558 282.074 79.0036 283.318L86.041 296.836C86.6888 298.08 88.2226 298.563 89.4669 297.916L215.631 232.233C216.876 231.585 217.359 230.051 216.711 228.807L209.674 215.289C209.026 214.045 207.492 213.562 206.248 214.209L80.0836 279.892Z" fill="#47A2DF" fill-opacity="0.2"/>
<path fill-rule="evenodd" clip-rule="evenodd" d="M118.325 325.845C116.382 322.112 117.833 317.511 121.565 315.568L148.601 301.493C152.333 299.549 156.935 301 158.878 304.733C160.822 308.466 159.371 313.067 155.638 315.01L128.603 329.085C124.87 331.029 120.269 329.578 118.325 325.845ZM123.911 320.074C122.667 320.721 122.183 322.255 122.831 323.499C123.479 324.744 125.013 325.227 126.257 324.579L153.292 310.505C154.537 309.857 155.02 308.323 154.372 307.079C153.725 305.834 152.191 305.351 150.946 305.999L123.911 320.074Z" fill="#47A2DF" fill-opacity="0.2"/>
<path fill-rule="evenodd" clip-rule="evenodd" d="M181.407 293.004C179.464 289.271 180.915 284.669 184.647 282.726L211.683 268.651C215.415 266.708 220.017 268.159 221.96 271.891C223.904 275.624 222.453 280.226 218.72 282.169L191.685 296.244C187.952 298.187 183.351 296.736 181.407 293.004ZM186.993 287.232C185.749 287.88 185.265 289.414 185.913 290.658C186.561 291.902 188.095 292.386 189.339 291.738L216.374 277.663C217.619 277.015 218.102 275.481 217.454 274.237C216.807 272.993 215.273 272.509 214.029 273.157L186.993 287.232Z" fill="#47A2DF" fill-opacity="0.2"/>
<path fill-rule="evenodd" clip-rule="evenodd" d="M123.76 380.287C121.817 376.554 123.267 371.953 127 370.01L253.164 304.327C256.897 302.384 261.499 303.834 263.442 307.567L268.134 316.579C268.781 317.823 268.298 319.357 267.054 320.005L131.877 390.379C130.633 391.027 129.099 390.543 128.452 389.299L123.76 380.287ZM129.346 374.515C128.102 375.163 127.618 376.697 128.266 377.941L131.785 384.7L262.455 316.672L258.936 309.913C258.288 308.668 256.754 308.185 255.51 308.833L129.346 374.515Z" fill="#47A2DF" fill-opacity="0.2"/>
<path fill-rule="evenodd" clip-rule="evenodd" d="M188.376 163.379C190.319 167.112 188.869 171.713 185.136 173.656L58.9713 239.339C55.2385 241.283 50.6371 239.832 48.6938 236.099L39.3106 218.076C38.6628 216.831 39.1463 215.298 40.3906 214.65L175.567 144.275C176.811 143.628 178.345 144.111 178.993 145.355L188.376 163.379ZM182.79 169.151C184.034 168.503 184.518 166.969 183.87 165.725L175.66 149.954L44.9893 217.983L53.1997 233.753C53.8475 234.998 55.3813 235.481 56.6255 234.833L182.79 169.151Z" fill="#47A2DF" fill-opacity="0.2"/>
<path fill-rule="evenodd" clip-rule="evenodd" d="M283.591 219.761C274.882 224.295 271.497 235.032 276.031 243.742C280.566 252.451 291.302 255.836 300.012 251.302C308.722 246.767 312.107 236.031 307.572 227.321C303.038 218.611 292.301 215.226 283.591 219.761ZM271.525 246.087C265.695 234.889 270.047 221.085 281.246 215.255C292.444 209.425 306.248 213.777 312.078 224.975C317.908 236.174 313.556 249.978 302.358 255.808C291.16 261.638 277.355 257.286 271.525 246.087Z" fill="#47A2DF" fill-opacity="0.2"/>
<path fill-rule="evenodd" clip-rule="evenodd" d="M351.179 184.574C342.47 189.108 339.085 199.845 343.619 208.555C348.154 217.264 358.89 220.649 367.6 216.115C376.31 211.58 379.695 200.844 375.16 192.134C370.626 183.424 359.889 180.039 351.179 184.574ZM339.113 210.9C333.283 199.702 337.635 185.898 348.834 180.068C360.032 174.238 373.836 178.59 379.666 189.788C385.496 200.986 381.144 214.791 369.946 220.621C358.748 226.451 344.943 222.099 339.113 210.9Z" fill="#47A2DF" fill-opacity="0.2"/>
</svg>
