<svg width="782" height="775" viewBox="0 0 782 775" fill="none" xmlns="http://www.w3.org/2000/svg">
<path d="M265.22 225.584L214.896 312.746L216.25 313.528L266.575 226.366" fill="#47A2DF" fill-opacity="0.34"/>
<path d="M464.031 398.901C465.821 397.888 466.453 395.616 465.44 393.826C464.429 392.034 462.157 391.403 460.365 392.415C458.575 393.428 457.943 395.7 458.955 397.489C459.967 399.281 462.239 399.913 464.031 398.901Z" fill="#47A2DF" fill-opacity="0.34"/>
<path d="M484.482 355.412L434.158 442.574L435.512 443.356L485.837 356.194" fill="#47A2DF" fill-opacity="0.34"/>
<path d="M492.478 404.337L571.072 258.838L545.245 192.54L655.137 3.13989L649.726 -3.14547e-05L538.324 192.005L564.193 258.411L486.975 401.364L492.478 404.337" fill="#47A2DF" fill-opacity="0.34"/>
<path d="M493.136 411.825H490.008C490.007 413.112 489.496 414.247 488.654 415.093C487.808 415.935 486.673 416.444 485.386 416.447C484.101 416.446 482.966 415.935 482.118 415.093C481.278 414.247 480.767 413.112 480.766 411.825C480.767 410.54 481.278 409.405 482.12 408.559C482.966 407.717 484.101 407.206 485.386 407.204C486.673 407.206 487.808 407.717 488.654 408.559C489.496 409.405 490.007 410.54 490.008 411.825H493.136H496.263C496.262 405.817 491.394 400.953 485.386 400.95C479.378 400.953 474.512 405.819 474.511 411.825C474.512 417.834 479.38 422.699 485.386 422.701C491.394 422.701 496.262 417.834 496.263 411.825H493.136" fill="#47A2DF" fill-opacity="0.34"/>
<path d="M172.661 353L94.0645 498.497L119.892 564.795L10 754.195L15.4104 757.333L126.813 565.33L100.943 498.924L178.163 355.973L172.661 353" fill="#47A2DF" fill-opacity="0.34"/>
<path d="M213.002 253.388H216.13C216.131 252.103 216.641 250.968 217.482 250.122C218.328 249.281 219.465 248.769 220.751 248.768C222.036 248.769 223.171 249.281 224.017 250.122C224.858 250.968 225.37 252.103 225.371 253.388C225.37 254.675 224.858 255.811 224.017 256.656C223.171 257.498 222.036 258.009 220.751 258.011C219.465 258.009 218.328 257.498 217.482 256.656C216.641 255.811 216.131 254.675 216.13 253.388H213.002H209.875C209.877 259.396 214.743 264.262 220.751 264.265C226.758 264.262 231.623 259.396 231.626 253.388C231.623 247.381 226.758 242.516 220.751 242.513C214.743 242.516 209.877 247.381 209.875 253.388H213.002" fill="#47A2DF" fill-opacity="0.34"/>
<path d="M254.723 208.67C247.869 208.67 242.311 203.111 242.311 196.255C242.311 189.4 247.869 183.841 254.723 183.841C261.58 183.841 267.139 189.4 267.139 196.255C267.139 203.111 261.58 208.67 254.723 208.67ZM269.402 196.255C269.402 196.09 269.394 195.925 269.389 195.761L271.084 195.583L270.867 193.511L269.173 193.689C269.115 193.363 269.048 193.04 268.972 192.721L270.587 192.196L269.944 190.215L268.327 190.74C268.201 190.434 268.069 190.132 267.925 189.836L269.397 188.987L268.354 187.183L266.884 188.033C266.698 187.76 266.501 187.496 266.299 187.236L267.564 186.096L266.171 184.548L264.904 185.688C264.667 185.46 264.423 185.238 264.169 185.025L265.172 183.649L263.486 182.423L262.485 183.801C262.205 183.625 261.922 183.46 261.63 183.303L262.323 181.752L260.42 180.905L259.727 182.454C259.419 182.343 259.105 182.245 258.787 182.152L259.141 180.489L257.103 180.056L256.748 181.721C256.424 181.675 256.096 181.643 255.766 181.619V179.915H253.682V181.619C253.352 181.643 253.023 181.675 252.7 181.721L252.346 180.056L250.307 180.489L250.662 182.152C250.345 182.245 250.027 182.343 249.719 182.454L249.03 180.905L247.127 181.752L247.818 183.303C247.527 183.46 247.241 183.625 246.963 183.801L245.963 182.423L244.278 183.649L245.277 185.025C245.025 185.238 244.781 185.46 244.545 185.688L243.278 184.548L241.884 186.096L243.15 187.236C242.947 187.496 242.75 187.76 242.565 188.033L241.092 187.183L240.051 188.987L241.522 189.836C241.379 190.132 241.247 190.434 241.122 190.74L239.505 190.215L238.863 192.196L240.478 192.721C240.4 193.04 240.332 193.363 240.275 193.689L238.583 193.511L238.364 195.583L240.059 195.761C240.054 195.925 240.048 196.09 240.048 196.255C240.048 196.421 240.054 196.585 240.059 196.749L238.364 196.928L238.583 199L240.275 198.821C240.332 199.148 240.4 199.47 240.478 199.789L238.863 200.315L239.505 202.296L241.122 201.77C241.247 202.077 241.379 202.379 241.524 202.674L240.051 203.523L241.092 205.328L242.565 204.477C242.75 204.751 242.947 205.015 243.15 205.275L241.884 206.415L243.278 207.963L244.545 206.823C244.781 207.051 245.025 207.273 245.277 207.486L244.278 208.863L245.963 210.088L246.963 208.71C247.241 208.885 247.527 209.051 247.818 209.206L247.127 210.759L249.03 211.606L249.719 210.057C250.029 210.169 250.345 210.268 250.662 210.358L250.307 212.022L252.346 212.455L252.7 210.79C253.023 210.835 253.352 210.868 253.682 210.892V212.596H255.766V210.892C256.096 210.868 256.424 210.835 256.748 210.79L257.103 212.455L259.141 212.022L258.787 210.358C259.105 210.268 259.419 210.169 259.727 210.057L260.42 211.606L262.323 210.759L261.63 209.207C261.922 209.051 262.205 208.885 262.485 208.71L263.486 210.088L265.172 208.863L264.169 207.486C264.423 207.273 264.667 207.051 264.904 206.823L266.171 207.963L267.564 206.415L266.299 205.275C266.501 205.015 266.698 204.751 266.884 204.477L268.354 205.328L269.397 203.523L267.925 202.674C268.069 202.379 268.201 202.077 268.327 201.77L269.944 202.296L270.587 200.315L268.972 199.789C269.048 199.47 269.115 199.148 269.173 198.821L270.867 199L271.084 196.928L269.389 196.749C269.394 196.585 269.402 196.421 269.402 196.255" fill="#47A2DF" fill-opacity="0.34"/>
<path d="M399.6 482.357C395.621 482.357 392.393 479.13 392.393 475.15C392.393 471.171 395.621 467.943 399.6 467.943C403.582 467.943 406.807 471.171 406.807 475.15C406.807 479.13 403.582 482.357 399.6 482.357ZM408.121 475.15L408.113 474.864L409.098 474.761L408.972 473.557L407.988 473.66C407.954 473.471 407.916 473.283 407.871 473.099L408.809 472.794L408.435 471.643L407.497 471.95C407.425 471.77 407.349 471.595 407.264 471.424L408.118 470.93L407.513 469.882L406.659 470.376C406.551 470.218 406.437 470.065 406.32 469.914L407.054 469.252L406.246 468.353L405.51 469.016C405.372 468.883 405.23 468.755 405.086 468.631L405.666 467.831L404.687 467.121L404.107 467.92C403.944 467.818 403.78 467.723 403.61 467.632L404.012 466.73L402.906 466.237L402.506 467.138C402.326 467.074 402.145 467.016 401.958 466.963L402.163 465.997L400.981 465.746L400.776 466.713C400.589 466.686 400.396 466.667 400.204 466.653V465.663H398.995V466.653C398.804 466.667 398.614 466.686 398.426 466.713L398.22 465.746L397.036 465.997L397.242 466.963C397.058 467.016 396.875 467.074 396.695 467.138L396.293 466.237L395.189 466.73L395.591 467.632C395.422 467.723 395.256 467.818 395.095 467.92L394.514 467.121L393.536 467.831L394.117 468.631C393.97 468.755 393.827 468.883 393.69 469.016L392.956 468.353L392.146 469.252L392.881 469.914C392.764 470.065 392.648 470.218 392.542 470.376L391.687 469.882L391.081 470.93L391.937 471.424C391.854 471.595 391.777 471.77 391.704 471.95L390.766 471.643L390.392 472.794L391.33 473.099C391.285 473.283 391.246 473.471 391.211 473.66L390.231 473.557L390.103 474.761L391.086 474.864L391.08 475.15L391.086 475.437L390.103 475.541L390.231 476.744L391.211 476.641C391.246 476.83 391.285 477.017 391.33 477.202L390.392 477.505L390.766 478.658L391.704 478.351C391.777 478.53 391.854 478.705 391.937 478.877L391.081 479.369L391.687 480.417L392.542 479.923C392.648 480.082 392.764 480.236 392.881 480.386L392.146 481.049L392.956 481.946L393.69 481.285C393.827 481.418 393.97 481.546 394.117 481.669L393.536 482.468L394.514 483.18L395.095 482.381C395.256 482.483 395.422 482.579 395.591 482.669L395.189 483.569L396.293 484.062L396.695 483.163C396.875 483.228 397.058 483.285 397.242 483.338L397.036 484.303L398.22 484.554L398.426 483.588C398.614 483.615 398.804 483.633 398.995 483.647V484.636H400.204V483.647C400.396 483.633 400.589 483.615 400.776 483.588L400.981 484.554L402.163 484.303L401.958 483.338C402.145 483.285 402.326 483.228 402.506 483.163L402.906 484.062L404.012 483.569L403.61 482.669C403.78 482.579 403.944 482.483 404.107 482.381L404.687 483.18L405.666 482.468L405.086 481.669C405.23 481.546 405.372 481.418 405.51 481.285L406.246 481.946L407.054 481.049L406.32 480.386C406.437 480.236 406.551 480.082 406.659 479.923L407.513 480.417L408.118 479.369L407.264 478.877C407.349 478.705 407.425 478.53 407.497 478.351L408.435 478.658L408.809 477.505L407.871 477.202C407.916 477.017 407.954 476.83 407.988 476.641L408.972 476.744L409.098 475.541L408.113 475.437L408.121 475.15Z" fill="#47A2DF" fill-opacity="0.34"/>
<path d="M380.026 110.81C376.464 110.81 373.574 107.922 373.574 104.358C373.574 100.793 376.464 97.9047 380.026 97.9047C383.589 97.9047 386.479 100.793 386.479 104.358C386.479 107.922 383.589 110.81 380.026 110.81ZM390.296 106.123L389.539 105.848C389.119 105.695 388.859 105.282 388.883 104.835C388.892 104.677 388.897 104.518 388.897 104.358C388.897 104.205 388.892 104.053 388.884 103.901L390.41 103.492C390.947 103.349 391.263 102.799 391.119 102.266L390.679 100.622C390.537 100.089 389.986 99.7702 389.45 99.9141L388.671 100.124C388.241 100.238 387.793 100.052 387.558 99.6732L387.455 99.5137C387.211 99.14 387.231 98.6537 387.517 98.3113L388.037 97.692C388.393 97.2683 388.338 96.6365 387.913 96.2816L386.611 95.1885C386.187 94.832 385.553 94.8868 385.198 95.3121L384.681 95.9282C384.396 96.2675 383.924 96.3769 383.519 96.2034C383.217 96.0736 382.909 95.961 382.592 95.8656C382.168 95.7374 381.879 95.3512 381.879 94.9102V94.1033C381.879 93.5498 381.43 93.101 380.876 93.101H379.177C378.623 93.101 378.174 93.5498 378.174 94.1033V94.9071C378.174 95.3543 377.876 95.739 377.449 95.8688L377.266 95.9251C376.842 96.0642 376.379 95.9188 376.123 95.5529L375.662 94.8946C375.344 94.4427 374.72 94.3316 374.267 94.6491L372.873 95.6248C372.42 95.9422 372.311 96.5677 372.628 97.0197L373.091 97.6811C373.347 98.047 373.324 98.5333 373.049 98.8851L372.933 99.0337C372.665 99.3902 372.201 99.5387 371.784 99.3855L371.024 99.1103C370.504 98.9195 369.929 99.1885 369.74 99.7092L369.158 101.306C368.969 101.826 369.238 102.402 369.759 102.591L370.514 102.866C370.936 103.02 371.196 103.432 371.169 103.88C371.161 104.037 371.157 104.197 371.157 104.358C371.157 104.51 371.16 104.661 371.167 104.813L369.643 105.223C369.108 105.365 368.791 105.915 368.933 106.449L369.374 108.092C369.516 108.627 370.067 108.944 370.601 108.801L371.38 108.593C371.81 108.477 372.259 108.663 372.497 109.041L372.597 109.201C372.841 109.575 372.822 110.061 372.534 110.403L372.017 111.021C371.662 111.446 371.716 112.078 372.14 112.435L373.443 113.526C373.866 113.883 374.498 113.828 374.855 113.402L375.374 112.785C375.657 112.447 376.128 112.338 376.534 112.511C376.834 112.641 377.144 112.754 377.461 112.849C377.884 112.977 378.174 113.363 378.174 113.806V114.611C378.174 115.165 378.623 115.614 379.177 115.614H380.876C381.43 115.614 381.879 115.165 381.879 114.611V113.807C381.879 113.36 382.176 112.976 382.604 112.846L382.786 112.789C383.209 112.65 383.674 112.796 383.929 113.162L384.39 113.818C384.707 114.272 385.333 114.383 385.786 114.065L387.178 113.091C387.632 112.772 387.743 112.147 387.425 111.693L386.962 111.033C386.707 110.668 386.728 110.181 387.005 109.831L387.119 109.679C387.388 109.324 387.85 109.177 388.271 109.329L389.028 109.604C389.549 109.795 390.124 109.526 390.313 109.005L390.893 107.409C391.083 106.888 390.817 106.313 390.296 106.123" fill="#47A2DF" fill-opacity="0.34"/>
<path d="M254.723 504.135C251.161 504.135 248.271 501.246 248.271 497.682C248.271 494.118 251.161 491.23 254.723 491.23C258.288 491.23 261.176 494.118 261.176 497.682C261.176 501.246 258.288 504.135 254.723 504.135ZM264.993 499.449L264.237 499.174C263.816 499.019 263.556 498.608 263.58 498.159C263.589 498.003 263.594 497.841 263.594 497.682C263.594 497.529 263.589 497.377 263.581 497.227L265.108 496.817C265.644 496.673 265.96 496.124 265.818 495.59L265.377 493.948C265.234 493.413 264.684 493.096 264.151 493.239L263.37 493.447C262.939 493.563 262.49 493.377 262.255 492.999L262.152 492.838C261.908 492.464 261.929 491.978 262.215 491.637L262.734 491.017C263.09 490.594 263.036 489.96 262.61 489.605L261.308 488.512C260.884 488.157 260.251 488.212 259.896 488.638L259.378 489.254C259.094 489.593 258.621 489.701 258.216 489.527C257.915 489.399 257.607 489.286 257.289 489.19C256.865 489.063 256.576 488.675 256.576 488.234V487.427C256.576 486.875 256.127 486.425 255.574 486.425H253.874C253.32 486.425 252.872 486.875 252.872 487.427V488.233C252.872 488.678 252.573 489.064 252.146 489.193L251.965 489.25C251.541 489.388 251.077 489.243 250.82 488.878L250.359 488.22C250.043 487.767 249.417 487.657 248.964 487.975L247.571 488.949C247.117 489.266 247.008 489.892 247.325 490.345L247.788 491.005C248.045 491.372 248.021 491.857 247.746 492.209L247.63 492.358C247.363 492.716 246.898 492.863 246.481 492.711L245.721 492.434C245.202 492.245 244.626 492.512 244.437 493.033L243.855 494.631C243.666 495.152 243.935 495.727 244.456 495.917L245.211 496.192C245.633 496.343 245.893 496.758 245.868 497.203C245.859 497.363 245.854 497.521 245.854 497.682C245.854 497.834 245.857 497.987 245.865 498.139L244.34 498.547C243.805 498.689 243.488 499.239 243.632 499.774L244.071 501.416C244.215 501.951 244.764 502.268 245.299 502.126L246.077 501.916C246.509 501.801 246.956 501.988 247.194 502.367L247.294 502.525C247.54 502.9 247.521 503.386 247.233 503.729L246.714 504.345C246.359 504.77 246.414 505.402 246.837 505.758L248.14 506.851C248.564 507.208 249.195 507.152 249.552 506.728L250.071 506.11C250.354 505.772 250.825 505.661 251.233 505.837C251.532 505.966 251.843 506.079 252.159 506.173C252.581 506.301 252.872 506.687 252.872 507.13V507.935C252.872 508.49 253.32 508.939 253.874 508.939H255.574C256.127 508.939 256.576 508.49 256.576 507.935V507.133C256.576 506.686 256.873 506.299 257.302 506.17L257.483 506.113C257.907 505.974 258.371 506.12 258.626 506.487L259.087 507.144C259.405 507.599 260.03 507.708 260.484 507.391L261.877 506.415C262.33 506.098 262.44 505.472 262.124 505.019L261.66 504.357C261.405 503.993 261.427 503.505 261.702 503.155L261.818 503.005C262.085 502.648 262.548 502.501 262.968 502.653L263.725 502.93C264.246 503.119 264.821 502.85 265.011 502.329L265.591 500.733C265.782 500.214 265.514 499.638 264.993 499.449" fill="#47A2DF" fill-opacity="0.34"/>
<path d="M445.152 461.796C442.946 461.796 441.159 460.009 441.159 457.803C441.159 455.598 442.946 453.809 445.152 453.809C447.357 453.809 449.144 455.598 449.144 457.803C449.144 460.009 447.357 461.796 445.152 461.796ZM451.506 458.896L451.038 458.727C450.777 458.63 450.617 458.375 450.631 458.098L450.641 457.803L450.633 457.521L451.578 457.268C451.909 457.179 452.105 456.84 452.015 456.508L451.743 455.492C451.656 455.16 451.315 454.965 450.983 455.054L450.502 455.182C450.236 455.254 449.958 455.138 449.812 454.904L449.748 454.805C449.598 454.574 449.61 454.274 449.787 454.061L450.108 453.679C450.328 453.417 450.295 453.024 450.033 452.805L449.226 452.128C448.963 451.908 448.572 451.944 448.352 452.206L448.031 452.588C447.856 452.797 447.565 452.865 447.312 452.757C447.126 452.675 446.935 452.608 446.739 452.547C446.477 452.469 446.299 452.228 446.299 451.958V451.457C446.299 451.115 446.02 450.838 445.678 450.838H444.625C444.283 450.838 444.005 451.115 444.005 451.457V451.956C444.005 452.231 443.822 452.471 443.556 452.549L443.445 452.585C443.182 452.671 442.894 452.582 442.736 452.355L442.45 451.948C442.255 451.667 441.867 451.598 441.587 451.795L440.725 452.399C440.446 452.596 440.377 452.982 440.574 453.262L440.858 453.672C441.018 453.898 441.004 454.198 440.833 454.416L440.761 454.508C440.596 454.73 440.31 454.821 440.05 454.727L439.581 454.557C439.259 454.438 438.902 454.605 438.785 454.926L438.427 455.915C438.31 456.238 438.474 456.592 438.796 456.71L439.265 456.88C439.525 456.974 439.686 457.23 439.672 457.507L439.662 457.803L439.67 458.084L438.726 458.339C438.394 458.427 438.197 458.768 438.288 459.098L438.56 460.114C438.647 460.444 438.988 460.641 439.318 460.553L439.801 460.424C440.069 460.353 440.344 460.467 440.491 460.702L440.553 460.8C440.705 461.032 440.693 461.334 440.516 461.545L440.195 461.926C439.975 462.189 440.009 462.58 440.27 462.8L441.077 463.477C441.338 463.696 441.731 463.664 441.951 463.401L442.272 463.019C442.447 462.81 442.74 462.741 442.991 462.849C443.177 462.929 443.368 462.999 443.564 463.058C443.826 463.137 444.005 463.376 444.005 463.649V464.148C444.005 464.491 444.283 464.769 444.625 464.769H445.678C446.02 464.769 446.299 464.491 446.299 464.148V463.651C446.299 463.374 446.481 463.137 446.747 463.055L446.858 463.021C447.121 462.935 447.409 463.026 447.567 463.251L447.851 463.659C448.048 463.94 448.435 464.008 448.716 463.812L449.579 463.207C449.857 463.011 449.926 462.624 449.729 462.344L449.445 461.934C449.285 461.709 449.299 461.407 449.47 461.19L449.542 461.096C449.707 460.877 449.994 460.785 450.253 460.88L450.722 461.051C451.044 461.168 451.401 461.002 451.518 460.68L451.876 459.692C451.995 459.37 451.828 459.013 451.506 458.896" fill="#47A2DF" fill-opacity="0.34"/>
<path d="M500.005 62.1868C497.801 62.1868 496.012 60.3995 496.012 58.1931C496.012 55.9883 497.801 54.201 500.005 54.201C502.212 54.201 503.998 55.9883 503.998 58.1931C503.998 60.3995 502.212 62.1868 500.005 62.1868ZM506.36 59.2877L505.891 59.1158C505.632 59.0219 505.471 58.7671 505.488 58.4903L505.494 58.1931L505.488 57.9117L506.432 57.6584C506.762 57.5708 506.959 57.2299 506.87 56.8984L506.596 55.882C506.509 55.5521 506.169 55.3566 505.838 55.4442L505.356 55.5739C505.091 55.6443 504.812 55.5302 504.665 55.2956L504.603 55.1971C504.451 54.9657 504.464 54.6639 504.642 54.4513L504.964 54.0697C505.183 53.807 505.148 53.416 504.886 53.1956L504.08 52.5201C503.818 52.2996 503.427 52.334 503.206 52.5951L502.884 52.9783C502.709 53.1878 502.418 53.255 502.166 53.1487C501.98 53.0674 501.788 52.9986 501.593 52.9392C501.331 52.861 501.152 52.6202 501.152 52.3465V51.8492C501.152 51.5052 500.873 51.2284 500.532 51.2284H499.48C499.138 51.2284 498.859 51.5052 498.859 51.8492V52.3465C498.859 52.6233 498.675 52.861 498.41 52.9407L498.298 52.9767C498.035 53.0611 497.747 52.972 497.591 52.7452L497.305 52.3387C497.108 52.0572 496.722 51.99 496.44 52.1854L495.58 52.7906C495.299 52.9861 495.23 53.3739 495.427 53.6538L495.715 54.0619C495.871 54.2886 495.857 54.5889 495.686 54.8062L495.616 54.9001C495.45 55.1205 495.163 55.2112 494.905 55.1173L494.434 54.9469C494.112 54.8297 493.757 54.9954 493.64 55.3175L493.28 56.3058C493.163 56.6279 493.328 56.9844 493.651 57.1001L494.118 57.2706C494.379 57.3659 494.54 57.6209 494.525 57.8976L494.517 58.1931L494.523 58.4762L493.579 58.7295C493.249 58.8171 493.052 59.1579 493.141 59.4894L493.413 60.5058C493.5 60.8358 493.841 61.0313 494.173 60.9437L494.656 60.8139C494.922 60.7435 495.199 60.8593 495.346 61.0938L495.408 61.1923C495.56 61.4222 495.547 61.724 495.369 61.9351L495.048 62.3182C494.828 62.5809 494.862 62.9718 495.125 63.1923L495.93 63.8678C496.193 64.0883 496.584 64.0539 496.805 63.7912L497.125 63.4097C497.302 63.2001 497.593 63.1328 497.844 63.2392C498.031 63.3205 498.221 63.3893 498.418 63.4488C498.679 63.5285 498.859 63.7678 498.859 64.0414V64.5402C498.859 64.8827 499.138 65.1594 499.48 65.1594H500.532C500.873 65.1594 501.152 64.8827 501.152 64.5402V64.0414C501.152 63.7662 501.336 63.5269 501.6 63.4471L501.713 63.4128C501.976 63.3268 502.263 63.4159 502.421 63.6426L502.706 64.0492C502.903 64.3291 503.289 64.3979 503.571 64.2009L504.432 63.5989C504.712 63.4018 504.779 63.0156 504.584 62.7341L504.298 62.326C504.138 62.0993 504.154 61.799 504.323 61.5801L504.395 61.4879C504.562 61.2674 504.847 61.1767 505.106 61.2705L505.577 61.4409C505.897 61.5582 506.254 61.3925 506.371 61.0704L506.731 60.0821C506.848 59.76 506.682 59.4034 506.36 59.2877" fill="#47A2DF" fill-opacity="0.34"/>
<path d="M460.22 191.584L409.896 278.746L411.25 279.528L461.574 192.366" fill="#47A2DF" fill-opacity="0.25"/>
<path d="M659.031 364.901C660.821 363.888 661.453 361.616 660.44 359.826C659.429 358.034 657.157 357.403 655.365 358.415C653.575 359.428 652.943 361.7 653.955 363.489C654.967 365.281 657.239 365.913 659.031 364.901Z" fill="#47A2DF" fill-opacity="0.25"/>
<path d="M679.482 321.412L629.158 408.574L630.512 409.356L680.837 322.194" fill="#47A2DF" fill-opacity="0.25"/>
<path d="M619.503 493.337L698.097 347.838L672.27 281.54L782.162 92.1399L776.751 89L665.349 281.005L691.219 347.411L614 490.364L619.503 493.337Z" fill="#47A2DF" fill-opacity="0.25"/>
<path d="M688.136 377.825H685.008C685.007 379.112 684.496 380.247 683.654 381.093C682.808 381.935 681.673 382.444 680.386 382.447C679.101 382.446 677.966 381.935 677.118 381.093C676.278 380.247 675.767 379.112 675.766 377.825C675.767 376.54 676.278 375.405 677.12 374.559C677.966 373.717 679.101 373.206 680.386 373.204C681.673 373.206 682.808 373.717 683.654 374.559C684.496 375.405 685.007 376.54 685.008 377.825H688.136H691.263C691.262 371.817 686.394 366.953 680.386 366.95C674.378 366.953 669.512 371.819 669.511 377.825C669.512 383.834 674.38 388.699 680.386 388.701C686.394 388.701 691.262 383.834 691.263 377.825H688.136Z" fill="#47A2DF" fill-opacity="0.25"/>
<path d="M367.661 319L289.064 464.497L314.892 530.795L205 720.195L210.41 723.333L321.813 531.33L295.943 464.924L373.163 321.973L367.661 319Z" fill="#47A2DF" fill-opacity="0.25"/>
<path d="M408.002 219.388H411.13C411.131 218.103 411.641 216.968 412.482 216.122C413.328 215.281 414.465 214.769 415.751 214.768C417.036 214.769 418.171 215.281 419.017 216.122C419.858 216.968 420.37 218.103 420.371 219.388C420.37 220.675 419.858 221.811 419.017 222.656C418.171 223.498 417.036 224.009 415.751 224.011C414.465 224.009 413.328 223.498 412.482 222.656C411.641 221.811 411.131 220.675 411.13 219.388H408.002H404.875C404.877 225.396 409.743 230.262 415.751 230.265C421.758 230.262 426.623 225.396 426.626 219.388C426.623 213.381 421.758 208.516 415.751 208.513C409.743 208.516 404.877 213.381 404.875 219.388H408.002Z" fill="#47A2DF" fill-opacity="0.25"/>
<path d="M3.12739 763.875H6.25477C6.25634 762.59 6.76609 761.455 7.60735 760.609C8.45331 759.768 9.59018 759.256 10.8755 759.255C12.1609 759.256 13.2961 759.768 14.142 760.609C14.9833 761.455 15.4947 762.59 15.4962 763.875C15.4947 765.162 14.9833 766.298 14.142 767.144C13.2961 767.985 12.1609 768.496 10.8755 768.498C9.59018 768.496 8.45331 767.985 7.60735 767.144C6.76609 766.298 6.25634 765.162 6.25477 763.875H3.12739H0C0.00156369 769.883 4.86782 774.749 10.8755 774.752C16.8832 774.749 21.7479 769.883 21.751 763.875C21.7479 757.868 16.8832 753.003 10.8755 753C4.86782 753.003 0.00156369 757.868 0 763.875H3.12739Z" fill="#47A2DF" fill-opacity="0.25"/>
<path d="M449.723 174.67C442.869 174.67 437.311 169.111 437.311 162.255C437.311 155.4 442.869 149.841 449.723 149.841C456.58 149.841 462.139 155.4 462.139 162.255C462.139 169.111 456.58 174.67 449.723 174.67ZM464.402 162.255C464.402 162.09 464.394 161.925 464.389 161.761L466.084 161.583L465.867 159.511L464.173 159.689C464.115 159.363 464.048 159.04 463.972 158.721L465.587 158.196L464.944 156.215L463.327 156.74C463.201 156.434 463.069 156.132 462.925 155.836L464.397 154.987L463.354 153.183L461.884 154.033C461.698 153.76 461.501 153.496 461.299 153.236L462.564 152.096L461.171 150.548L459.904 151.688C459.667 151.46 459.423 151.238 459.169 151.025L460.172 149.649L458.486 148.423L457.485 149.801C457.205 149.625 456.922 149.46 456.63 149.303L457.323 147.752L455.42 146.905L454.727 148.454C454.419 148.343 454.105 148.245 453.787 148.152L454.141 146.489L452.103 146.056L451.748 147.721C451.424 147.675 451.096 147.643 450.766 147.619V145.915H448.682V147.619C448.352 147.643 448.023 147.675 447.7 147.721L447.346 146.056L445.307 146.489L445.662 148.152C445.345 148.245 445.027 148.343 444.719 148.454L444.03 146.905L442.127 147.752L442.818 149.303C442.527 149.46 442.241 149.625 441.963 149.801L440.963 148.423L439.278 149.649L440.277 151.025C440.025 151.238 439.781 151.46 439.545 151.688L438.278 150.548L436.884 152.096L438.15 153.236C437.947 153.496 437.75 153.76 437.565 154.033L436.092 153.183L435.051 154.987L436.522 155.836C436.379 156.132 436.247 156.434 436.122 156.74L434.505 156.215L433.863 158.196L435.478 158.721C435.4 159.04 435.332 159.363 435.275 159.689L433.583 159.511L433.364 161.583L435.059 161.761C435.054 161.925 435.048 162.09 435.048 162.255C435.048 162.421 435.054 162.585 435.059 162.749L433.364 162.928L433.583 165L435.275 164.821C435.332 165.148 435.4 165.47 435.478 165.789L433.863 166.315L434.505 168.296L436.122 167.77C436.247 168.077 436.379 168.379 436.524 168.674L435.051 169.523L436.092 171.328L437.565 170.477C437.75 170.751 437.947 171.015 438.15 171.275L436.884 172.415L438.278 173.963L439.545 172.823C439.781 173.051 440.025 173.273 440.277 173.486L439.278 174.863L440.963 176.088L441.963 174.71C442.241 174.885 442.527 175.051 442.818 175.206L442.127 176.759L444.03 177.606L444.719 176.057C445.029 176.169 445.345 176.268 445.662 176.358L445.307 178.022L447.346 178.455L447.7 176.79C448.023 176.835 448.352 176.868 448.682 176.892V178.596H450.766V176.892C451.096 176.868 451.424 176.835 451.748 176.79L452.103 178.455L454.141 178.022L453.787 176.358C454.105 176.268 454.419 176.169 454.727 176.057L455.42 177.606L457.323 176.759L456.63 175.207C456.922 175.051 457.205 174.885 457.485 174.71L458.486 176.088L460.172 174.863L459.169 173.486C459.423 173.273 459.667 173.051 459.904 172.823L461.171 173.963L462.564 172.415L461.299 171.275C461.501 171.015 461.698 170.751 461.884 170.477L463.354 171.328L464.397 169.523L462.925 168.674C463.069 168.379 463.201 168.077 463.327 167.77L464.944 168.296L465.587 166.315L463.972 165.789C464.048 165.47 464.115 165.148 464.173 164.821L465.867 165L466.084 162.928L464.389 162.749C464.394 162.585 464.402 162.421 464.402 162.255Z" fill="#47A2DF" fill-opacity="0.25"/>
<path d="M594.6 448.357C590.621 448.357 587.393 445.13 587.393 441.15C587.393 437.171 590.621 433.943 594.6 433.943C598.582 433.943 601.807 437.171 601.807 441.15C601.807 445.13 598.582 448.357 594.6 448.357ZM603.121 441.15L603.113 440.864L604.098 440.761L603.972 439.557L602.988 439.66C602.954 439.471 602.916 439.283 602.871 439.099L603.809 438.794L603.435 437.643L602.497 437.95C602.425 437.77 602.349 437.595 602.264 437.424L603.118 436.93L602.513 435.882L601.659 436.376C601.551 436.218 601.437 436.065 601.32 435.914L602.054 435.252L601.246 434.353L600.51 435.016C600.372 434.883 600.23 434.755 600.086 434.631L600.666 433.831L599.687 433.121L599.107 433.92C598.944 433.818 598.78 433.723 598.61 433.632L599.012 432.73L597.906 432.237L597.506 433.138C597.326 433.074 597.145 433.016 596.958 432.963L597.163 431.997L595.981 431.746L595.776 432.713C595.589 432.686 595.396 432.667 595.204 432.653V431.663H593.995V432.653C593.804 432.667 593.614 432.686 593.426 432.713L593.22 431.746L592.036 431.997L592.242 432.963C592.058 433.016 591.875 433.074 591.695 433.138L591.293 432.237L590.189 432.73L590.591 433.632C590.422 433.723 590.256 433.818 590.095 433.92L589.514 433.121L588.536 433.831L589.117 434.631C588.97 434.755 588.827 434.883 588.69 435.016L587.956 434.353L587.146 435.252L587.881 435.914C587.764 436.065 587.648 436.218 587.542 436.376L586.687 435.882L586.081 436.93L586.937 437.424C586.854 437.595 586.777 437.77 586.704 437.95L585.766 437.643L585.392 438.794L586.33 439.099C586.285 439.283 586.246 439.471 586.211 439.66L585.231 439.557L585.103 440.761L586.086 440.864L586.08 441.15L586.086 441.437L585.103 441.541L585.231 442.744L586.211 442.641C586.246 442.83 586.285 443.017 586.33 443.202L585.392 443.505L585.766 444.658L586.704 444.351C586.777 444.53 586.854 444.705 586.937 444.877L586.081 445.369L586.687 446.417L587.542 445.923C587.648 446.082 587.764 446.236 587.881 446.386L587.146 447.049L587.956 447.946L588.69 447.285C588.827 447.418 588.97 447.546 589.117 447.669L588.536 448.468L589.514 449.18L590.095 448.381C590.256 448.483 590.422 448.579 590.591 448.669L590.189 449.569L591.293 450.062L591.695 449.163C591.875 449.228 592.058 449.285 592.242 449.338L592.036 450.303L593.22 450.554L593.426 449.588C593.614 449.615 593.804 449.633 593.995 449.647V450.636H595.204V449.647C595.396 449.633 595.589 449.615 595.776 449.588L595.981 450.554L597.163 450.303L596.958 449.338C597.145 449.285 597.326 449.228 597.506 449.163L597.906 450.062L599.012 449.569L598.61 448.669C598.78 448.579 598.944 448.483 599.107 448.381L599.687 449.18L600.666 448.468L600.086 447.669C600.23 447.546 600.372 447.418 600.51 447.285L601.246 447.946L602.054 447.049L601.32 446.386C601.437 446.236 601.551 446.082 601.659 445.923L602.513 446.417L603.118 445.369L602.264 444.877C602.349 444.705 602.425 444.53 602.497 444.351L603.435 444.658L603.809 443.505L602.871 443.202C602.916 443.017 602.954 442.83 602.988 442.641L603.972 442.744L604.098 441.541L603.113 441.437L603.121 441.15Z" fill="#47A2DF" fill-opacity="0.25"/>
<path d="M575.026 76.8099C571.464 76.8099 568.574 73.9217 568.574 70.3581C568.574 66.7928 571.464 63.9047 575.026 63.9047C578.589 63.9047 581.479 66.7928 581.479 70.3581C581.479 73.9217 578.589 76.8099 575.026 76.8099ZM585.296 72.1235L584.539 71.8483C584.119 71.695 583.859 71.2822 583.883 70.835C583.892 70.6771 583.897 70.5176 583.897 70.3581C583.897 70.2048 583.892 70.0532 583.884 69.9015L585.41 69.4918C585.947 69.3495 586.263 68.799 586.119 68.2658L585.679 66.6224C585.537 66.0892 584.986 65.7702 584.45 65.9141L583.671 66.1236C583.241 66.2377 582.793 66.0517 582.558 65.6732L582.455 65.5137C582.211 65.14 582.231 64.6537 582.517 64.3113L583.037 63.692C583.393 63.2683 583.338 62.6365 582.913 62.2816L581.611 61.1885C581.187 60.832 580.553 60.8868 580.198 61.3121L579.681 61.9282C579.396 62.2675 578.924 62.3769 578.519 62.2034C578.217 62.0736 577.909 61.961 577.592 61.8656C577.168 61.7374 576.879 61.3512 576.879 60.9102V60.1033C576.879 59.5498 576.43 59.101 575.876 59.101H574.177C573.623 59.101 573.174 59.5498 573.174 60.1033V60.9071C573.174 61.3543 572.876 61.739 572.449 61.8688L572.266 61.9251C571.842 62.0642 571.379 61.9188 571.123 61.5529L570.662 60.8946C570.344 60.4427 569.72 60.3316 569.267 60.6491L567.873 61.6248C567.42 61.9422 567.311 62.5677 567.628 63.0197L568.091 63.6811C568.347 64.047 568.324 64.5333 568.049 64.8851L567.933 65.0337C567.665 65.3902 567.201 65.5387 566.784 65.3855L566.024 65.1103C565.504 64.9195 564.929 65.1885 564.74 65.7092L564.158 67.3057C563.969 67.8264 564.238 68.4019 564.759 68.5911L565.514 68.8663C565.936 69.0195 566.196 69.4323 566.169 69.8796C566.161 70.0375 566.157 70.197 566.157 70.3581C566.157 70.5097 566.16 70.6614 566.167 70.8131L564.643 71.2228C564.108 71.3651 563.791 71.9155 563.933 72.4487L564.374 74.0921C564.516 74.6269 565.067 74.9444 565.601 74.8005L566.38 74.5926C566.81 74.4768 567.259 74.6629 567.497 75.0413L567.597 75.2008C567.841 75.5745 567.822 76.0608 567.534 76.4033L567.017 77.0209C566.662 77.4463 566.716 78.078 567.14 78.4345L568.443 79.526C568.866 79.8825 569.498 79.8278 569.855 79.4025L570.374 78.7848C570.657 78.447 571.128 78.3376 571.534 78.5111C571.834 78.6409 572.144 78.7535 572.461 78.8489C572.884 78.9771 573.174 79.3634 573.174 79.8059V80.6112C573.174 81.1648 573.623 81.6135 574.177 81.6135H575.876C576.43 81.6135 576.879 81.1648 576.879 80.6112V79.8075C576.879 79.3602 577.176 78.9756 577.604 78.8458L577.786 78.7895C578.209 78.6503 578.674 78.7958 578.929 79.1617L579.39 79.8184C579.707 80.2719 580.333 80.3829 580.786 80.0655L582.178 79.0913C582.632 78.7723 582.743 78.1468 582.425 77.6933L581.962 77.0335C581.707 76.6676 581.728 76.1813 582.005 75.831L582.119 75.6793C582.388 75.3244 582.85 75.1774 583.271 75.329L584.028 75.6043C584.549 75.795 585.124 75.5261 585.313 75.0054L585.893 73.4088C586.083 72.8881 585.817 72.3127 585.296 72.1235Z" fill="#47A2DF" fill-opacity="0.25"/>
<path d="M449.723 470.135C446.161 470.135 443.271 467.246 443.271 463.682C443.271 460.118 446.161 457.23 449.723 457.23C453.288 457.23 456.176 460.118 456.176 463.682C456.176 467.246 453.288 470.135 449.723 470.135ZM459.993 465.449L459.237 465.174C458.816 465.019 458.556 464.608 458.58 464.159C458.589 464.002 458.594 463.841 458.594 463.682C458.594 463.529 458.589 463.377 458.581 463.227L460.108 462.817C460.644 462.673 460.96 462.124 460.818 461.59L460.377 459.948C460.234 459.413 459.684 459.096 459.151 459.239L458.37 459.447C457.939 459.563 457.49 459.377 457.255 458.999L457.152 458.838C456.908 458.464 456.929 457.978 457.215 457.637L457.734 457.017C458.09 456.594 458.036 455.96 457.61 455.605L456.308 454.512C455.884 454.157 455.251 454.212 454.896 454.638L454.378 455.254C454.094 455.593 453.621 455.701 453.216 455.527C452.915 455.399 452.607 455.286 452.289 455.19C451.865 455.063 451.576 454.675 451.576 454.234V453.427C451.576 452.875 451.127 452.425 450.574 452.425H448.874C448.32 452.425 447.872 452.875 447.872 453.427V454.233C447.872 454.678 447.573 455.064 447.146 455.193L446.965 455.25C446.541 455.388 446.077 455.243 445.82 454.878L445.359 454.22C445.043 453.767 444.417 453.657 443.964 453.975L442.571 454.949C442.117 455.266 442.008 455.892 442.325 456.345L442.788 457.005C443.045 457.372 443.021 457.857 442.746 458.209L442.63 458.358C442.363 458.716 441.898 458.863 441.481 458.711L440.721 458.434C440.202 458.245 439.626 458.512 439.437 459.033L438.855 460.631C438.666 461.152 438.935 461.727 439.456 461.917L440.211 462.192C440.633 462.343 440.893 462.758 440.868 463.203C440.859 463.363 440.854 463.521 440.854 463.682C440.854 463.834 440.857 463.987 440.865 464.139L439.34 464.547C438.805 464.689 438.488 465.239 438.632 465.774L439.071 467.416C439.215 467.951 439.764 468.268 440.299 468.126L441.077 467.916C441.509 467.801 441.956 467.988 442.194 468.367L442.294 468.525C442.54 468.9 442.521 469.386 442.233 469.729L441.714 470.345C441.359 470.77 441.414 471.402 441.837 471.758L443.14 472.851C443.564 473.208 444.195 473.152 444.552 472.728L445.071 472.11C445.354 471.772 445.825 471.661 446.233 471.837C446.532 471.966 446.843 472.079 447.159 472.173C447.581 472.301 447.872 472.687 447.872 473.13V473.935C447.872 474.49 448.32 474.939 448.874 474.939H450.574C451.127 474.939 451.576 474.49 451.576 473.935V473.133C451.576 472.686 451.873 472.299 452.302 472.17L452.483 472.113C452.907 471.974 453.371 472.12 453.626 472.487L454.087 473.144C454.405 473.599 455.03 473.708 455.484 473.391L456.877 472.415C457.33 472.098 457.44 471.472 457.124 471.019L456.66 470.357C456.405 469.993 456.427 469.505 456.702 469.155L456.818 469.005C457.085 468.648 457.548 468.501 457.968 468.653L458.725 468.93C459.246 469.119 459.821 468.85 460.011 468.329L460.591 466.733C460.782 466.214 460.514 465.638 459.993 465.449Z" fill="#47A2DF" fill-opacity="0.25"/>
<path d="M640.152 427.796C637.946 427.796 636.159 426.009 636.159 423.803C636.159 421.598 637.946 419.809 640.152 419.809C642.357 419.809 644.144 421.598 644.144 423.803C644.144 426.009 642.357 427.796 640.152 427.796ZM646.506 424.896L646.038 424.727C645.777 424.63 645.617 424.375 645.631 424.098L645.641 423.803L645.633 423.521L646.578 423.268C646.909 423.179 647.105 422.84 647.015 422.508L646.743 421.492C646.656 421.16 646.315 420.965 645.983 421.054L645.502 421.182C645.236 421.254 644.958 421.138 644.812 420.904L644.748 420.805C644.598 420.574 644.61 420.274 644.787 420.061L645.108 419.679C645.328 419.417 645.295 419.024 645.033 418.805L644.226 418.128C643.963 417.908 643.572 417.944 643.352 418.206L643.031 418.588C642.856 418.797 642.565 418.865 642.312 418.757C642.126 418.675 641.935 418.608 641.739 418.547C641.477 418.469 641.299 418.228 641.299 417.958V417.457C641.299 417.115 641.02 416.838 640.678 416.838H639.625C639.283 416.838 639.005 417.115 639.005 417.457V417.956C639.005 418.231 638.822 418.471 638.556 418.549L638.445 418.585C638.182 418.671 637.894 418.582 637.736 418.355L637.45 417.948C637.255 417.667 636.867 417.598 636.587 417.795L635.725 418.399C635.446 418.596 635.377 418.982 635.574 419.262L635.858 419.672C636.018 419.898 636.004 420.198 635.833 420.416L635.761 420.508C635.596 420.73 635.31 420.821 635.05 420.727L634.581 420.557C634.259 420.438 633.902 420.605 633.785 420.926L633.427 421.915C633.31 422.238 633.474 422.592 633.796 422.71L634.265 422.88C634.525 422.974 634.686 423.23 634.672 423.507L634.662 423.803L634.67 424.084L633.726 424.339C633.394 424.427 633.197 424.768 633.288 425.098L633.56 426.114C633.647 426.444 633.988 426.641 634.318 426.553L634.801 426.424C635.069 426.353 635.344 426.467 635.491 426.702L635.553 426.8C635.705 427.032 635.693 427.334 635.516 427.545L635.195 427.926C634.975 428.189 635.009 428.58 635.27 428.8L636.077 429.477C636.338 429.696 636.731 429.664 636.951 429.401L637.272 429.019C637.447 428.81 637.74 428.741 637.991 428.849C638.177 428.929 638.368 428.999 638.564 429.058C638.826 429.137 639.005 429.376 639.005 429.649V430.148C639.005 430.491 639.283 430.769 639.625 430.769H640.678C641.02 430.769 641.299 430.491 641.299 430.148V429.651C641.299 429.374 641.481 429.137 641.747 429.055L641.858 429.021C642.121 428.935 642.409 429.026 642.567 429.251L642.851 429.659C643.048 429.94 643.435 430.008 643.716 429.812L644.579 429.207C644.857 429.011 644.926 428.624 644.729 428.344L644.445 427.934C644.285 427.709 644.299 427.407 644.47 427.19L644.542 427.096C644.707 426.877 644.994 426.785 645.253 426.88L645.722 427.051C646.044 427.168 646.401 427.002 646.518 426.68L646.876 425.692C646.995 425.37 646.828 425.013 646.506 424.896Z" fill="#47A2DF" fill-opacity="0.25"/>
<path d="M695.005 28.1868C692.801 28.1868 691.012 26.3995 691.012 24.1931C691.012 21.9883 692.801 20.201 695.005 20.201C697.212 20.201 698.998 21.9883 698.998 24.1931C698.998 26.3995 697.212 28.1868 695.005 28.1868ZM701.36 25.2877L700.891 25.1158C700.632 25.0219 700.471 24.7671 700.488 24.4903L700.494 24.1931L700.488 23.9117L701.432 23.6584C701.762 23.5708 701.959 23.2299 701.87 22.8984L701.596 21.882C701.509 21.5521 701.169 21.3566 700.838 21.4442L700.356 21.5739C700.091 21.6443 699.812 21.5302 699.665 21.2956L699.603 21.1971C699.451 20.9657 699.464 20.6639 699.642 20.4513L699.964 20.0697C700.183 19.807 700.148 19.416 699.886 19.1956L699.08 18.5201C698.818 18.2996 698.427 18.334 698.206 18.5951L697.884 18.9783C697.709 19.1878 697.418 19.255 697.166 19.1487C696.98 19.0674 696.788 18.9986 696.593 18.9392C696.331 18.861 696.152 18.6202 696.152 18.3465V17.8492C696.152 17.5052 695.873 17.2284 695.532 17.2284H694.48C694.138 17.2284 693.859 17.5052 693.859 17.8492V18.3465C693.859 18.6233 693.675 18.861 693.41 18.9407L693.298 18.9767C693.035 19.0611 692.747 18.972 692.591 18.7452L692.305 18.3387C692.108 18.0572 691.722 17.99 691.44 18.1854L690.58 18.7906C690.299 18.9861 690.23 19.3739 690.427 19.6538L690.715 20.0619C690.871 20.2886 690.857 20.5889 690.686 20.8062L690.616 20.9001C690.45 21.1205 690.163 21.2112 689.905 21.1173L689.434 20.9469C689.112 20.8297 688.757 20.9954 688.64 21.3175L688.28 22.3058C688.163 22.6279 688.328 22.9844 688.651 23.1001L689.118 23.2706C689.379 23.3659 689.54 23.6209 689.525 23.8976L689.517 24.1931L689.523 24.4762L688.579 24.7295C688.249 24.8171 688.052 25.1579 688.141 25.4894L688.413 26.5058C688.5 26.8358 688.841 27.0313 689.173 26.9437L689.656 26.8139C689.922 26.7435 690.199 26.8593 690.346 27.0938L690.408 27.1923C690.56 27.4222 690.547 27.724 690.369 27.9351L690.048 28.3182C689.828 28.5809 689.862 28.9718 690.125 29.1923L690.93 29.8678C691.193 30.0883 691.584 30.0539 691.805 29.7912L692.125 29.4097C692.302 29.2001 692.593 29.1328 692.844 29.2392C693.031 29.3205 693.221 29.3893 693.418 29.4488C693.679 29.5285 693.859 29.7678 693.859 30.0414V30.5402C693.859 30.8827 694.138 31.1594 694.48 31.1594H695.532C695.873 31.1594 696.152 30.8827 696.152 30.5402V30.0414C696.152 29.7662 696.336 29.5269 696.6 29.4471L696.713 29.4128C696.976 29.3268 697.263 29.4159 697.421 29.6426L697.706 30.0492C697.903 30.3291 698.289 30.3979 698.571 30.2009L699.432 29.5989C699.712 29.4018 699.779 29.0156 699.584 28.7341L699.298 28.326C699.138 28.0993 699.154 27.799 699.323 27.5801L699.395 27.4879C699.562 27.2674 699.847 27.1767 700.106 27.2705L700.577 27.4409C700.897 27.5582 701.254 27.3925 701.371 27.0704L701.731 26.0821C701.848 25.76 701.682 25.4034 701.36 25.2877Z" fill="#47A2DF" fill-opacity="0.25"/>
</svg>
