<svg width="381" height="468" viewBox="0 0 381 468" fill="none" xmlns="http://www.w3.org/2000/svg">
<path d="M405.739 285.845C406.594 286.544 406.719 287.804 406.019 288.659L399.121 297.084C398.421 297.939 397.161 298.064 396.306 297.364L370.602 276.317C369.747 275.617 369.622 274.357 370.322 273.502L377.22 265.078C377.92 264.223 379.18 264.097 380.034 264.797L405.739 285.845Z" fill="#47A2DF" fill-opacity="0.2"/>
<path d="M185.584 405.113C184.884 405.968 183.624 406.093 182.769 405.393L174.344 398.495C173.49 397.795 173.364 396.535 174.064 395.68L195.111 369.976C195.811 369.121 197.071 368.996 197.926 369.696L206.351 376.594C207.205 377.294 207.331 378.554 206.631 379.408L185.584 405.113Z" fill="#47A2DF" fill-opacity="0.2"/>
<path d="M371.405 178.173C370.706 179.028 369.445 179.153 368.591 178.454L360.166 171.555C359.311 170.855 359.186 169.595 359.886 168.741L380.933 143.036C381.633 142.181 382.893 142.056 383.747 142.756L392.172 149.654C393.027 150.354 393.152 151.614 392.453 152.469L371.405 178.173Z" fill="#47A2DF" fill-opacity="0.2"/>
<path d="M176.287 96.041C177.141 96.7408 177.267 98.0009 176.567 98.8555L169.669 107.28C168.969 108.135 167.709 108.261 166.854 107.561L141.149 86.5135C140.295 85.8137 140.169 84.5536 140.869 83.699L147.768 75.2741C148.467 74.4195 149.727 74.2939 150.582 74.9937L176.287 96.041Z" fill="#47A2DF" fill-opacity="0.2"/>
<path d="M330.278 378.003C331.133 378.703 331.259 379.963 330.559 380.817L321.774 391.546C321.074 392.401 319.814 392.526 318.959 391.827L293.255 370.779C292.4 370.079 292.275 368.819 292.974 367.965L301.759 357.236C302.459 356.381 303.719 356.256 304.574 356.956L330.278 378.003Z" fill="#47A2DF" fill-opacity="0.2"/>
<path d="M93.4251 329.652C92.7254 330.507 91.4653 330.633 90.6106 329.933L79.8818 321.148C79.0271 320.448 78.9016 319.188 79.6014 318.333L100.649 292.629C101.348 291.774 102.609 291.649 103.463 292.348L114.192 301.133C115.047 301.833 115.172 303.093 114.472 303.948L93.4251 329.652Z" fill="#47A2DF" fill-opacity="0.2"/>
<path d="M279.247 102.713C278.547 103.567 277.287 103.693 276.432 102.993L265.704 94.208C264.849 93.5083 264.723 92.2482 265.423 91.3935L286.47 65.6889C287.17 64.8343 288.43 64.7088 289.285 65.4086L300.014 74.1935C300.868 74.8933 300.994 76.1534 300.294 77.008L279.247 102.713Z" fill="#47A2DF" fill-opacity="0.2"/>
<path d="M99.8826 189.351C100.737 190.051 100.863 191.311 100.163 192.166L91.3781 202.895C90.6783 203.749 89.4182 203.875 88.5636 203.175L62.859 182.128C62.0043 181.428 61.8788 180.168 62.5786 179.313L71.3636 168.584C72.0633 167.73 73.3234 167.604 74.178 168.304L99.8826 189.351Z" fill="#47A2DF" fill-opacity="0.2"/>
<path d="M367.066 333.076C367.92 333.775 368.046 335.036 367.346 335.89L358.561 346.619C357.861 347.474 356.601 347.599 355.746 346.899L330.042 325.852C329.187 325.152 329.062 323.892 329.761 323.038L338.546 312.309C339.246 311.454 340.506 311.329 341.361 312.028L367.066 333.076Z" fill="#47A2DF" fill-opacity="0.2"/>
<path d="M138.352 366.439C137.653 367.294 136.393 367.42 135.538 366.72L124.809 357.935C123.954 357.235 123.829 355.975 124.529 355.12L145.576 329.416C146.276 328.561 147.536 328.436 148.39 329.135L159.119 337.92C159.974 338.62 160.099 339.88 159.4 340.735L138.352 366.439Z" fill="#47A2DF" fill-opacity="0.2"/>
<path d="M324.174 139.5C323.474 140.354 322.214 140.48 321.36 139.78L310.631 130.995C309.776 130.295 309.651 129.035 310.35 128.181L331.398 102.476C332.098 101.621 333.358 101.496 334.212 102.196L344.941 110.981C345.796 111.68 345.921 112.94 345.221 113.795L324.174 139.5Z" fill="#47A2DF" fill-opacity="0.2"/>
<path d="M137.613 143.272C138.468 143.972 138.593 145.232 137.893 146.087L130.052 155.664C129.352 156.518 128.092 156.644 127.237 155.944L101.533 134.897C100.678 134.197 100.552 132.937 101.252 132.082L109.094 122.505C109.794 121.651 111.054 121.525 111.908 122.225L137.613 143.272Z" fill="#47A2DF" fill-opacity="0.2"/>
<path d="M237.942 397.292C246.488 404.29 259.089 403.034 266.087 394.488L397.918 233.486C404.916 224.94 403.66 212.339 395.114 205.341L230.656 70.6805C222.11 63.6827 209.509 64.938 202.511 73.4842L70.6805 234.486C63.6827 243.032 64.9379 255.633 73.4842 262.631L237.942 397.292Z" stroke="#47A2DF" stroke-opacity="0.2" stroke-width="8"/>
</svg>
