<svg width="24" height="24" viewBox="0 0 24 24" fill="none" xmlns="http://www.w3.org/2000/svg">
<path d="M20.8506 12.0002V6.50993C20.8506 4.48846 19.2119 2.84974 17.1904 2.84974H6.50986C4.48839 2.84974 2.84967 4.48846 2.84967 6.50993V17.4905C2.84967 19.512 4.48839 21.1507 6.50986 21.1507H11.8502" stroke="white" stroke-width="1.69904" stroke-linecap="round"/>
<path d="M7.00275 12H10.0019" stroke="white" stroke-width="1.69904" stroke-linecap="round"/>
<path d="M7.00275 8.00222H12.9994" stroke="white" stroke-width="1.69904" stroke-linecap="round"/>
<path d="M20.7901 15.8827L18.837 13.8971C18.6389 13.6957 18.3177 13.6957 18.1197 13.8971L14.3633 17.716C14.2546 17.8266 14.201 17.9813 14.2178 18.1368L14.4326 20.1323C14.4455 20.2525 14.5389 20.3474 14.6571 20.3605L16.6199 20.5789C16.7728 20.5959 16.925 20.5415 17.0337 20.431L20.7901 16.612C20.9882 16.4106 20.9882 16.0841 20.7901 15.8827Z" stroke="white" stroke-width="1.69904" stroke-linecap="round"/>
</svg>
