<svg width="1427" height="4329" viewBox="0 0 1427 4329" fill="none" xmlns="http://www.w3.org/2000/svg">
<path d="M93.3743 4327.5C96.0688 4325.97 97.0203 4322.55 95.4964 4319.85C93.9701 4317.15 90.5478 4316.2 87.851 4317.73C85.1541 4319.25 84.2026 4322.67 85.7265 4325.37C87.2527 4328.07 90.6751 4329.02 93.3743 4327.5" fill="#47A2DF" fill-opacity="0.2"/>
<path d="M276.374 3385.5C279.069 3383.97 280.02 3380.55 278.496 3377.85C276.97 3375.15 273.548 3374.2 270.851 3375.73C268.154 3377.25 267.203 3380.67 268.726 3383.37C270.253 3386.07 273.675 3387.02 276.374 3385.5" fill="#47A2DF" fill-opacity="0.2"/>
<path d="M1117.37 3661.5C1120.07 3659.97 1121.02 3656.55 1119.5 3653.85C1117.97 3651.15 1114.55 3650.2 1111.85 3651.73C1109.15 3653.25 1108.2 3656.67 1109.73 3659.37C1111.25 3662.07 1114.68 3663.02 1117.37 3661.5" fill="#47A2DF" fill-opacity="0.2"/>
<path d="M1073.37 3770.5C1076.07 3768.97 1077.02 3765.55 1075.5 3762.85C1073.97 3760.15 1070.55 3759.2 1067.85 3760.73C1065.15 3762.25 1064.2 3765.67 1065.73 3768.37C1067.25 3771.07 1070.68 3772.02 1073.37 3770.5" fill="#47A2DF" fill-opacity="0.2"/>
<path d="M359.374 3740.5C362.069 3738.97 363.02 3735.55 361.496 3732.85C359.97 3730.15 356.548 3729.2 353.851 3730.73C351.154 3732.25 350.203 3735.67 351.726 3738.37C353.253 3741.07 356.675 3742.02 359.374 3740.5" fill="#47A2DF" fill-opacity="0.2"/>
<path d="M8.37427 3488.5C11.0688 3486.97 12.0203 3483.55 10.4964 3480.85C8.97012 3478.15 5.54784 3477.2 2.85099 3478.73C0.154137 3480.25 -0.79742 3483.67 0.726477 3486.37C2.25273 3489.07 5.67507 3490.02 8.37427 3488.5" fill="#47A2DF" fill-opacity="0.2"/>
<path d="M82.3743 3211.5C85.0688 3209.97 86.0203 3206.55 84.4964 3203.85C82.9701 3201.15 79.5478 3200.2 76.851 3201.73C74.1541 3203.25 73.2026 3206.67 74.7265 3209.37C76.2527 3212.07 79.6751 3213.02 82.3743 3211.5" fill="#47A2DF" fill-opacity="0.2"/>
<path d="M1423.37 2912.5C1426.07 2910.97 1427.02 2907.55 1425.5 2904.85C1423.97 2902.15 1420.55 2901.2 1417.85 2902.73C1415.15 2904.25 1414.2 2907.67 1415.73 2910.37C1417.25 2913.07 1420.68 2914.02 1423.37 2912.5" fill="#47A2DF" fill-opacity="0.2"/>
<path d="M14.3743 2033.5C17.0688 2031.97 18.0203 2028.55 16.4964 2025.85C14.9701 2023.15 11.5478 2022.2 8.85099 2023.73C6.15414 2025.25 5.20258 2028.67 6.72648 2031.37C8.25273 2034.07 11.6751 2035.02 14.3743 2033.5" fill="#47A2DF" fill-opacity="0.2"/>
<path d="M129.374 1678.5C132.069 1676.97 133.02 1673.55 131.496 1670.85C129.97 1668.15 126.548 1667.2 123.851 1668.73C121.154 1670.25 120.203 1673.67 121.726 1676.37C123.253 1679.07 126.675 1680.02 129.374 1678.5" fill="#47A2DF" fill-opacity="0.2"/>
<path d="M805.374 2027.5C808.069 2025.97 809.02 2022.55 807.496 2019.85C805.97 2017.15 802.548 2016.2 799.851 2017.73C797.154 2019.25 796.203 2022.67 797.726 2025.37C799.253 2028.07 802.675 2029.02 805.374 2027.5" fill="#47A2DF" fill-opacity="0.2"/>
<path d="M617.374 2189.5C620.069 2187.97 621.02 2184.55 619.496 2181.85C617.97 2179.15 614.548 2178.2 611.851 2179.73C609.154 2181.25 608.203 2184.67 609.726 2187.37C611.253 2190.07 614.675 2191.02 617.374 2189.5" fill="#47A2DF" fill-opacity="0.2"/>
<path d="M1380.37 2111.5C1383.07 2109.97 1384.02 2106.55 1382.5 2103.85C1380.97 2101.15 1377.55 2100.2 1374.85 2101.73C1372.15 2103.25 1371.2 2106.67 1372.73 2109.37C1374.25 2112.07 1377.68 2113.02 1380.37 2111.5" fill="#47A2DF" fill-opacity="0.2"/>
<path d="M1374.37 1511.5C1377.07 1509.97 1378.02 1506.55 1376.5 1503.85C1374.97 1501.15 1371.55 1500.2 1368.85 1501.73C1366.15 1503.25 1365.2 1506.67 1366.73 1509.37C1368.25 1512.07 1371.68 1513.02 1374.37 1511.5" fill="#47A2DF" fill-opacity="0.2"/>
<path d="M135.374 1224.5C138.069 1222.97 139.02 1219.55 137.496 1216.85C135.97 1214.15 132.548 1213.2 129.851 1214.73C127.154 1216.25 126.203 1219.67 127.726 1222.37C129.253 1225.07 132.675 1226.02 135.374 1224.5" fill="#47A2DF" fill-opacity="0.2"/>
<path d="M710.374 801.496C713.069 799.972 714.02 796.549 712.496 793.853C710.97 791.153 707.548 790.202 704.851 791.728C702.154 793.252 701.203 796.674 702.726 799.371C704.253 802.07 707.675 803.019 710.374 801.496" fill="#47A2DF" fill-opacity="0.2"/>
<path d="M512.374 574.496C515.069 572.972 516.02 569.549 514.496 566.853C512.97 564.153 509.548 563.202 506.851 564.728C504.154 566.252 503.203 569.674 504.726 572.371C506.253 575.07 509.675 576.019 512.374 574.496" fill="#47A2DF" fill-opacity="0.2"/>
<path d="M1344.37 597.496C1347.07 595.972 1348.02 592.549 1346.5 589.853C1344.97 587.153 1341.55 586.202 1338.85 587.728C1336.15 589.252 1335.2 592.674 1336.73 595.371C1338.25 598.07 1341.68 599.019 1344.37 597.496" fill="#47A2DF" fill-opacity="0.2"/>
<path d="M710.374 348.496C713.069 346.972 714.02 343.549 712.496 340.853C710.97 338.153 707.548 337.202 704.851 338.728C702.154 340.252 701.203 343.674 702.726 346.371C704.253 349.07 707.675 350.019 710.374 348.496" fill="#47A2DF" fill-opacity="0.2"/>
<path d="M57.3743 937.496C60.0688 935.972 61.0203 932.549 59.4964 929.853C57.9701 927.153 54.5478 926.202 51.851 927.728C49.1541 929.252 48.2026 932.674 49.7265 935.371C51.2527 938.07 54.6751 939.019 57.3743 937.496" fill="#47A2DF" fill-opacity="0.2"/>
<path d="M1331.37 447.496C1334.07 445.972 1335.02 442.549 1333.5 439.853C1331.97 437.153 1328.55 436.202 1325.85 437.728C1323.15 439.252 1322.2 442.674 1323.73 445.371C1325.25 448.07 1328.68 449.019 1331.37 447.496" fill="#47A2DF" fill-opacity="0.2"/>
<path d="M161.374 10.4956C164.069 8.97166 165.02 5.54938 163.496 2.85253C161.97 0.153327 158.548 -0.79823 155.851 0.728022C153.154 2.25192 152.203 5.6742 153.726 8.37105C155.253 11.0703 158.675 12.0195 161.374 10.4956" fill="#47A2DF" fill-opacity="0.2"/>
<path d="M199.374 165.496C202.069 163.972 203.02 160.549 201.496 157.853C199.97 155.153 196.548 154.202 193.851 155.728C191.154 157.252 190.203 160.674 191.726 163.371C193.253 166.07 196.675 167.019 199.374 165.496" fill="#47A2DF" fill-opacity="0.2"/>
<path d="M83.3743 82.4956C86.0688 80.9717 87.0203 77.5494 85.4964 74.8525C83.9701 72.1533 80.5478 71.2018 77.851 72.728C75.1541 74.2519 74.2026 77.6742 75.7265 80.371C77.2527 83.0703 80.6751 84.0195 83.3743 82.4956" fill="#47A2DF" fill-opacity="0.2"/>
</svg>
