<svg width="309" height="897" viewBox="0 0 309 897" fill="none" xmlns="http://www.w3.org/2000/svg">
<path d="M259.206 411.966L277.406 418.158C278.484 418.525 279.658 417.947 280.025 416.869C280.392 415.79 279.814 414.616 278.736 414.25L260.536 408.058L266.728 389.858C267.094 388.78 266.516 387.606 265.438 387.239C264.36 386.872 263.186 387.45 262.819 388.528L256.627 406.728L238.428 400.536C237.349 400.169 236.175 400.747 235.809 401.825C235.625 402.365 235.677 402.926 235.91 403.4C236.143 403.873 236.557 404.257 237.096 404.44L255.296 410.632L249.104 428.832C248.92 429.371 248.973 429.933 249.206 430.406C249.438 430.879 249.852 431.263 250.393 431.451C251.471 431.818 252.645 431.24 253.012 430.161L259.204 411.962L259.206 411.966Z" fill="#61C7CB" fill-opacity="0.33"/>
<g clip-path="url(#clip0_233_157)">
<path d="M236.497 633.973L205.233 619.373C203.851 618.727 203.254 617.083 203.899 615.701L218.499 584.438C219.145 583.055 220.789 582.458 222.171 583.104L253.434 597.703C254.817 598.349 255.414 599.993 254.769 601.376L240.169 632.639C239.523 634.021 237.879 634.618 236.497 633.973ZM210.069 615.533L236.331 627.798L248.596 601.535L222.333 589.27L210.069 615.533Z" fill="#635CA8" fill-opacity="0.18"/>
</g>
<g clip-path="url(#clip1_233_157)">
<path d="M42.503 725C29.5421 725 19 714.453 19 701.5C19 688.547 29.5421 678 42.503 678C55.4638 678 66.0059 688.541 66.0059 701.5C66.0059 714.459 55.4638 725 42.503 725ZM42.503 683.085C32.3443 683.085 24.0852 691.349 24.0852 701.5C24.0852 711.651 32.3502 719.915 42.503 719.915C52.6557 719.915 60.9207 711.651 60.9207 701.5C60.9207 691.349 52.6557 683.085 42.503 683.085Z" fill="#61C7CB" fill-opacity="0.33"/>
</g>
<g clip-path="url(#clip2_233_157)">
<path d="M30.002 77C21.1776 77 14 69.8193 14 61C14 52.1807 21.1776 45 30.002 45C38.8264 45 46.004 52.1767 46.004 61C46.004 69.8233 38.8264 77 30.002 77ZM30.002 48.4618C23.0855 48.4618 17.4623 54.0884 17.4623 61C17.4623 67.9116 23.0895 73.5382 30.002 73.5382C36.9145 73.5382 42.5417 67.9116 42.5417 61C42.5417 54.0884 36.9145 48.4618 30.002 48.4618Z" fill="#61C7CB" fill-opacity="0.33"/>
</g>
<g clip-path="url(#clip3_233_157)">
<path d="M25.3132 185.496L43.0537 177.035C44.1046 176.534 44.5512 175.273 44.05 174.222C43.5488 173.171 42.2877 172.725 41.2368 173.226L23.4963 181.687L15.0353 163.946C14.5341 162.895 13.273 162.449 12.222 162.95C11.1711 163.451 10.7245 164.712 11.2257 165.763L19.6867 183.504L1.9463 191.965C0.895384 192.466 0.448754 193.727 0.949972 194.778C1.20058 195.303 1.64001 195.677 2.15277 195.859C2.66552 196.041 3.23775 196.025 3.76321 195.774L21.5037 187.313L29.9647 205.054C30.2153 205.579 30.6547 205.953 31.1629 206.133C31.671 206.313 32.2479 206.299 32.7733 206.048C33.8242 205.547 34.2709 204.286 33.7696 203.235L25.3086 185.495L25.3132 185.496Z" fill="#635CA8" fill-opacity="0.33"/>
</g>
<path d="M281.995 233C267.664 233 256 221.336 256 206.995C256 192.654 267.664 181 281.995 181C296.326 181 308 192.664 308 206.995C308 221.326 296.336 232.99 281.995 232.99V233ZM281.995 189.608C272.398 189.608 264.598 197.408 264.598 207.005C264.598 216.602 272.398 224.402 281.995 224.402C291.592 224.402 299.392 216.602 299.392 207.005C299.392 197.408 291.582 189.608 281.995 189.608Z" fill="#635CA8" fill-opacity="0.19"/>
<g clip-path="url(#clip4_233_157)">
<path d="M163.983 718.112L176.233 712.27C176.959 711.924 177.267 711.053 176.921 710.328C176.575 709.602 175.704 709.294 174.979 709.64L162.729 715.482L156.886 703.232C156.54 702.507 155.67 702.198 154.944 702.544C154.218 702.89 153.91 703.761 154.256 704.487L160.098 716.737L147.849 722.579C147.123 722.925 146.814 723.796 147.161 724.521C147.334 724.884 147.637 725.142 147.991 725.268C148.345 725.393 148.74 725.382 149.103 725.209L161.353 719.367L167.195 731.617C167.368 731.98 167.672 732.238 168.023 732.362C168.373 732.486 168.772 732.477 169.135 732.304C169.86 731.958 170.169 731.087 169.822 730.361L163.98 718.111L163.983 718.112Z" fill="#635CA8" fill-opacity="0.33"/>
</g>
<g clip-path="url(#clip5_233_157)">
<path d="M271.367 16.1125L283.617 10.2701C284.343 9.92405 284.651 9.05325 284.305 8.3276C283.959 7.60194 283.088 7.29354 282.362 7.63963L270.113 13.482L264.27 1.2322C263.924 0.506549 263.053 0.198152 262.328 0.544242C261.602 0.890332 261.294 1.76113 261.64 2.48678L267.482 14.7365L255.232 20.5789C254.507 20.925 254.198 21.7958 254.544 22.5214C254.717 22.8842 255.021 23.1425 255.375 23.2679C255.729 23.3933 256.124 23.3824 256.487 23.2094L268.737 17.367L274.579 29.6168C274.752 29.9796 275.055 30.2379 275.406 30.3621C275.757 30.4864 276.155 30.4767 276.518 30.3036C277.244 29.9576 277.552 29.0868 277.206 28.3611L271.364 16.1113L271.367 16.1125Z" fill="#635CA8" fill-opacity="0.33"/>
</g>
<path d="M81.4762 600.958C72.9444 600.958 66 594.014 66 585.476C66 576.938 72.9444 570 81.4762 570C90.008 570 96.9583 576.944 96.9583 585.476C96.9583 594.008 90.014 600.952 81.4762 600.952V600.958ZM81.4762 575.125C75.7625 575.125 71.1191 579.768 71.1191 585.482C71.1191 591.196 75.7625 595.839 81.4762 595.839C87.1898 595.839 91.8333 591.196 91.8333 585.482C91.8333 579.768 87.1839 575.125 81.4762 575.125Z" fill="#635CA8" fill-opacity="0.33"/>
<g clip-path="url(#clip6_233_157)">
<path d="M278.582 863.213L300.911 870.81C302.233 871.26 303.674 870.551 304.124 869.228C304.574 867.905 303.865 866.465 302.542 866.015L280.213 858.418L287.81 836.089C288.26 834.767 287.551 833.326 286.228 832.876C284.905 832.426 283.465 833.135 283.015 834.458L275.418 856.787L253.089 849.19C251.767 848.74 250.326 849.449 249.876 850.772C249.651 851.433 249.715 852.123 250.001 852.703C250.287 853.284 250.794 853.755 251.455 853.98L273.784 861.577L266.188 883.905C265.963 884.567 266.027 885.256 266.313 885.837C266.598 886.417 267.106 886.888 267.769 887.119C269.092 887.569 270.533 886.859 270.983 885.537L278.579 863.208L278.582 863.213Z" fill="#61C7CB" fill-opacity="0.33"/>
</g>
<path d="M63.4464 897H31.5536C30.1435 897 29 895.857 29 894.446V862.554C29 861.143 30.1435 860 31.5536 860H63.4464C64.8565 860 66 861.143 66 862.554V894.446C66 895.857 64.8565 897 63.4464 897ZM34.1012 891.893H60.8929V865.101H34.1012V891.893Z" fill="#61C7CB" fill-opacity="0.33"/>
<defs>
<clipPath id="clip0_233_157">
<rect x="219.668" y="581.935" width="40.0295" height="40.0295" rx="7" transform="rotate(25.0325 219.668 581.935)" fill="white"/>
</clipPath>
<clipPath id="clip1_233_157">
<rect width="47" height="47" fill="white" transform="translate(19 678)"/>
</clipPath>
<clipPath id="clip2_233_157">
<rect width="32" height="32" fill="white" transform="translate(14 45)"/>
</clipPath>
<clipPath id="clip3_233_157">
<rect width="35" height="35" fill="white" transform="translate(11.8461 162.162) rotate(19.5019)"/>
</clipPath>
<clipPath id="clip4_233_157">
<rect width="24.1675" height="24.1675" fill="white" transform="translate(154.684 702) rotate(19.5019)"/>
</clipPath>
<clipPath id="clip5_233_157">
<rect width="24.1675" height="24.1675" fill="white" transform="translate(262.068) rotate(19.5019)"/>
</clipPath>
<clipPath id="clip6_233_157">
<rect width="42" height="42" fill="white" transform="translate(286.566 831.884) rotate(63.7891)"/>
</clipPath>
</defs>
</svg>
