<svg width="529" height="637" viewBox="0 0 529 637" fill="none" xmlns="http://www.w3.org/2000/svg">
<path d="M226.898 388.175L226.308 388.863C223.43 392.151 210.309 405.531 189.93 405.5C176.809 405.493 160.442 400.057 141.319 382.449L139.551 382.005C139.551 382.005 139.168 382.097 138.402 382.257C136.106 382.731 130.533 383.702 123.505 383.702C114.924 383.71 104.191 382.257 94.5066 376.836C84.8226 371.416 76.0726 362.111 71.2191 345.879C70.9206 344.877 69.8642 344.296 68.8537 344.587L68.1648 344.763C66.7563 345.091 63.3266 345.78 59.2693 345.772C55.4263 345.78 51.0398 345.16 47.2121 343.195C43.3845 341.215 40.0542 337.973 38.0332 332.3L36.8696 331.13L35.2238 331.306L34.619 331.658C31.7023 333.309 18.6193 340.076 2.94881 340.061C-12.3618 340.007 -30.1066 333.867 -44.3991 309.89L-45.5705 309.011L-45.9148 308.912C-47.7597 308.384 -56.5787 305.525 -65.6426 298.016C-74.7065 290.493 -84.0309 278.397 -87.1313 259.046C-87.8509 254.543 -88.1723 250.238 -88.1723 246.155C-88.1723 229.419 -82.8213 216.199 -77.4702 207.139C-74.7908 202.613 -72.1116 199.126 -70.1135 196.794C-69.1184 195.624 -68.2913 194.745 -67.7171 194.156L-67.0667 193.506L-66.8522 193.308C-66.2933 192.796 -66.0869 192 -66.3319 191.282L-66.5307 190.609C-66.9211 189.21 -67.725 185.761 -67.725 181.464C-67.725 176.976 -66.8601 171.609 -63.8286 166.548C-60.7971 161.486 -55.6144 156.646 -46.5888 153.213C-45.8768 152.938 -45.3943 152.265 -45.356 151.508C-45.356 151.508 -45.3255 150.721 -45.1418 149.222C-44.5064 143.985 -42.0338 130.651 -33.1153 118.31C-24.1739 105.978 -8.95496 94.5015 17.9458 92.6283C18.7267 92.5748 19.4003 92.0396 19.6376 91.2903L19.8825 90.5717C21.1915 86.894 27.867 69.8288 43.9967 53.7727C60.1418 37.7243 85.6417 22.6086 125.097 22.5933C134.115 22.5933 143.868 23.3883 154.409 25.1469L156.048 24.6499L157.005 23.8012C161.598 19.8483 182.191 3.79997 210.852 3.8229C226.331 3.83055 244.214 8.441 263.513 22.2339L265.442 22.4098L265.718 22.2874C267.103 21.691 273.534 19.168 281.465 19.1756C291.547 19.2444 303.864 22.9602 312.653 40.0714C313.043 40.836 313.885 41.2489 314.727 41.0807L315.508 40.9508C317.108 40.7061 321.074 40.1938 326.601 40.1938C345.456 40.2397 381.98 45.9893 405.397 87.9645C405.772 88.6373 406.515 89.0197 407.28 88.9356L408.038 88.882C408.559 88.8514 409.339 88.8207 410.335 88.8207C415.441 88.8131 426.204 89.6542 437.281 95.572C448.359 101.497 459.842 112.408 466.647 133.013L467.742 134.183L468.079 134.336C469.893 135.146 478.49 139.313 486.551 147.907C494.612 156.524 502.168 169.453 502.176 188.193L502.168 189.217L502.987 190.808L503.148 190.922C504.947 192.276 520.671 204.708 520.663 229.954C520.663 235.956 519.775 242.699 517.593 250.23L517.762 251.706L518.06 252.257C519.454 254.933 525.188 266.998 525.172 281.731C525.172 288.367 524.024 295.547 520.831 302.726C515.029 315.755 509.433 323.546 505.36 328.057C503.316 330.305 501.655 331.742 500.537 332.598L499.266 333.477L498.976 333.653L498.922 333.684L499.09 334.013L498.93 333.684H498.922L499.09 334.013L498.93 333.684C498.271 334.005 497.858 334.685 497.873 335.419V335.832C497.873 338.715 497.613 356.331 491.795 376.561C485.985 396.807 474.647 419.553 452.722 433.102C438.69 441.787 421.397 444.891 404.019 444.891C383.931 444.891 363.79 440.748 348.709 436.596C341.169 434.516 334.892 432.444 330.505 430.885C326.111 429.332 323.654 428.308 323.646 428.308C322.666 427.903 321.548 428.369 321.143 429.34C320.737 430.319 321.204 431.435 322.184 431.84C322.298 431.871 362.81 448.691 404.019 448.714C421.833 448.707 439.838 445.564 454.743 436.351C477.824 422.061 489.514 398.352 495.477 377.616C501.441 356.858 501.701 338.944 501.701 335.832V335.366L499.787 335.389L500.645 337.102C501.081 336.887 512.457 330.962 524.33 304.278C527.775 296.541 529 288.811 529 281.731C528.985 263.771 521.176 249.978 521.099 249.825L519.431 250.766L521.268 251.293C523.549 243.441 524.491 236.33 524.491 229.954C524.468 201.175 505.399 187.818 505.177 187.673L504.082 189.24L505.996 189.263L506.003 188.193C506.019 167.067 496.794 152.579 487.631 143.534C478.452 134.466 469.342 130.712 469.197 130.651L468.469 132.417L470.283 131.82C463.225 110.351 450.954 98.5079 439.081 92.2001C427.215 85.8771 415.846 84.9979 410.335 84.9979C408.183 84.9979 406.92 85.1278 406.859 85.1354L407.066 87.0392L408.742 86.1065C384.521 42.6021 346.137 36.3251 326.601 36.371C318.923 36.371 314.084 37.3114 313.992 37.3343L314.36 39.2075L316.067 38.3358C306.781 19.9707 292.519 15.2763 281.465 15.3528C271.482 15.3604 263.965 18.8851 263.819 18.9463L264.631 20.6742L265.748 19.1221C245.868 4.90096 227.097 -0.0076311 210.852 1.46627e-05C176.411 0.0382435 153.575 21.7444 153.407 21.8821L154.731 23.266L155.045 21.3775C144.312 19.5808 134.345 18.7704 125.097 18.7704C81.9365 18.7475 54.5075 36.5773 38.0792 54.4072C21.6356 72.2294 16.0473 89.9829 15.986 90.1435L17.8158 90.7169L17.6853 88.8131C-14.2221 90.9539 -31.2322 106.643 -39.875 121.728C-48.5562 136.798 -49.1683 151.172 -49.1836 151.34L-47.2698 151.424L-47.9512 149.635C-57.6429 153.305 -63.6447 158.764 -67.1202 164.583C-70.5957 170.409 -71.5527 176.502 -71.5527 181.464C-71.5527 187.826 -69.9988 192.383 -69.9528 192.513L-68.1459 191.901L-69.4321 190.486C-69.6005 190.655 -91.9694 210.992 -92 246.155C-92 250.437 -91.6632 254.948 -90.913 259.65C-87.4681 281.326 -76.3678 294.69 -66.1633 302.489C-55.9587 310.303 -46.6804 312.673 -46.5196 312.712L-46.0453 310.861L-47.6911 311.84C-32.9087 336.872 -13.4259 343.945 2.94881 343.883C22.1101 343.86 37.0688 334.64 37.2296 334.563L36.2267 332.935L34.4201 333.569C36.7167 340.114 40.8733 344.258 45.4665 346.598C50.0597 348.945 55.0359 349.595 59.2693 349.595C65.2481 349.595 69.8029 348.287 69.9101 348.264L69.3819 346.422L67.5447 346.972C72.6202 364.045 82.1356 374.336 92.6387 380.178C103.134 386.034 114.503 387.525 123.505 387.525C133.35 387.525 140.393 385.729 140.492 385.706L140.025 383.855L138.724 385.262C158.329 403.344 175.706 409.331 189.93 409.323C215.254 409.27 229.761 390.691 229.906 390.53C230.557 389.697 230.412 388.496 229.585 387.847C228.75 387.197 227.548 387.342 226.898 388.175Z" fill="#47A2DF" fill-opacity="0.2"/>
<path d="M16.5989 92.0233L117.29 187.193L118.607 187.714H172.229C173.286 187.714 174.143 186.856 174.143 185.798C174.143 184.74 173.286 183.882 172.229 183.882H119.365L19.2246 89.2335C18.4592 88.513 17.2495 88.5436 16.5223 89.3177C15.7951 90.0841 15.8334 91.2951 16.5989 92.0233" fill="#47A2DF" fill-opacity="0.2"/>
<path d="M-6.57596 97.1168L98.1619 200.023L99.5081 200.571H172.23C173.286 200.571 174.143 199.719 174.143 198.668C174.143 197.617 173.286 196.764 172.23 196.764H100.296L-3.89095 94.4063C-4.64066 93.6677 -5.84922 93.6754 -6.59128 94.4216C-7.33334 95.1754 -7.32567 96.3783 -6.57596 97.1168" fill="#47A2DF" fill-opacity="0.2"/>
<path d="M268.629 226.259H330.791L499.036 336.541C499.917 337.124 501.104 336.878 501.686 335.99C502.268 335.109 502.016 333.922 501.135 333.34L332.407 222.743L331.358 222.429H268.629C267.572 222.429 266.714 223.287 266.714 224.344C266.714 225.401 267.572 226.259 268.629 226.259" fill="#47A2DF" fill-opacity="0.2"/>
<path d="M-47.7726 152.38L32.7406 239.819L34.1384 240.429H170.947C172.002 240.429 172.857 239.573 172.857 238.501C172.857 237.436 172.002 236.58 170.947 236.58L34.9713 236.573L-44.9764 149.758C-45.6945 148.979 -46.9018 148.933 -47.6733 149.658C-48.4526 150.383 -48.4907 151.602 -47.7726 152.38" fill="#47A2DF" fill-opacity="0.2"/>
<path d="M-69.6408 193.477L-15.1386 252.668L-13.7192 253.286H170.939C171.998 253.286 172.857 252.431 172.857 251.379C172.857 250.326 171.998 249.472 170.939 249.472H-12.8752L-66.8095 190.907C-67.5307 190.128 -68.7429 190.075 -69.5254 190.784C-70.3003 191.494 -70.3543 192.707 -69.6408 193.477Z" fill="#47A2DF" fill-opacity="0.2"/>
<path d="M-1.39058 153H51.3907C52.4368 153 53.2858 152.136 53.2858 151.071C53.2858 150.007 52.4368 149.143 51.3907 149.143H-1.39058C-2.43665 149.143 -3.28564 150.007 -3.28564 151.071C-3.28564 152.136 -2.43665 153 -1.39058 153Z" fill="#47A2DF" fill-opacity="0.2"/>
<path d="M33.9316 185.696L31.4313 238.42C31.3762 239.481 32.2174 240.38 33.3024 240.426C34.3874 240.48 35.3076 239.658 35.3548 238.597L37.8547 185.873C37.9098 184.812 37.0686 183.913 35.9836 183.859C34.8986 183.813 33.9788 184.635 33.9316 185.696Z" fill="#47A2DF" fill-opacity="0.2"/>
<path d="M125.938 111.857H179.919C180.989 111.857 181.857 110.993 181.857 109.929C181.857 108.864 180.989 108 179.919 108H125.938C124.868 108 124 108.864 124 109.929C124 110.993 124.868 111.857 125.938 111.857Z" fill="#47A2DF" fill-opacity="0.2"/>
<path d="M124.717 110.571H122.864C122.864 113.334 120.787 115.571 118.214 115.579C115.648 115.571 113.572 113.334 113.565 110.571C113.572 107.808 115.648 105.572 118.214 105.564C120.787 105.572 122.864 107.808 122.864 110.571H124.717H126.571C126.571 105.604 122.834 101.571 118.214 101.571C113.602 101.571 109.864 105.604 109.857 110.571C109.864 115.547 113.602 119.571 118.214 119.571C122.834 119.571 126.571 115.547 126.571 110.571H124.717Z" fill="#47A2DF" fill-opacity="0.2"/>
<path d="M311.105 145.286H258.324C257.278 145.286 256.429 146.15 256.429 147.214C256.429 148.279 257.278 149.143 258.324 149.143H311.105C312.151 149.143 313 148.279 313 147.214C313 146.15 312.151 145.286 311.105 145.286Z" fill="#47A2DF" fill-opacity="0.2"/>
<path d="M312.426 147.218H310.429C310.429 151.832 314.455 155.571 319.425 155.571C324.394 155.571 328.429 151.832 328.429 147.218C328.429 142.596 324.394 138.857 319.425 138.857C314.455 138.857 310.429 142.596 310.429 147.218H312.426H314.423C314.423 144.644 316.669 142.566 319.425 142.566C322.189 142.566 324.426 144.644 324.434 147.218C324.426 149.777 322.189 151.855 319.425 151.862C316.669 151.855 314.423 149.777 314.423 147.218H312.426Z" fill="#47A2DF" fill-opacity="0.2"/>
<path d="M372.776 313.714H318.796C317.726 313.714 316.857 314.578 316.857 315.643C316.857 316.707 317.726 317.571 318.796 317.571H372.776C373.846 317.571 374.715 316.707 374.715 315.643C374.715 314.578 373.846 313.714 372.776 313.714Z" fill="#47A2DF" fill-opacity="0.2"/>
<path d="M373.996 315.643H372.143C372.15 320.255 375.887 323.993 380.5 324C385.119 323.993 388.857 320.255 388.857 315.643C388.857 311.023 385.119 307.286 380.5 307.286C375.887 307.286 372.15 311.023 372.143 315.643H373.996H375.85C375.858 313.07 377.934 310.993 380.5 310.993C383.073 310.993 385.149 313.07 385.149 315.643C385.149 318.209 383.073 320.285 380.5 320.292C377.934 320.285 375.858 318.209 375.85 315.643H373.996Z" fill="#47A2DF" fill-opacity="0.2"/>
<path d="M268.569 313.075H266.714C266.714 317.69 270.453 321.429 275.075 321.429C279.689 321.429 283.429 317.69 283.429 313.075C283.429 308.453 279.689 304.714 275.075 304.714C270.453 304.714 266.714 308.453 266.714 313.075H268.569H270.424C270.431 310.501 272.508 308.424 275.075 308.424C277.635 308.424 279.712 310.501 279.719 313.075C279.712 315.642 277.635 317.719 275.075 317.719C272.508 317.719 270.431 315.642 270.424 313.075H268.569Z" fill="#47A2DF" fill-opacity="0.2"/>
<path d="M408.782 363.857H322.646C321.58 363.857 320.714 364.721 320.714 365.786C320.714 366.85 321.58 367.714 322.646 367.714H408.782C409.849 367.714 410.714 366.85 410.714 365.786C410.714 364.721 409.849 363.857 408.782 363.857Z" fill="#47A2DF" fill-opacity="0.2"/>
<path d="M407.512 365.786H405.571C405.571 371.107 409.888 375.429 415.214 375.429C420.54 375.429 424.857 371.107 424.857 365.786C424.857 360.464 420.54 356.151 415.214 356.143C409.888 356.151 405.571 360.464 405.571 365.786H407.512H409.453C409.453 362.605 412.031 360.029 415.214 360.022C418.398 360.029 420.967 362.605 420.975 365.786C420.967 368.966 418.39 371.542 415.214 371.55C412.031 371.542 409.453 368.966 409.453 365.786H407.512Z" fill="#47A2DF" fill-opacity="0.2"/>
<path d="M348.368 626.793H346.429C346.429 632.115 350.742 636.421 356.064 636.429C361.393 636.429 365.707 632.115 365.714 626.793C365.714 621.464 361.393 617.143 356.064 617.143C350.742 617.143 346.429 621.464 346.429 626.793H348.368H350.308C350.315 623.605 352.891 621.029 356.064 621.022C359.252 621.029 361.828 623.605 361.836 626.793C361.828 629.966 359.252 632.542 356.064 632.55C352.891 632.542 350.315 629.966 350.308 626.793H348.368Z" fill="#47A2DF" fill-opacity="0.2"/>
<path d="M312.24 601.071H310.429C310.429 606.398 314.456 610.714 319.425 610.714C324.402 610.714 328.429 606.398 328.429 601.071C328.429 595.745 324.402 591.429 319.425 591.429C314.456 591.429 310.429 595.745 310.429 601.071H312.24H314.05C314.05 597.888 316.456 595.311 319.425 595.311C322.402 595.311 324.8 597.888 324.807 601.071C324.8 604.247 322.402 606.825 319.425 606.832C316.456 606.825 314.05 604.247 314.05 601.071H312.24Z" fill="#47A2DF" fill-opacity="0.2"/>
<path d="M259.655 581.79H257.714C257.714 587.114 262.031 591.429 267.357 591.429C272.683 591.429 277 587.114 277 581.79C277 576.458 272.683 572.143 267.357 572.143C262.031 572.143 257.714 576.458 257.714 581.79H259.655H261.596C261.596 578.6 264.174 576.023 267.357 576.023C270.533 576.023 273.11 578.6 273.118 581.79C273.11 584.964 270.533 587.54 267.357 587.548C264.174 587.54 261.596 584.964 261.596 581.79H259.655Z" fill="#47A2DF" fill-opacity="0.2"/>
<path d="M215.94 615.214H214C214 620.54 218.315 624.857 223.647 624.857C228.971 624.857 233.286 620.54 233.286 615.214C233.286 609.888 228.971 605.571 223.647 605.571C218.315 605.571 214 609.888 214 615.214H215.94H217.88C217.88 612.031 220.457 609.453 223.647 609.453C226.829 609.453 229.398 612.031 229.405 615.214C229.398 618.398 226.829 620.967 223.647 620.975C220.457 620.967 217.88 618.39 217.88 615.214H215.94Z" fill="#47A2DF" fill-opacity="0.2"/>
<path d="M443.568 259.071H441.571C441.571 263.691 445.604 267.429 450.571 267.429C455.546 267.429 459.571 263.691 459.571 259.071C459.571 254.452 455.546 250.714 450.571 250.714C445.604 250.714 441.571 254.452 441.571 259.071H443.568H445.564C445.572 256.506 447.808 254.429 450.571 254.422C453.334 254.429 455.57 256.506 455.578 259.071C455.57 261.637 453.334 263.713 450.571 263.721C447.808 263.713 445.572 261.637 445.564 259.071H443.568Z" fill="#47A2DF" fill-opacity="0.2"/>
<path d="M42.4309 176.143H40.5763C40.5689 178.906 38.4916 181.142 35.9248 181.15C33.3654 181.142 31.2806 178.906 31.2806 176.143C31.2806 173.38 33.3654 171.144 35.9248 171.136C38.4916 171.144 40.5689 173.38 40.5763 176.143H42.4309H44.2856C44.2782 171.176 40.5392 167.143 35.9248 167.143C31.3104 167.151 27.5713 171.176 27.5713 176.143C27.5713 181.11 31.3104 185.135 35.9248 185.143C40.5392 185.143 44.2782 181.11 44.2856 176.143H42.4309Z" fill="#47A2DF" fill-opacity="0.2"/>
<path d="M51.4317 308.571H49.5778C49.5778 311.334 47.4944 313.571 44.9286 313.579C42.3628 313.571 40.2865 311.334 40.2791 308.571C40.2865 305.8 42.3628 303.564 44.9286 303.564C47.4944 303.564 49.5778 305.8 49.5778 308.571H51.4317H53.2856C53.2856 303.596 49.5485 299.571 44.9286 299.571C40.3161 299.571 36.5713 303.596 36.5713 308.571C36.5713 313.539 40.3161 317.563 44.9286 317.571C49.5485 317.563 53.2856 313.539 53.2856 308.571H51.4317Z" fill="#47A2DF" fill-opacity="0.2"/>
<path d="M172.227 262.286H114.054C113.349 262.286 112.705 262.669 112.368 263.29L67.6616 345.596C67.1558 346.524 67.5009 347.689 68.4359 348.195C69.3633 348.701 70.5284 348.356 71.0342 347.429L115.196 266.119H172.227C173.285 266.119 174.143 265.26 174.143 264.202C174.143 263.144 173.285 262.286 172.227 262.286" fill="#47A2DF" fill-opacity="0.2"/>
<path d="M181.857 175.514V85.2101L181.727 84.5134L157.283 21.7891C156.892 20.809 155.786 20.3189 154.796 20.7017C153.806 21.0846 153.315 22.195 153.706 23.175L178.019 85.5702V175.514C178.019 176.571 178.878 177.429 179.938 177.429C180.997 177.429 181.857 176.571 181.857 175.514" fill="#47A2DF" fill-opacity="0.2"/>
<path d="M263.287 18.731L216.979 77.2444L216.571 78.4311V175.515C216.571 176.571 217.432 177.429 218.492 177.429C219.553 177.429 220.414 176.571 220.414 175.515V79.0894L266.299 21.0965C266.96 20.2697 266.814 19.0679 265.984 18.4095C265.147 17.7588 263.94 17.8965 263.287 18.731Z" fill="#47A2DF" fill-opacity="0.2"/>
<path d="M313.396 38.0557L256.804 114.124L256.429 115.251V175.525C256.429 176.576 257.288 177.429 258.347 177.429C259.406 177.429 260.265 176.576 260.265 175.525V115.876L316.481 40.3176C317.11 39.4722 316.933 38.2841 316.082 37.6596C315.23 37.0351 314.025 37.2103 313.396 38.0557Z" fill="#47A2DF" fill-opacity="0.2"/>
<path d="M405.919 85.7024L330.621 196.743H268.632C267.574 196.743 266.714 197.601 266.714 198.657C266.714 199.714 267.574 200.571 268.632 200.571H331.641L333.229 199.729L409.095 87.8462C409.694 86.9657 409.463 85.779 408.589 85.1894C407.707 84.5922 406.518 84.8219 405.919 85.7024" fill="#47A2DF" fill-opacity="0.2"/>
<path d="M466.393 130.666L410.512 209.593H268.622C267.569 209.593 266.714 210.452 266.714 211.511C266.714 212.569 267.569 213.429 268.622 213.429H411.497L413.045 212.623L469.506 132.89C470.116 132.023 469.91 130.827 469.056 130.213C468.193 129.599 467.003 129.799 466.393 130.666" fill="#47A2DF" fill-opacity="0.2"/>
<path d="M502.489 185.905L453.517 252.792C452.896 253.642 453.068 254.844 453.891 255.472C454.722 256.108 455.89 255.94 456.512 255.089L505.483 188.202C506.105 187.36 505.933 186.158 505.109 185.522C504.278 184.894 503.11 185.063 502.489 185.905Z" fill="#47A2DF" fill-opacity="0.2"/>
<path d="M479.568 295.068H477.571C477.571 299.69 481.596 303.429 486.571 303.429C491.538 303.429 495.571 299.69 495.571 295.068C495.571 290.453 491.538 286.714 486.571 286.714C481.596 286.714 477.571 290.453 477.571 295.068H479.568H481.564C481.572 292.501 483.808 290.424 486.571 290.424C489.334 290.424 491.57 292.501 491.578 295.068C491.57 297.642 489.334 299.719 486.571 299.719C483.808 299.719 481.572 297.642 481.564 295.068H479.568Z" fill="#47A2DF" fill-opacity="0.2"/>
<path d="M517.886 247.622L488.237 287.531C487.61 288.368 487.776 289.563 488.614 290.195C489.445 290.819 490.631 290.652 491.258 289.807L520.907 249.898C521.533 249.06 521.367 247.865 520.529 247.234C519.698 246.609 518.513 246.777 517.886 247.622Z" fill="#47A2DF" fill-opacity="0.2"/>
<path d="M268.615 266.112H309.266L320.774 430.227C320.85 431.276 321.755 432.071 322.804 431.995C323.853 431.926 324.636 431.008 324.567 429.952L312.93 264.069C312.861 263.066 312.033 262.286 311.037 262.286H268.615C267.566 262.286 266.714 263.143 266.714 264.199C266.714 265.255 267.566 266.112 268.615 266.112" fill="#47A2DF" fill-opacity="0.2"/>
<path d="M141.778 384.672L177.619 314.975H267.363C268.432 314.975 269.286 314.117 269.286 313.059C269.286 311.994 268.432 311.143 267.363 311.143H176.442C175.719 311.143 175.057 311.541 174.734 312.185L138.354 382.924C137.87 383.867 138.247 385.024 139.193 385.507C140.139 385.982 141.293 385.614 141.778 384.672Z" fill="#47A2DF" fill-opacity="0.2"/>
<path d="M226.757 351.725L233.197 462.48L214.632 479.019L214 480.522L220.246 605.046C220.301 606.099 221.213 606.908 222.289 606.855C223.365 606.801 224.191 605.908 224.137 604.855L217.938 481.24L236.511 464.694L237.143 463.175L230.648 351.511C230.585 350.458 229.665 349.656 228.589 349.718C227.513 349.771 226.694 350.679 226.757 351.725" fill="#47A2DF" fill-opacity="0.2"/>
<path d="M252.575 349.16L265.456 574.204C265.518 575.257 266.423 576.058 267.481 575.997C268.539 575.936 269.344 575.036 269.282 573.983L256.401 348.946C256.34 347.894 255.435 347.085 254.377 347.146C253.318 347.207 252.513 348.107 252.575 349.16" fill="#47A2DF" fill-opacity="0.2"/>
<path d="M274.431 349.159L282.127 486.539C282.172 487.354 282.719 488.041 283.491 488.262L313.249 496.739L316.966 593.454C317.004 594.506 317.88 595.33 318.914 595.284C319.941 595.246 320.751 594.361 320.713 593.309L316.944 495.207C316.906 494.376 316.359 493.667 315.572 493.446L285.792 484.961L278.178 348.945C278.118 347.893 277.234 347.085 276.2 347.146C275.165 347.207 274.379 348.107 274.431 349.159" fill="#47A2DF" fill-opacity="0.2"/>
<path d="M297.575 347.871L304.172 463.717C304.217 464.555 304.805 465.256 305.613 465.462L343.862 474.955L354.189 619.227C354.265 620.279 355.173 621.071 356.225 620.995C357.278 620.919 358.071 620.004 357.995 618.961L347.569 473.302C347.508 472.486 346.92 471.793 346.12 471.595L307.901 462.102L301.381 347.658C301.32 346.606 300.419 345.806 299.367 345.86C298.314 345.921 297.514 346.82 297.575 347.871" fill="#47A2DF" fill-opacity="0.2"/>
</svg>
