<svg width="605" height="1032" viewBox="0 0 605 1032" fill="none" xmlns="http://www.w3.org/2000/svg">
<path d="M382.397 274.158V272.98H185.042L86.0264 444.483L185.042 615.986H383.078L482.096 444.483L383.076 272.98H382.397V274.158L381.377 274.746L479.375 444.483L381.717 613.631H186.403L88.7444 444.483L186.403 275.335H382.397V274.158L381.377 274.746L382.397 274.158Z" fill="#47A2DF" fill-opacity="0.34"/>
<path d="M371.551 292.941V288.231H193.849L103.638 444.483L193.849 600.736H374.272L464.483 444.483L374.272 288.231H371.551V292.941L367.472 295.297L453.604 444.483L368.833 591.314H199.288L114.515 444.483L199.288 297.652H371.551V292.941L367.472 295.297L371.551 292.941Z" fill="#47A2DF" fill-opacity="0.34"/>
<path d="M97.0028 538.876L57.7041 602.135L81.3375 645.009L83.4007 643.871L60.4339 602.206L99.0048 540.117L97.0028 538.876Z" fill="#47A2DF" fill-opacity="0.34"/>
<path d="M101.299 506.504L36.438 610.911L58.041 649.729L60.0972 648.584L39.1701 610.977L103.301 507.745L101.299 506.504Z" fill="#47A2DF" fill-opacity="0.34"/>
<path d="M103.614 539.497C103.614 542.594 101.101 545.105 98.0034 545.105C94.9038 545.105 92.3931 542.594 92.3931 539.497C92.3931 536.398 94.9038 533.887 98.0034 533.887C101.101 533.887 103.614 536.398 103.614 539.497Z" fill="#47A2DF" fill-opacity="0.34"/>
<path d="M107.91 507.123C107.91 510.223 105.397 512.733 102.3 512.733C99.2027 512.733 96.6895 510.223 96.6895 507.123C96.6895 504.026 99.2027 501.515 102.3 501.515C105.397 501.515 107.91 504.026 107.91 507.123Z" fill="#47A2DF" fill-opacity="0.34"/>
<path d="M137.505 590.498C137.505 593.595 134.994 596.108 131.895 596.108C128.797 596.108 126.287 593.595 126.287 590.498C126.287 587.398 128.797 584.885 131.895 584.885C134.994 584.885 137.505 587.398 137.505 590.498Z" fill="#47A2DF" fill-opacity="0.34"/>
<path d="M25.2007 785.016C25.2007 788.114 22.6876 790.627 19.5904 790.627C16.4908 790.627 13.98 788.114 13.98 785.016C13.98 781.917 16.4908 779.407 19.5904 779.407C22.6876 779.407 25.2007 781.917 25.2007 785.016Z" fill="#47A2DF" fill-opacity="0.34"/>
<path d="M-7.13798 864.059L160.91 572.992L158.87 571.815L-9.17773 862.881" fill="#47A2DF" fill-opacity="0.34"/>
<path d="M20.61 785.605L132.914 591.086L130.875 589.908L18.5703 784.427" fill="#47A2DF" fill-opacity="0.34"/>
<path d="M-84.659 936.094L83.3889 645.028L81.3491 643.85L-86.6987 934.916" fill="#47A2DF" fill-opacity="0.34"/>
<path d="M-107.96 940.812L60.09 649.745L58.0503 648.568L-110 939.634" fill="#47A2DF" fill-opacity="0.34"/>
<path d="M295.668 653.055L260.592 717.181L213.019 717.685L213.045 720.04L261.996 719.522L297.735 654.185L295.668 653.055Z" fill="#47A2DF" fill-opacity="0.34"/>
<path d="M321.739 633.385L263.418 740.006L220.379 740.291L220.396 742.646L264.82 742.354L323.804 634.516L321.739 633.385Z" fill="#47A2DF" fill-opacity="0.34"/>
<path d="M293.941 648.733C291.244 650.259 290.293 653.681 291.819 656.381C293.343 659.077 296.765 660.027 299.462 658.503C302.161 656.976 303.113 653.554 301.587 650.86C300.063 648.16 296.64 647.209 293.941 648.733Z" fill="#47A2DF" fill-opacity="0.34"/>
<path d="M320.012 629.068C317.313 630.59 316.364 634.014 317.888 636.711C319.412 639.41 322.834 640.362 325.531 638.836C328.23 637.312 329.181 633.89 327.658 631.19C326.131 628.493 322.709 627.542 320.012 629.068Z" fill="#47A2DF" fill-opacity="0.34"/>
<path d="M232.867 644.319C230.168 645.845 229.219 649.268 230.741 651.967C232.267 654.664 235.689 655.613 238.386 654.089C241.085 652.563 242.034 649.14 240.513 646.446C238.986 643.747 235.564 642.795 232.867 644.319Z" fill="#47A2DF" fill-opacity="0.34"/>
<path d="M118.773 837.796C116.076 839.321 115.124 842.745 116.65 845.44C118.172 848.139 121.594 849.091 124.294 847.565C126.99 846.04 127.942 842.618 126.418 839.919C124.894 837.222 121.472 836.273 118.773 837.796Z" fill="#47A2DF" fill-opacity="0.34"/>
<path d="M67.8979 906.037L238.619 616.53L236.591 615.334L65.8677 904.841" fill="#47A2DF" fill-opacity="0.34"/>
<path d="M122.548 843.278L236.64 649.804L234.613 648.608L120.518 842.081" fill="#47A2DF" fill-opacity="0.34"/>
<path d="M43.3248 1008.97L214.046 719.461L212.018 718.264L41.2969 1007.77" fill="#47A2DF" fill-opacity="0.34"/>
<path d="M50.6803 1031.57L221.402 742.067L219.374 740.871L48.6523 1030.38" fill="#47A2DF" fill-opacity="0.34"/>
<path d="M471.229 350.173L510.527 286.914L486.894 244.04L484.831 245.178L507.8 286.843L469.227 348.932L471.229 350.173Z" fill="#47A2DF" fill-opacity="0.34"/>
<path d="M466.933 382.548L531.794 278.139L510.193 239.32L508.135 240.467L529.064 278.075L464.933 381.304L466.933 382.548Z" fill="#47A2DF" fill-opacity="0.34"/>
<path d="M464.617 349.555C464.617 346.455 467.13 343.944 470.228 343.944C473.327 343.944 475.84 346.455 475.84 349.555C475.84 352.652 473.327 355.165 470.228 355.165C467.13 355.165 464.617 352.652 464.617 349.555Z" fill="#47A2DF" fill-opacity="0.34"/>
<path d="M460.324 381.926C460.324 378.826 462.835 376.315 465.934 376.315C469.031 376.315 471.545 378.826 471.545 381.926C471.545 385.025 469.031 387.536 465.934 387.536C462.835 387.536 460.324 385.025 460.324 381.926Z" fill="#47A2DF" fill-opacity="0.34"/>
<path d="M430.725 298.552C430.725 295.455 433.238 292.941 436.335 292.941C439.437 292.941 441.948 295.455 441.948 298.552C441.948 301.651 439.437 304.165 436.335 304.165C433.238 304.165 430.725 301.651 430.725 298.552Z" fill="#47A2DF" fill-opacity="0.34"/>
<path d="M593.693 47.5767C593.693 44.4794 596.206 41.9663 599.303 41.9663C602.403 41.9663 604.914 44.4794 604.914 47.5767C604.914 50.6763 602.403 53.187 599.303 53.187C596.206 53.187 593.693 50.6763 593.693 47.5767Z" fill="#47A2DF" fill-opacity="0.34"/>
<path d="M272.562 235.995L307.64 171.866L355.212 171.364L355.189 169.009L306.236 169.527L270.496 234.864L272.562 235.995Z" fill="#47A2DF" fill-opacity="0.34"/>
<path d="M246.495 255.661L304.813 149.042L347.85 148.758L347.836 146.402L303.412 146.697L244.43 254.533L246.495 255.661Z" fill="#47A2DF" fill-opacity="0.34"/>
<path d="M274.29 240.314C276.987 238.79 277.939 235.368 276.415 232.671C274.889 229.974 271.466 229.022 268.769 230.546C266.07 232.07 265.121 235.493 266.645 238.192C268.171 240.889 271.593 241.84 274.29 240.314Z" fill="#47A2DF" fill-opacity="0.34"/>
<path d="M248.222 259.981C250.919 258.457 251.87 255.035 250.344 252.338C248.82 249.639 245.398 248.687 242.699 250.213C240.004 251.737 239.053 255.16 240.577 257.856C242.101 260.556 245.525 261.507 248.222 259.981Z" fill="#47A2DF" fill-opacity="0.34"/>
<path d="M122.511 348.827C125.21 347.303 126.159 343.878 124.633 341.181C123.111 338.485 119.689 337.533 116.99 339.057C114.293 340.581 113.341 344.005 114.865 346.702C116.389 349.401 119.814 350.351 122.511 348.827Z" fill="#47A2DF" fill-opacity="0.34"/>
<path d="M335.366 244.73C338.066 243.204 339.015 239.782 337.491 237.085C335.965 234.388 332.542 233.436 329.846 234.96C327.149 236.484 326.197 239.906 327.721 242.606C329.247 245.302 332.67 246.254 335.366 244.73Z" fill="#47A2DF" fill-opacity="0.34"/>
<path d="M472.374 73.2525C475.069 71.7286 476.02 68.3063 474.496 65.6095C472.97 62.9103 469.548 61.9587 466.851 63.485C464.154 65.0089 463.203 68.4312 464.726 71.128C466.253 73.8272 469.675 74.7764 472.374 73.2525Z" fill="#47A2DF" fill-opacity="0.34"/>
<path d="M527.025 10.4967C529.722 8.97042 530.674 5.54813 529.147 2.85128C527.626 0.15208 524.199 -0.797122 521.504 0.726774C518.805 2.25067 517.854 5.67295 519.38 8.37216C520.904 11.069 524.326 12.0206 527.025 10.4967Z" fill="#47A2DF" fill-opacity="0.34"/>
</svg>
