<svg width="1507" height="1058" viewBox="0 0 1507 1058" fill="none" xmlns="http://www.w3.org/2000/svg">
<path d="M1076.37 62.4957C1079.07 60.9718 1080.02 57.5495 1078.5 54.8527C1076.97 52.1534 1073.55 51.2019 1070.85 52.7281C1068.15 54.252 1067.2 57.6743 1068.73 60.3712C1070.25 63.0704 1073.68 64.0196 1076.37 62.4957Z" fill="#47A2DF" fill-opacity="0.34"/>
<path fill-rule="evenodd" clip-rule="evenodd" d="M1199.27 215.892C1210 172.532 1253.86 146.084 1297.22 156.821L1309.53 159.87C1352.89 170.607 1379.34 214.461 1368.61 257.822C1364.54 274.242 1354.56 287.647 1341.51 296.329L1339.75 293.688C1352.17 285.428 1361.66 272.68 1365.53 257.06C1375.84 215.399 1350.43 173.264 1308.77 162.949L1296.46 159.9C1254.8 149.584 1212.66 174.994 1202.35 216.655C1198.48 232.275 1200.92 247.976 1208.05 261.078L1205.27 262.594C1197.77 248.824 1195.2 232.312 1199.27 215.892Z" fill="#47A2DF" fill-opacity="0.2"/>
<path fill-rule="evenodd" clip-rule="evenodd" d="M1198.5 218.971C1205.87 189.214 1235.97 171.064 1265.73 178.432L1327.3 193.679C1357.06 201.047 1375.21 231.143 1367.84 260.901C1360.48 290.658 1330.38 308.809 1300.62 301.44L1239.04 286.193C1209.29 278.825 1191.14 248.729 1198.5 218.971ZM1264.96 181.511C1236.91 174.564 1208.53 191.677 1201.58 219.734C1194.64 247.791 1211.75 276.167 1239.81 283.114L1301.38 298.362C1329.44 305.309 1357.82 288.196 1364.76 260.139C1371.71 232.082 1354.6 203.705 1326.54 196.758L1264.96 181.511Z" fill="#47A2DF" fill-opacity="0.2"/>
<path fill-rule="evenodd" clip-rule="evenodd" d="M1207.74 221.258C1213.85 196.602 1238.78 181.563 1263.44 187.669L1325.02 202.916C1349.67 209.021 1364.71 233.958 1358.61 258.614C1352.5 283.27 1327.56 298.309 1302.91 292.204L1241.33 276.957C1216.67 270.851 1201.64 245.915 1207.74 221.258ZM1262.68 190.747C1239.72 185.063 1216.5 199.065 1210.82 222.021C1205.14 244.977 1219.14 268.194 1242.09 273.878L1303.67 289.125C1326.63 294.809 1349.84 280.807 1355.53 257.851C1361.21 234.896 1347.21 211.679 1324.25 205.995L1262.68 190.747Z" fill="#47A2DF" fill-opacity="0.2"/>
<path fill-rule="evenodd" clip-rule="evenodd" d="M1231.2 218.898C1233.73 208.695 1244.04 202.472 1254.25 204.998C1264.45 207.525 1270.67 217.843 1268.15 228.046L1265.1 240.362C1262.57 250.564 1252.25 256.787 1242.05 254.261C1231.85 251.735 1225.62 241.416 1228.15 231.213L1231.2 218.898ZM1253.48 208.077C1244.98 205.972 1236.38 211.158 1234.28 219.66L1231.23 231.976C1229.12 240.478 1234.31 249.077 1242.81 251.182C1251.31 253.287 1259.91 248.101 1262.02 239.599L1265.07 227.284C1267.17 218.781 1261.99 210.183 1253.48 208.077Z" fill="#47A2DF" fill-opacity="0.2"/>
<path fill-rule="evenodd" clip-rule="evenodd" d="M1263.79 407.077C1248.07 391.168 1230.71 392.925 1221.7 396.657C1220.48 397.164 1219.61 398.392 1219.42 399.913L1206.95 496.277C1206.71 498.138 1207.56 499.786 1209.01 500.418C1214.06 502.618 1220.67 503.802 1225.69 504.331C1227.6 504.534 1229.43 503.364 1230.17 501.451L1264.66 411.758C1265.3 410.097 1264.96 408.264 1263.79 407.077ZM1220.49 393.727C1230.42 389.612 1249.23 387.831 1266.04 404.847C1268.17 406.999 1268.67 410.178 1267.62 412.897L1233.13 502.59C1231.92 505.728 1228.82 507.851 1225.35 507.486C1220.23 506.944 1213.23 505.718 1207.74 503.326C1204.74 502.017 1203.43 498.828 1203.81 495.871L1216.27 399.506C1216.58 397.074 1218.03 394.746 1220.49 393.727Z" fill="#47A2DF" fill-opacity="0.2"/>
<path fill-rule="evenodd" clip-rule="evenodd" d="M1321.95 390.137C1327.76 386.487 1335 385.953 1341.28 388.712L1344.21 390.002C1353.47 394.068 1359.14 403.541 1358.36 413.62L1353.58 475.275C1353.46 476.811 1353.19 478.332 1352.78 479.816L1342.39 517.128C1341.21 521.369 1339.1 525.226 1336.37 527.689C1333.68 530.102 1330.42 531.176 1326.61 530.055C1324.4 529.404 1322.55 527.701 1321.18 525.376C1319.82 523.054 1319.02 520.24 1318.86 517.648L1312.31 408.895C1311.85 401.351 1315.55 394.159 1321.95 390.137ZM1342.55 385.808C1335.31 382.626 1326.96 383.241 1320.26 387.452C1312.88 392.09 1308.62 400.385 1309.14 409.086L1315.7 517.839C1315.88 520.894 1316.81 524.198 1318.44 526.982C1320.08 529.762 1322.5 532.151 1325.71 533.098C1330.74 534.577 1335.12 533.077 1338.49 530.047C1341.8 527.067 1344.15 522.612 1345.44 517.978L1355.83 480.667C1356.3 478.985 1356.61 477.261 1356.74 475.52L1361.52 413.866C1362.41 402.442 1355.98 391.706 1345.49 387.098L1342.55 385.808Z" fill="#47A2DF" fill-opacity="0.2"/>
<path fill-rule="evenodd" clip-rule="evenodd" d="M1346.7 404.376C1345.83 404.336 1345.09 405.013 1345.05 405.888L1342.32 465.063C1341.16 474.995 1337.6 488.624 1333.5 500.599C1333.22 501.428 1333.66 502.329 1334.49 502.613C1335.32 502.896 1336.22 502.454 1336.51 501.625C1340.64 489.521 1344.28 475.625 1345.47 465.375C1345.48 465.338 1345.48 465.301 1345.48 465.265L1348.21 406.034C1348.25 405.159 1347.58 404.417 1346.7 404.376Z" fill="#47A2DF" fill-opacity="0.2"/>
<path fill-rule="evenodd" clip-rule="evenodd" d="M1178.8 354.692C1175.36 348.753 1169.21 344.902 1162.36 344.413L1159.17 344.184C1149.08 343.462 1139.64 349.192 1135.63 358.472L1111.09 415.234C1110.48 416.648 1110.01 418.118 1109.68 419.624L1101.46 457.472C1100.53 461.774 1100.59 466.168 1101.86 469.624C1103.11 473.01 1105.49 475.484 1109.39 476.27C1111.65 476.726 1114.08 476.083 1116.37 474.663C1118.66 473.246 1120.68 471.13 1122.03 468.91L1178.57 375.781C1182.49 369.32 1182.58 361.235 1178.8 354.692ZM1162.59 341.249C1170.48 341.814 1177.58 346.255 1181.54 353.104C1185.9 360.651 1185.8 369.976 1181.28 377.427L1124.74 470.556C1123.15 473.172 1120.79 475.661 1118.04 477.36C1115.3 479.057 1112.05 480.042 1108.76 479.379C1103.62 478.342 1100.45 474.972 1098.88 470.72C1097.34 466.538 1097.34 461.499 1098.36 456.799L1106.58 418.951C1106.95 417.244 1107.49 415.578 1108.18 413.975L1132.72 357.213C1137.27 346.696 1147.97 340.202 1159.39 341.02L1162.59 341.249Z" fill="#47A2DF" fill-opacity="0.2"/>
<path fill-rule="evenodd" clip-rule="evenodd" d="M1150.26 355.735C1151.05 356.107 1151.39 357.052 1151.02 357.844L1125.82 411.456C1122.21 420.783 1119 434.497 1117.03 446.999C1116.9 447.864 1116.08 448.455 1115.22 448.319C1114.35 448.183 1113.76 447.371 1113.9 446.506C1115.89 433.869 1119.15 419.881 1122.88 410.259C1122.89 410.225 1122.91 410.191 1122.92 410.157L1148.15 356.495C1148.52 355.703 1149.46 355.362 1150.26 355.735Z" fill="#47A2DF" fill-opacity="0.2"/>
<path fill-rule="evenodd" clip-rule="evenodd" d="M1302.01 236.432C1304.54 226.229 1314.86 220.006 1325.06 222.533C1335.26 225.059 1341.49 235.378 1338.96 245.58L1335.91 257.896C1333.38 268.098 1323.07 274.321 1312.86 271.795C1302.66 269.269 1296.44 258.95 1298.96 248.747L1302.01 236.432ZM1324.3 225.612C1315.8 223.506 1307.2 228.692 1305.09 237.194L1302.04 249.51C1299.94 258.012 1305.12 266.611 1313.63 268.716C1322.13 270.821 1330.73 265.636 1332.83 257.133L1335.88 244.818C1337.99 236.316 1332.8 227.717 1324.3 225.612Z" fill="#47A2DF" fill-opacity="0.2"/>
<path fill-rule="evenodd" clip-rule="evenodd" d="M1217.33 274.249C1211.52 281.213 1207.17 289.567 1204.84 298.964L1197.22 329.753C1195.74 335.704 1199.37 341.723 1205.32 343.197L1303.85 367.592C1309.8 369.066 1315.82 365.436 1317.29 359.485L1324.92 328.696C1327.24 319.299 1327.29 309.876 1325.4 301.009L1328.5 300.349C1330.49 309.676 1330.44 319.585 1327.99 329.458L1320.37 360.247C1318.48 367.899 1310.74 372.566 1303.09 370.671L1204.56 346.276C1196.91 344.381 1192.24 336.642 1194.14 328.99L1201.76 298.201C1204.2 288.328 1208.79 279.543 1214.89 272.218L1217.33 274.249Z" fill="#47A2DF" fill-opacity="0.2"/>
<path fill-rule="evenodd" clip-rule="evenodd" d="M1175.72 350.572C1177.62 342.92 1185.36 338.253 1193.01 340.148L1316.16 370.642C1323.82 372.537 1328.48 380.276 1326.59 387.928L1323.51 387.165C1324.98 381.214 1321.35 375.194 1315.4 373.721L1192.25 343.227C1186.29 341.753 1180.27 345.383 1178.8 351.334L1175.72 350.572ZM1172.13 391.686C1173.5 417.569 1188.39 441.158 1211.38 453.449L1209.89 456.246C1185.91 443.43 1170.39 418.84 1168.96 391.853L1172.13 391.686ZM1247.04 462.279C1273.11 462.136 1297.3 448.223 1310.58 425.969L1313.31 427.595C1299.45 450.798 1274.25 465.302 1247.06 465.451L1247.04 462.279Z" fill="#47A2DF" fill-opacity="0.2"/>
<path fill-rule="evenodd" clip-rule="evenodd" d="M1292.57 296.249C1293.33 296.695 1293.58 297.667 1293.13 298.421L1286.14 310.248C1282.93 315.673 1276.54 318.351 1270.42 316.836L1258.57 313.902C1252.45 312.387 1248.05 307.038 1247.75 300.743L1247.08 287.018C1247.03 286.143 1247.71 285.4 1248.58 285.357C1249.46 285.314 1250.2 285.989 1250.25 286.864L1250.91 300.588C1251.15 305.485 1254.58 309.645 1259.34 310.824L1271.18 313.757C1275.94 314.935 1280.91 312.853 1283.41 308.633L1290.4 296.806C1290.85 296.053 1291.82 295.803 1292.57 296.249Z" fill="#47A2DF" fill-opacity="0.2"/>
<path fill-rule="evenodd" clip-rule="evenodd" d="M1378.98 242.56C1379.78 247.238 1379.49 253.468 1377.84 260.109C1376.2 266.75 1373.55 272.396 1370.66 276.159C1369.21 278.043 1367.75 279.393 1366.38 280.184C1365.03 280.97 1363.87 281.156 1362.89 280.914C1361.8 280.645 1360.76 279.8 1359.87 278.177C1359.44 277.409 1358.48 277.128 1357.71 277.549C1356.94 277.97 1356.66 278.934 1357.08 279.702C1358.24 281.811 1359.9 283.443 1362.13 283.993C1364.12 284.487 1366.13 283.997 1367.98 282.928C1369.81 281.864 1371.56 280.183 1373.17 278.092C1376.39 273.906 1379.2 267.834 1380.92 260.871C1382.65 253.909 1382.99 247.227 1382.1 242.024C1381.66 239.425 1380.89 237.119 1379.76 235.323C1378.63 233.519 1377.08 232.146 1375.09 231.651C1372.24 230.947 1369.4 232.227 1366.96 234.375C1366.31 234.954 1366.24 235.956 1366.82 236.613C1367.4 237.27 1368.41 237.333 1369.06 236.753C1371.15 234.915 1372.94 234.388 1374.32 234.73C1375.3 234.973 1376.24 235.68 1377.08 237.007C1377.91 238.343 1378.57 240.218 1378.98 242.56Z" fill="#47A2DF" fill-opacity="0.2"/>
<path fill-rule="evenodd" clip-rule="evenodd" d="M1197.22 197.555C1194.33 201.318 1191.67 206.965 1190.03 213.605C1188.39 220.246 1188.1 226.477 1188.9 231.155C1189.3 233.496 1189.96 235.372 1190.8 236.707C1191.63 238.034 1192.57 238.742 1193.55 238.984C1194.63 239.253 1195.95 238.994 1197.5 237.974C1198.23 237.491 1199.21 237.692 1199.7 238.423C1200.18 239.153 1199.98 240.137 1199.25 240.62C1197.24 241.946 1195.01 242.613 1192.79 242.063C1190.79 241.569 1189.24 240.196 1188.11 238.391C1186.98 236.596 1186.22 234.289 1185.77 231.69C1184.88 226.488 1185.23 219.806 1186.95 212.843C1188.67 205.88 1191.49 199.808 1194.7 195.623C1196.31 193.532 1198.06 191.85 1199.9 190.787C1201.74 189.718 1203.75 189.227 1205.75 189.722C1208.59 190.426 1210.51 192.884 1211.66 195.92C1211.97 196.739 1211.56 197.655 1210.74 197.965C1209.92 198.276 1209 197.864 1208.69 197.045C1207.71 194.447 1206.37 193.143 1204.98 192.801C1204.01 192.558 1202.84 192.744 1201.49 193.53C1200.12 194.321 1198.66 195.671 1197.22 197.555Z" fill="#47A2DF" fill-opacity="0.2"/>
<path fill-rule="evenodd" clip-rule="evenodd" d="M1374.7 233.191C1375.99 228.003 1373.4 222.767 1368.77 220.53L1367.39 223.386C1370.69 224.983 1372.54 228.726 1371.63 232.429L1374.7 233.191ZM1359.43 281.691C1358.38 285.942 1354.08 288.535 1349.82 287.482L1349.06 290.561C1355.01 292.035 1361.03 288.405 1362.51 282.453L1359.43 281.691Z" fill="#47A2DF" fill-opacity="0.2"/>
<path fill-rule="evenodd" clip-rule="evenodd" d="M1205.37 191.261C1206.65 186.073 1211.39 182.652 1216.52 182.833L1216.41 186.003C1212.74 185.873 1209.36 188.321 1208.44 192.024L1205.37 191.261ZM1196.25 241.286C1195.19 245.537 1197.79 249.837 1202.04 250.889L1201.28 253.968C1195.32 252.494 1191.69 246.475 1193.17 240.524L1196.25 241.286Z" fill="#47A2DF" fill-opacity="0.2"/>
<path fill-rule="evenodd" clip-rule="evenodd" d="M1337.94 294.842C1340.05 293.932 1342.61 293.914 1344.68 295.366C1350.97 299.783 1361.06 310.272 1365.58 322.784C1366.89 326.404 1368.33 329.829 1370.53 332.702L1374.96 338.496C1377.97 342.426 1379.84 347.109 1380.36 352.03L1382.6 373.074C1382.92 376.019 1382.91 379.556 1382.01 382.543C1381.11 385.558 1379.18 388.323 1375.52 388.912C1374.84 389.02 1374.13 389.06 1373.38 389.025C1369.91 388.859 1367.16 387.044 1365.08 384.658C1363.01 382.287 1361.52 379.266 1360.49 376.412L1353.56 357.126C1352.55 354.341 1351.04 351.768 1349.1 349.539L1328.83 326.303C1327.21 324.45 1326.59 321.998 1326.87 319.657C1327.1 317.825 1327.28 315.485 1327.14 313.403C1327.02 311.433 1326.55 308.536 1326.09 306.074C1325.87 304.856 1325.65 303.764 1325.49 302.978C1325.41 302.585 1325.34 302.269 1325.3 302.051L1325.25 301.801L1325.23 301.718L1324.95 300.442L1337.94 294.842ZM1328.59 302.325C1328.6 302.331 1328.6 302.337 1328.6 302.344C1328.76 303.144 1328.98 304.256 1329.21 305.499C1329.67 307.96 1330.17 311.023 1330.31 313.199C1330.46 315.567 1330.25 318.13 1330.02 320.04C1329.83 321.591 1330.26 323.117 1331.22 324.218L1351.49 347.453C1353.69 349.98 1355.41 352.896 1356.54 356.052L1363.48 375.338C1364.43 377.984 1365.76 380.607 1367.47 382.574C1369.17 384.527 1371.17 385.744 1373.53 385.856C1374.07 385.882 1374.57 385.852 1375.01 385.78C1377 385.46 1378.26 384.019 1378.97 381.632C1379.7 379.218 1379.74 376.157 1379.45 373.41L1377.21 352.366C1376.75 348.023 1375.1 343.892 1372.45 340.424L1368.01 334.63C1365.5 331.348 1363.93 327.532 1362.6 323.863C1358.34 312.092 1348.74 302.091 1342.86 297.962C1341.87 297.269 1340.51 297.187 1339.19 297.755L1328.59 302.325Z" fill="#47A2DF" fill-opacity="0.2"/>
<path fill-rule="evenodd" clip-rule="evenodd" d="M1209.12 262.946C1207.68 261.157 1205.42 259.943 1202.91 260.263C1195.29 261.235 1181.47 265.806 1171.63 274.759C1168.78 277.349 1165.91 279.709 1162.63 281.224L1156 284.279C1151.51 286.351 1147.67 289.621 1144.91 293.729L1133.11 311.296C1131.46 313.755 1129.81 316.888 1129.21 319.949C1128.61 323.036 1129.02 326.383 1131.99 328.612C1132.53 329.022 1133.14 329.389 1133.82 329.707C1136.97 331.183 1140.25 330.86 1143.2 329.72C1146.14 328.588 1148.87 326.612 1151.11 324.566L1166.24 310.745C1168.43 308.75 1170.96 307.18 1173.73 306.115L1202.5 295.022C1204.79 294.138 1206.48 292.26 1207.33 290.057C1207.98 288.332 1208.91 286.176 1210 284.398C1211.03 282.715 1212.8 280.372 1214.35 278.407C1215.12 277.434 1215.82 276.57 1216.33 275.949C1216.58 275.639 1216.79 275.39 1216.93 275.219L1217.1 275.023L1217.15 274.957L1217.99 273.958L1209.12 262.946ZM1213.89 273.923C1213.89 273.928 1213.88 273.933 1213.88 273.938C1213.36 274.57 1212.65 275.45 1211.86 276.442C1210.31 278.408 1208.44 280.881 1207.3 282.741C1206.06 284.763 1205.05 287.128 1204.36 288.926C1203.8 290.386 1202.72 291.537 1201.35 292.063L1172.58 303.156C1169.46 304.362 1166.58 306.141 1164.1 308.403L1148.97 322.224C1146.89 324.12 1144.5 325.821 1142.06 326.761C1139.64 327.694 1137.31 327.837 1135.17 326.834C1134.68 326.605 1134.26 326.35 1133.89 326.077C1132.28 324.865 1131.85 323.006 1132.33 320.56C1132.81 318.087 1134.2 315.359 1135.74 313.065L1147.54 295.498C1149.98 291.873 1153.36 288.988 1157.33 287.159L1163.95 284.104C1167.71 282.374 1170.88 279.73 1173.76 277.105C1183.02 268.682 1196.18 264.318 1203.31 263.409C1204.51 263.257 1205.75 263.819 1206.65 264.936L1213.89 273.923Z" fill="#47A2DF" fill-opacity="0.2"/>
<path fill-rule="evenodd" clip-rule="evenodd" d="M287.83 286.294C288.12 285.209 289.235 284.565 290.32 284.856L403.734 315.245C412.464 317.584 417.645 326.558 415.306 335.288C412.967 344.018 403.993 349.199 395.263 346.86L294.298 319.807C293.214 319.516 292.57 318.401 292.861 317.317C293.151 316.232 294.266 315.588 295.351 315.879L396.315 342.932C402.876 344.69 409.62 340.797 411.378 334.236C413.136 327.675 409.242 320.931 402.681 319.173L289.267 288.784C288.183 288.493 287.539 287.378 287.83 286.294Z" fill="#47A2DF" fill-opacity="0.2"/>
<path fill-rule="evenodd" clip-rule="evenodd" d="M180.838 315.209C181.632 316.003 181.632 317.29 180.838 318.084L96.8709 402.052C92.0517 406.871 92.0517 414.684 96.8709 419.503C101.69 424.323 109.504 424.323 114.323 419.503L189.329 344.497C190.123 343.703 191.41 343.703 192.204 344.497C192.998 345.291 192.998 346.579 192.204 347.373L117.198 422.379C110.791 428.786 100.403 428.786 93.9955 422.379C87.5882 415.972 87.5882 405.583 93.9955 399.176L177.963 315.209C178.757 314.415 180.044 314.415 180.838 315.209Z" fill="#47A2DF" fill-opacity="0.2"/>
<path fill-rule="evenodd" clip-rule="evenodd" d="M333.902 98.6975C340.218 92.382 350.457 92.382 356.773 98.6975C363.088 105.013 363.088 115.252 356.773 121.568L271.542 206.799C269.483 208.858 267.002 210.248 264.376 210.965C263.293 211.26 262.175 210.622 261.879 209.538C261.584 208.455 262.222 207.337 263.306 207.042C265.267 206.507 267.121 205.469 268.666 203.924L353.898 118.693C358.625 113.965 358.625 106.3 353.898 101.573C349.17 96.8454 341.505 96.8454 336.778 101.573L260.264 178.087C259.47 178.881 258.183 178.881 257.389 178.087C256.595 177.293 256.595 176.005 257.389 175.211L333.902 98.6975Z" fill="#47A2DF" fill-opacity="0.2"/>
<path fill-rule="evenodd" clip-rule="evenodd" d="M46.2131 179.427C39.6028 177.656 32.8082 181.578 31.037 188.189C29.2658 194.799 33.1886 201.594 39.7989 203.365L155.714 234.424C158.017 235.041 160.335 234.968 162.458 234.333C163.534 234.012 164.667 234.623 164.988 235.699C165.31 236.775 164.699 237.908 163.623 238.229C160.799 239.074 157.713 239.17 154.662 238.352L38.7465 207.293C29.9668 204.94 24.7566 195.916 27.1091 187.136C29.4616 178.357 38.486 173.146 47.2656 175.499L151.4 203.402C152.485 203.692 153.128 204.807 152.838 205.892C152.547 206.977 151.432 207.62 150.348 207.33L46.2131 179.427Z" fill="#47A2DF" fill-opacity="0.2"/>
<path fill-rule="evenodd" clip-rule="evenodd" d="M150.308 127.786C151.657 125.451 153.877 123.748 156.481 123.05L212.819 107.954C215.424 107.256 218.198 107.622 220.533 108.97L231.645 115.385C239.079 119.677 244.65 126.582 247.274 134.756L267.862 198.911C268.722 201.59 268.433 204.506 267.064 206.964L259.015 221.414C258.243 222.799 258.041 224.43 258.451 225.961L269.432 266.939C269.846 268.486 270.852 269.808 272.233 270.619L286.475 278.99C288.776 280.342 290.453 282.545 291.143 285.123L297.84 310.116C298.625 313.047 298.06 316.176 296.299 318.647L284.922 334.61C283.552 336.533 281.555 337.919 279.274 338.53L214.217 355.962C211.937 356.573 209.515 356.371 207.367 355.391L189.532 347.255C186.771 345.996 184.717 343.568 183.932 340.637L177.235 315.645C176.545 313.067 176.895 310.321 178.212 307.999L186.361 293.629C187.15 292.236 187.361 290.588 186.946 289.041L175.966 248.063C175.556 246.532 174.566 245.221 173.205 244.407L159.009 235.917C156.594 234.473 154.886 232.092 154.291 229.342L140.044 163.488C138.229 155.098 139.601 146.332 143.893 138.898L150.308 127.786ZM157.534 126.978C155.971 127.396 154.639 128.419 153.83 129.82L147.415 140.931C143.628 147.491 142.417 155.225 144.019 162.629L158.265 228.482C158.622 230.132 159.647 231.561 161.096 232.427L175.292 240.917C177.56 242.273 179.21 244.459 179.894 247.011L190.874 287.989C191.565 290.567 191.214 293.313 189.898 295.635L181.749 310.005C180.959 311.398 180.749 313.045 181.163 314.592L187.86 339.585C188.331 341.343 189.563 342.8 191.22 343.555L209.055 351.692C210.343 352.28 211.797 352.401 213.165 352.034L278.222 334.602C279.59 334.235 280.788 333.404 281.61 332.25L292.988 316.287C294.044 314.804 294.383 312.927 293.912 311.168L287.215 286.176C286.801 284.629 285.795 283.307 284.414 282.496L270.172 274.125C267.871 272.773 266.194 270.57 265.504 267.992L254.524 227.014C253.84 224.462 254.176 221.744 255.462 219.436L263.511 204.985C264.333 203.51 264.506 201.761 263.99 200.153L243.402 135.999C241.087 128.787 236.171 122.694 229.611 118.906L218.5 112.491C217.099 111.682 215.434 111.463 213.872 111.882L157.534 126.978Z" fill="#47A2DF" fill-opacity="0.2"/>
<path fill-rule="evenodd" clip-rule="evenodd" d="M208.624 338.517C207.752 335.263 209.683 331.918 212.937 331.046L267.927 316.312C271.181 315.44 274.525 317.371 275.397 320.625L279.607 336.336C279.898 337.421 279.254 338.536 278.169 338.827C277.085 339.117 275.97 338.474 275.679 337.389L271.469 321.677C271.179 320.593 270.064 319.949 268.979 320.24L213.989 334.974C212.905 335.265 212.261 336.38 212.551 337.464L216.761 353.176C217.052 354.261 216.408 355.375 215.324 355.666C214.239 355.957 213.124 355.313 212.833 354.228L208.624 338.517Z" fill="#47A2DF" fill-opacity="0.2"/>
<path fill-rule="evenodd" clip-rule="evenodd" d="M397.198 319.562C390.691 321.306 386.829 327.996 388.572 334.503C390.316 341.011 397.005 344.873 403.513 343.13C410.021 341.386 413.883 334.697 412.139 328.189C410.396 321.681 403.706 317.819 397.198 319.562ZM384.644 335.556C382.319 326.879 387.469 317.96 396.146 315.635C404.823 313.31 413.742 318.459 416.067 327.136C418.392 335.813 413.243 344.732 404.566 347.058C395.889 349.383 386.969 344.233 384.644 335.556Z" fill="#47A2DF" fill-opacity="0.2"/>
<path fill-rule="evenodd" clip-rule="evenodd" d="M102.609 398.498C96.1012 400.241 92.2392 406.931 93.9829 413.439C95.7267 419.946 102.416 423.809 108.924 422.065C115.432 420.321 119.294 413.632 117.55 407.124C115.806 400.616 109.117 396.754 102.609 398.498ZM90.0551 414.491C87.73 405.814 92.8795 396.895 101.557 394.57C110.234 392.245 119.153 397.394 121.478 406.071C123.803 414.748 118.654 423.668 109.976 425.993C101.299 428.318 92.3801 423.168 90.0551 414.491Z" fill="#47A2DF" fill-opacity="0.2"/>
<path fill-rule="evenodd" clip-rule="evenodd" d="M342.188 98.5493C335.68 100.293 331.818 106.982 333.562 113.49C335.306 119.998 341.995 123.86 348.503 122.116C355.011 120.373 358.873 113.683 357.129 107.175C355.385 100.668 348.696 96.8055 342.188 98.5493ZM329.634 114.543C327.309 105.866 332.459 96.9465 341.136 94.6214C349.813 92.2964 358.732 97.4458 361.057 106.123C363.382 114.8 358.233 123.719 349.556 126.044C340.878 128.369 331.959 123.22 329.634 114.543Z" fill="#47A2DF" fill-opacity="0.2"/>
<path fill-rule="evenodd" clip-rule="evenodd" d="M39.7429 179.589C33.235 181.333 29.373 188.022 31.1167 194.53C32.8605 201.038 39.5498 204.9 46.0577 203.156C52.5656 201.413 56.4277 194.723 54.6839 188.215C52.9401 181.707 46.2508 177.845 39.7429 179.589ZM27.1889 195.583C24.8638 186.905 30.0133 177.986 38.6905 175.661C47.3677 173.336 56.2867 178.486 58.6118 187.163C60.9368 195.84 55.7874 204.759 47.1102 207.084C38.433 209.409 29.5139 204.26 27.1889 195.583Z" fill="#47A2DF" fill-opacity="0.2"/>
<path fill-rule="evenodd" clip-rule="evenodd" d="M266.514 60.4841C272.322 66.5075 281.24 73.6988 291.589 81.1254C301.939 88.5521 311.578 94.6775 319.076 98.2032C322.843 99.9743 325.931 101.022 328.228 101.311C330.59 101.609 331.494 101.054 331.859 100.515C332.279 99.8937 332.486 98.5899 331.532 96.1307C330.613 93.7593 328.791 90.8137 326.114 87.478C320.779 80.8296 312.349 73.003 302.075 65.6307C291.802 58.2585 281.753 52.8238 273.848 49.9716C269.883 48.5406 266.569 47.8007 264.09 47.7333C261.519 47.6634 260.403 48.3146 259.982 48.9358C259.617 49.4751 259.425 50.5406 260.514 52.7188C261.573 54.838 263.596 57.4582 266.514 60.4841ZM256.946 54.5706C255.634 51.945 255.029 49.0021 256.679 46.565C258.272 44.2098 261.179 43.5352 264.158 43.6162C267.229 43.6997 270.991 44.5877 275.148 46.0877C283.489 49.0975 293.867 54.7374 304.354 62.263C314.841 69.7886 323.573 77.8624 329.203 84.8781C332.009 88.3744 334.12 91.7018 335.26 94.6394C336.365 97.4893 336.756 100.531 335.163 102.886C333.513 105.323 330.623 105.758 327.777 105.399C324.866 105.032 321.333 103.778 317.433 101.945C309.599 98.2609 299.722 91.9644 289.31 84.4932C278.899 77.022 269.743 69.6602 263.674 63.3668C260.654 60.2343 258.288 57.2552 256.946 54.5706Z" fill="#47A2DF" fill-opacity="0.2"/>
<path fill-rule="evenodd" clip-rule="evenodd" d="M421.266 165.148C415.434 159.148 406.489 151.993 396.112 144.608C385.734 137.223 376.072 131.137 368.56 127.642C364.787 125.886 361.695 124.851 359.397 124.571C357.035 124.283 356.132 124.841 355.769 125.382C355.351 126.005 355.15 127.31 356.113 129.766C357.042 132.133 358.875 135.072 361.564 138.396C366.925 145.023 375.385 152.816 385.687 160.146C395.988 167.477 406.058 172.871 413.972 175.691C417.943 177.106 421.26 177.832 423.739 177.889C426.31 177.949 427.424 177.293 427.842 176.67C428.205 176.129 428.393 175.062 427.296 172.889C426.228 170.774 424.195 168.162 421.266 165.148ZM430.856 171.023C432.178 173.644 432.794 176.584 431.155 179.028C429.571 181.389 426.667 182.076 423.688 182.007C420.617 181.936 416.851 181.063 412.689 179.58C404.337 176.604 393.937 171.006 383.421 163.523C372.905 156.04 364.143 148.002 358.486 141.009C355.667 137.523 353.542 134.204 352.392 131.271C351.275 128.426 350.872 125.386 352.456 123.024C354.096 120.581 356.984 120.134 359.832 120.481C362.744 120.836 366.282 122.076 370.188 123.894C378.037 127.545 387.938 133.802 398.377 141.231C408.817 148.66 418.001 155.985 424.094 162.254C427.126 165.374 429.504 168.344 430.856 171.023Z" fill="#47A2DF" fill-opacity="0.2"/>
<path fill-rule="evenodd" clip-rule="evenodd" d="M86.2453 108.786C84.2269 116.907 80.0994 127.594 74.8501 139.2C69.6008 150.806 64.3157 160.931 59.5846 167.733C57.2079 171.15 55.0576 173.601 53.2128 175.001C51.3165 176.439 50.2563 176.411 49.6706 176.126C48.9958 175.799 48.1648 174.773 47.7612 172.166C47.372 169.653 47.4766 166.191 48.1269 161.964C49.4231 153.539 52.8109 142.545 58.0218 131.024C63.2326 119.503 69.2182 109.772 74.6373 103.349C77.3562 100.127 79.8565 97.8294 81.9696 96.5315C84.1609 95.1857 85.4532 95.1915 86.1279 95.5193C86.7136 95.8039 87.4126 96.6306 87.5589 99.0613C87.7013 101.426 87.2592 104.707 86.2453 108.786ZM91.5745 98.8811C91.3982 95.9512 90.4505 93.1002 87.8036 91.8142C85.2458 90.5715 82.3914 91.4404 79.852 93.0001C77.2344 94.6078 74.42 97.2581 71.5701 100.635C65.8517 107.412 59.6835 117.486 54.3642 129.247C49.0449 141.008 45.52 152.366 44.1522 161.257C43.4706 165.687 43.3055 169.625 43.7877 172.738C44.2554 175.759 45.4369 178.589 47.9948 179.832C50.6417 181.118 53.3622 180.049 55.6479 178.315C57.985 176.542 60.4178 173.689 62.8782 170.152C67.8214 163.044 73.2269 152.653 78.5077 140.977C83.7885 129.301 88.037 118.348 90.1459 109.863C91.1955 105.64 91.7549 101.877 91.5745 98.8811Z" fill="#47A2DF" fill-opacity="0.2"/>
<path fill-rule="evenodd" clip-rule="evenodd" d="M4.55884 276.804C6.60887 268.693 10.7781 258.023 16.0729 246.439C21.3676 234.855 26.6923 224.753 31.4501 217.97C33.8402 214.563 36.0001 212.121 37.8504 210.73C39.7522 209.299 40.8125 209.331 41.3974 209.618C42.0712 209.949 42.8982 210.978 43.2917 213.586C43.6712 216.101 43.5531 219.562 42.8863 223.786C41.5573 232.206 38.1265 243.185 32.8706 254.684C27.6147 266.183 21.5909 275.889 16.1466 282.289C13.4151 285.499 10.9058 287.787 8.78757 289.076C6.5911 290.413 5.29864 290.402 4.62487 290.071C4.03994 289.784 3.34414 288.954 3.2073 286.523C3.07416 284.158 3.52898 280.879 4.55884 276.804ZM-0.808918 286.688C-0.643948 289.618 0.292729 292.473 2.93443 293.769C5.48729 295.022 8.34501 294.165 10.8907 292.616C13.5147 291.019 16.3397 288.38 19.2028 285.015C24.948 278.262 31.1557 268.214 36.5211 256.475C41.8864 244.737 45.4557 233.394 46.8581 224.509C47.557 220.082 47.7375 216.145 47.2674 213.03C46.8113 210.007 45.6407 207.173 43.0879 205.92C40.4462 204.623 37.7215 205.681 35.4288 207.405C33.0846 209.169 30.6406 212.011 28.1662 215.539C23.1951 222.625 17.7489 232.994 12.4224 244.648C7.09591 256.301 2.80453 267.237 0.662569 275.712C-0.403576 279.931 -0.977595 283.691 -0.808918 286.688Z" fill="#47A2DF" fill-opacity="0.2"/>
<path fill-rule="evenodd" clip-rule="evenodd" d="M357.012 413.932C359.03 405.811 363.157 395.124 368.407 383.518C373.656 371.912 378.941 361.787 383.672 354.985C386.049 351.568 388.199 349.117 390.044 347.717C391.94 346.279 393.001 346.307 393.586 346.592C394.261 346.919 395.092 347.945 395.496 350.552C395.885 353.065 395.78 356.527 395.13 360.754C393.834 369.179 390.446 380.173 385.235 391.694C380.024 403.215 374.039 412.946 368.62 419.369C365.901 422.591 363.4 424.889 361.287 426.186C359.096 427.532 357.804 427.527 357.129 427.199C356.543 426.914 355.844 426.087 355.698 423.657C355.556 421.292 355.998 418.011 357.012 413.932ZM351.682 423.837C351.859 426.767 352.806 429.618 355.453 430.904C358.011 432.147 360.865 431.278 363.405 429.718C366.022 428.11 368.837 425.46 371.687 422.083C377.405 415.306 383.573 405.232 388.893 393.471C394.212 381.71 397.737 370.352 399.105 361.462C399.786 357.031 399.951 353.093 399.469 349.98C399.001 346.959 397.82 344.129 395.262 342.886C392.615 341.601 389.895 342.669 387.609 344.403C385.272 346.176 382.839 349.029 380.379 352.566C375.435 359.674 370.03 370.065 364.749 381.741C359.468 393.417 355.22 404.371 353.111 412.855C352.061 417.078 351.502 420.841 351.682 423.837Z" fill="#47A2DF" fill-opacity="0.2"/>
<path fill-rule="evenodd" clip-rule="evenodd" d="M443.678 248.788C441.628 256.9 437.459 267.569 432.164 279.153C426.869 290.737 421.544 300.839 416.787 307.622C414.397 311.029 412.237 313.471 410.386 314.863C408.485 316.293 407.424 316.261 406.839 315.974C406.166 315.643 405.339 314.614 404.945 312.006C404.566 309.491 404.684 306.03 405.351 301.806C406.68 293.387 410.11 282.408 415.366 270.909C420.622 259.41 426.646 249.703 432.09 243.304C434.822 240.093 437.331 237.806 439.449 236.516C441.646 235.18 442.938 235.191 443.612 235.521C444.197 235.808 444.893 236.638 445.03 239.069C445.163 241.434 444.708 244.713 443.678 248.788ZM449.046 238.905C448.881 235.974 447.944 233.12 445.302 231.823C442.75 230.57 439.892 231.427 437.346 232.976C434.722 234.573 431.897 237.212 429.034 240.577C423.289 247.331 417.081 257.379 411.716 269.117C406.35 280.856 402.781 292.198 401.379 301.083C400.68 305.511 400.499 309.447 400.969 312.563C401.425 315.585 402.596 318.42 405.149 319.672C407.791 320.969 410.515 319.912 412.808 318.187C415.152 316.424 417.596 313.581 420.071 310.054C425.042 302.967 430.488 292.598 435.814 280.945C441.141 269.291 445.432 258.356 447.574 249.88C448.64 245.662 449.214 241.901 449.046 238.905Z" fill="#47A2DF" fill-opacity="0.2"/>
<path fill-rule="evenodd" clip-rule="evenodd" d="M184.598 460.13C178.79 454.107 169.872 446.916 159.523 439.489C149.174 432.062 139.534 425.937 132.036 422.411C128.269 420.64 125.181 419.593 122.884 419.303C120.523 419.006 119.618 419.56 119.253 420.099C118.833 420.721 118.626 422.024 119.58 424.484C120.5 426.855 122.321 429.801 124.998 433.136C130.333 439.785 138.764 447.611 149.037 454.984C159.31 462.356 169.36 467.791 177.264 470.643C181.23 472.074 184.544 472.814 187.023 472.881C189.593 472.951 190.71 472.3 191.13 471.679C191.495 471.139 191.687 470.074 190.598 467.896C189.539 465.776 187.516 463.156 184.598 460.13ZM194.166 466.044C195.478 468.669 196.083 471.612 194.434 474.049C192.84 476.405 189.934 477.079 186.955 476.998C183.884 476.915 180.121 476.027 175.965 474.527C167.624 471.517 157.245 465.877 146.758 458.351C136.271 450.826 127.539 442.752 121.909 435.736C119.104 432.24 116.992 428.913 115.853 425.975C114.747 423.125 114.356 420.084 115.95 417.729C117.599 415.291 120.489 414.857 123.336 415.215C126.246 415.582 129.779 416.836 133.679 418.67C141.514 422.353 151.391 428.65 161.802 436.121C172.213 443.592 181.369 450.954 187.438 457.248C190.458 460.38 192.824 463.359 194.166 466.044Z" fill="#47A2DF" fill-opacity="0.2"/>
<path fill-rule="evenodd" clip-rule="evenodd" d="M26.9707 360.445C32.8019 366.445 41.7472 373.6 52.1247 380.985C62.5021 388.37 72.1645 394.456 79.6762 397.951C83.4498 399.707 86.5412 400.742 88.8395 401.022C91.2017 401.31 92.1039 400.752 92.4669 400.211C92.8851 399.587 93.0866 398.282 92.1235 395.827C91.1946 393.459 89.3618 390.521 86.6722 387.196C81.3116 380.569 72.8511 372.777 62.5498 365.446C52.2484 358.116 42.1786 352.722 34.264 349.902C30.2929 348.487 26.9761 347.761 24.4971 347.703C21.9265 347.644 20.8127 348.299 20.3946 348.923C20.0315 349.464 19.8438 350.53 20.9408 352.704C22.0081 354.819 24.0413 357.431 26.9707 360.445ZM17.3804 354.57C16.0579 351.949 15.4419 349.009 17.0814 346.565C18.6658 344.204 21.5691 343.517 24.5485 343.586C27.6194 343.657 31.3852 344.529 35.5475 346.013C43.8996 348.988 54.2996 354.586 64.8153 362.069C75.3311 369.553 84.0936 377.591 89.7504 384.584C92.5696 388.069 94.6941 391.388 95.8448 394.321C96.9611 397.167 97.3644 400.207 95.7801 402.568C94.1405 405.012 91.2521 405.458 88.4044 405.111C85.4927 404.757 81.9548 403.517 78.0482 401.699C70.1997 398.047 60.2988 391.791 49.8591 384.362C39.4194 376.933 30.2352 369.608 24.1425 363.339C21.1099 360.219 18.7326 357.249 17.3804 354.57Z" fill="#47A2DF" fill-opacity="0.2"/>
<path fill-rule="evenodd" clip-rule="evenodd" d="M162.418 142.509C163.503 142.219 164.618 142.862 164.908 143.947L208.059 304.989C208.35 306.074 209.465 306.718 210.55 306.427L257.684 293.797C258.769 293.507 259.412 292.392 259.122 291.307L215.97 130.265C215.68 129.18 216.323 128.065 217.408 127.775C218.493 127.484 219.608 128.128 219.898 129.212L263.049 290.255C263.921 293.509 261.99 296.853 258.736 297.725L211.602 310.355C208.348 311.227 205.003 309.296 204.132 306.042L160.98 144.999C160.69 143.915 161.333 142.8 162.418 142.509Z" fill="#47A2DF" fill-opacity="0.2"/>
<path fill-rule="evenodd" clip-rule="evenodd" d="M117.256 389.295C116.468 388.495 116.479 387.208 117.279 386.42L167.251 337.246C167.68 336.824 168.274 336.614 168.874 336.672L186.164 338.354C187.282 338.463 188.1 339.457 187.991 340.574C187.882 341.692 186.888 342.51 185.77 342.401L169.426 340.811L120.131 389.319C119.331 390.106 118.043 390.096 117.256 389.295Z" fill="#47A2DF" fill-opacity="0.2"/>
<path fill-rule="evenodd" clip-rule="evenodd" d="M379.912 318.917C380.194 317.83 379.541 316.72 378.454 316.438L310.59 298.838C310.008 298.687 309.388 298.802 308.898 299.152L294.765 309.254C293.851 309.907 293.64 311.177 294.293 312.091C294.946 313.004 296.216 313.215 297.13 312.562L310.489 303.013L377.434 320.374C378.521 320.656 379.63 320.004 379.912 318.917Z" fill="#47A2DF" fill-opacity="0.2"/>
<path fill-rule="evenodd" clip-rule="evenodd" d="M67.7964 204.713C67.5145 205.8 68.1671 206.91 69.2541 207.192L137.118 224.791C137.701 224.943 138.321 224.828 138.811 224.477L152.943 214.376C153.857 213.723 154.068 212.453 153.415 211.539C152.762 210.626 151.492 210.415 150.579 211.068L137.219 220.617L70.2749 203.255C69.1879 202.974 68.0783 203.626 67.7964 204.713Z" fill="#47A2DF" fill-opacity="0.2"/>
<path fill-rule="evenodd" clip-rule="evenodd" d="M330.454 134.335C331.241 135.135 331.231 136.422 330.431 137.21L280.459 186.384C280.029 186.806 279.435 187.017 278.836 186.958L261.545 185.276C260.428 185.168 259.61 184.173 259.719 183.056C259.827 181.938 260.822 181.12 261.939 181.229L278.284 182.819L327.578 134.311C328.379 133.524 329.666 133.534 330.454 134.335Z" fill="#47A2DF" fill-opacity="0.2"/>
<path fill-rule="evenodd" clip-rule="evenodd" d="M1043.07 747.566C1045.11 742.338 1042.52 736.448 1037.29 734.409L1014.58 725.55C996.803 718.619 976.776 727.408 969.845 745.182L925.55 858.766C918.618 876.539 927.408 896.566 945.182 903.498L967.898 912.357C973.126 914.395 979.016 911.81 981.055 906.583L1043.07 747.566ZM1035.82 738.195C1038.95 739.419 1040.5 742.953 1039.28 746.089L977.269 905.106C976.045 908.243 972.511 909.794 969.375 908.571L946.658 899.712C930.975 893.596 923.22 875.925 929.336 860.242L973.631 746.659C979.747 730.976 997.418 723.221 1013.1 729.336L1035.82 738.195Z" fill="#47A2DF" fill-opacity="0.2"/>
<path fill-rule="evenodd" clip-rule="evenodd" d="M1342.17 864.209C1344.21 858.981 1350.1 856.396 1355.33 858.435L1378.04 867.294C1395.82 874.225 1404.61 894.252 1397.68 912.026L1353.38 1025.61C1346.45 1043.38 1326.42 1052.17 1308.65 1045.24L1285.93 1036.38C1280.7 1034.34 1278.12 1028.45 1280.16 1023.23L1342.17 864.209ZM1353.85 862.221C1350.71 860.998 1347.18 862.549 1345.96 865.685L1283.94 1024.7C1282.72 1027.84 1284.27 1031.37 1287.41 1032.6L1310.13 1041.46C1325.81 1047.57 1343.48 1039.82 1349.6 1024.13L1393.89 910.549C1400.01 894.867 1392.25 877.196 1376.57 871.08L1353.85 862.221Z" fill="#47A2DF" fill-opacity="0.2"/>
<path fill-rule="evenodd" clip-rule="evenodd" d="M1039.28 746.089C1041.32 740.862 1047.21 738.277 1052.44 740.315L1340.18 852.529C1345.41 854.567 1348 860.458 1345.96 865.685L1283.94 1024.7C1281.91 1029.93 1276.02 1032.51 1270.79 1030.48L983.043 918.263C977.815 916.224 975.23 910.334 977.269 905.106L1039.28 746.089ZM1050.96 744.101C1047.82 742.878 1044.29 744.429 1043.07 747.566L981.055 906.583C979.832 909.719 981.383 913.253 984.519 914.476L1272.26 1026.69C1275.4 1027.91 1278.93 1026.36 1280.16 1023.23L1342.17 864.209C1343.39 861.072 1341.84 857.538 1338.71 856.315L1050.96 744.101Z" fill="#47A2DF" fill-opacity="0.2"/>
<path fill-rule="evenodd" clip-rule="evenodd" d="M1043.9 756.614C1045.94 751.387 1051.83 748.802 1057.06 750.84L1329.66 857.148C1334.89 859.187 1337.47 865.077 1335.43 870.305L1279.33 1014.18C1277.29 1019.4 1271.4 1021.99 1266.17 1019.95L993.568 913.643C988.341 911.605 985.756 905.714 987.794 900.487L1043.9 756.614ZM1055.58 754.627C1052.44 753.403 1048.91 754.954 1047.69 758.091L991.58 901.963C990.357 905.1 991.908 908.634 995.045 909.857L1267.65 1016.16C1270.78 1017.39 1274.32 1015.84 1275.54 1012.7L1331.65 868.828C1332.87 865.692 1331.32 862.157 1328.18 860.934L1055.58 754.627Z" fill="#47A2DF" fill-opacity="0.2"/>
<path fill-rule="evenodd" clip-rule="evenodd" d="M1003.18 760.363C996.909 757.917 989.84 761.019 987.394 767.292C984.947 773.565 988.05 780.634 994.323 783.08C1000.6 785.527 1007.66 782.424 1010.11 776.151C1012.56 769.878 1009.45 762.81 1003.18 760.363ZM983.608 765.816C986.869 757.452 996.294 753.316 1004.66 756.577C1013.02 759.839 1017.16 769.264 1013.9 777.628C1010.63 785.992 1001.21 790.128 992.846 786.866C984.482 783.605 980.346 774.18 983.608 765.816Z" fill="#47A2DF" fill-opacity="0.2"/>
<path fill-rule="evenodd" clip-rule="evenodd" d="M1343.67 949.85C1337.4 947.404 1330.33 950.506 1327.88 956.779C1325.43 963.052 1328.54 970.12 1334.81 972.567C1341.08 975.013 1348.15 971.911 1350.6 965.638C1353.04 959.365 1349.94 952.296 1343.67 949.85ZM1324.09 955.302C1327.36 946.938 1336.78 942.802 1345.14 946.064C1353.51 949.326 1357.64 958.75 1354.38 967.114C1351.12 975.478 1341.7 979.615 1333.33 976.353C1324.97 973.091 1320.83 963.666 1324.09 955.302Z" fill="#47A2DF" fill-opacity="0.2"/>
<path fill-rule="evenodd" clip-rule="evenodd" d="M1319.85 988.544C1317.76 987.729 1315.41 988.763 1314.59 990.854C1313.78 992.945 1314.81 995.301 1316.9 996.117C1318.99 996.932 1321.35 995.898 1322.16 993.807C1322.98 991.716 1321.95 989.36 1319.85 988.544ZM1310.81 989.377C1312.44 985.195 1317.15 983.127 1321.33 984.758C1325.51 986.389 1327.58 991.101 1325.95 995.283C1324.32 999.465 1319.61 1001.53 1315.43 999.903C1311.24 998.272 1309.17 993.559 1310.81 989.377Z" fill="#47A2DF" fill-opacity="0.2"/>
<path fill-rule="evenodd" clip-rule="evenodd" d="M1358.47 872.746L1354.04 884.104L1350.25 882.628L1354.68 871.27L1358.47 872.746Z" fill="#47A2DF" fill-opacity="0.2"/>
<path fill-rule="evenodd" clip-rule="evenodd" d="M1029.91 753.34L1018.55 748.91L1020.03 745.124L1031.39 749.554L1029.91 753.34Z" fill="#47A2DF" fill-opacity="0.2"/>
<path fill-rule="evenodd" clip-rule="evenodd" d="M1359.3 881.795L1347.94 877.365L1349.42 873.579L1360.78 878.009L1359.3 881.795Z" fill="#47A2DF" fill-opacity="0.2"/>
<path fill-rule="evenodd" clip-rule="evenodd" d="M986.94 802.011C984.849 801.195 982.493 802.229 981.678 804.32C980.862 806.411 981.896 808.768 983.987 809.583C986.078 810.399 988.435 809.364 989.25 807.273C990.066 805.182 989.031 802.826 986.94 802.011ZM977.892 802.844C979.523 798.662 984.235 796.594 988.417 798.225C992.599 799.856 994.667 804.568 993.036 808.75C991.405 812.932 986.693 815 982.511 813.369C978.329 811.738 976.261 807.026 977.892 802.844Z" fill="#47A2DF" fill-opacity="0.2"/>
<path fill-rule="evenodd" clip-rule="evenodd" d="M965.89 811.249C963.799 810.434 961.443 811.468 960.628 813.559C959.812 815.65 960.846 818.006 962.937 818.822C965.028 819.637 967.384 818.603 968.2 816.512C969.015 814.421 967.981 812.065 965.89 811.249ZM956.841 812.082C958.472 807.9 963.185 805.832 967.367 807.463C971.549 809.094 973.617 813.806 971.986 817.988C970.355 822.17 965.643 824.239 961.461 822.608C957.279 820.977 955.211 816.265 956.841 812.082Z" fill="#47A2DF" fill-opacity="0.2"/>
<path fill-rule="evenodd" clip-rule="evenodd" d="M975.128 832.3C973.037 831.484 970.681 832.518 969.866 834.609C969.05 836.7 970.084 839.057 972.175 839.872C974.266 840.687 976.623 839.653 977.438 837.562C978.254 835.471 977.219 833.115 975.128 832.3ZM966.08 833.133C967.711 828.951 972.423 826.883 976.605 828.514C980.787 830.145 982.855 834.857 981.224 839.039C979.593 843.221 974.881 845.289 970.699 843.658C966.517 842.027 964.449 837.315 966.08 833.133Z" fill="#47A2DF" fill-opacity="0.2"/>
<path fill-rule="evenodd" clip-rule="evenodd" d="M996.179 823.061C994.088 822.246 991.732 823.28 990.916 825.371C990.101 827.462 991.135 829.818 993.226 830.633C995.317 831.449 997.673 830.415 998.488 828.324C999.304 826.233 998.27 823.877 996.179 823.061ZM987.13 823.894C988.761 819.712 993.473 817.644 997.655 819.275C1001.84 820.906 1003.91 825.618 1002.27 829.8C1000.64 833.982 995.931 836.05 991.749 834.42C987.567 832.789 985.499 828.076 987.13 823.894Z" fill="#47A2DF" fill-opacity="0.2"/>
<path fill-rule="evenodd" clip-rule="evenodd" d="M1365.82 893.058C1363.72 892.243 1361.37 893.277 1360.55 895.368C1359.74 897.459 1360.77 899.815 1362.86 900.63C1364.95 901.446 1367.31 900.412 1368.13 898.321C1368.94 896.23 1367.91 893.874 1365.82 893.058ZM1356.77 893.891C1358.4 889.709 1363.11 887.641 1367.29 889.272C1371.47 890.903 1373.54 895.615 1371.91 899.797C1370.28 903.979 1365.57 906.047 1361.39 904.417C1357.2 902.786 1355.14 898.073 1356.77 893.891Z" fill="#47A2DF" fill-opacity="0.2"/>
<path fill-rule="evenodd" clip-rule="evenodd" d="M1344.77 902.297C1342.67 901.481 1340.32 902.515 1339.5 904.606C1338.69 906.697 1339.72 909.054 1341.81 909.869C1343.9 910.684 1346.26 909.65 1347.07 907.559C1347.89 905.468 1346.86 903.112 1344.77 902.297ZM1335.72 903.13C1337.35 898.948 1342.06 896.88 1346.24 898.511C1350.42 900.141 1352.49 904.854 1350.86 909.036C1349.23 913.218 1344.52 915.286 1340.34 913.655C1336.15 912.024 1334.09 907.312 1335.72 903.13Z" fill="#47A2DF" fill-opacity="0.2"/>
<path fill-rule="evenodd" clip-rule="evenodd" d="M1354 923.347C1351.91 922.532 1349.56 923.566 1348.74 925.657C1347.93 927.748 1348.96 930.104 1351.05 930.919C1353.14 931.735 1355.5 930.701 1356.31 928.61C1357.13 926.519 1356.09 924.163 1354 923.347ZM1344.95 924.18C1346.59 919.998 1351.3 917.93 1355.48 919.561C1359.66 921.192 1361.73 925.904 1360.1 930.086C1358.47 934.268 1353.76 936.336 1349.57 934.705C1345.39 933.075 1343.32 928.362 1344.95 924.18Z" fill="#47A2DF" fill-opacity="0.2"/>
<path fill-rule="evenodd" clip-rule="evenodd" d="M1375.05 914.109C1372.96 913.293 1370.61 914.327 1369.79 916.418C1368.98 918.509 1370.01 920.866 1372.1 921.681C1374.19 922.496 1376.55 921.462 1377.36 919.371C1378.18 917.28 1377.15 914.924 1375.05 914.109ZM1366.01 914.942C1367.64 910.76 1372.35 908.692 1376.53 910.323C1380.71 911.954 1382.78 916.666 1381.15 920.848C1379.52 925.03 1374.81 927.098 1370.62 925.467C1366.44 923.836 1364.37 919.124 1366.01 914.942Z" fill="#47A2DF" fill-opacity="0.2"/>
<path fill-rule="evenodd" clip-rule="evenodd" d="M970.793 854.6C971.201 853.554 972.379 853.037 973.425 853.445L980.997 856.398C982.043 856.806 982.56 857.984 982.152 859.029L979.199 866.602C978.791 867.647 977.613 868.164 976.568 867.756L968.995 864.803C967.95 864.396 967.433 863.218 967.841 862.172L970.793 854.6ZM973.841 857.969L972.365 861.756L976.151 863.232L977.627 859.446L973.841 857.969Z" fill="#47A2DF" fill-opacity="0.2"/>
<path d="M965.374 331.496C968.069 329.972 969.02 326.55 967.496 323.853C965.97 321.153 962.548 320.202 959.851 321.728C957.154 323.252 956.203 326.674 957.726 329.371C959.253 332.07 962.675 333.02 965.374 331.496Z" fill="#47A2DF" fill-opacity="0.2"/>
<path d="M593.374 921.496C596.069 919.972 597.02 916.55 595.496 913.853C593.97 911.153 590.548 910.202 587.851 911.728C585.154 913.252 584.203 916.674 585.726 919.371C587.253 922.07 590.675 923.02 593.374 921.496Z" fill="#47A2DF" fill-opacity="0.2"/>
<path d="M198.374 897.496C201.069 895.972 202.02 892.55 200.496 889.853C198.97 887.153 195.548 886.202 192.851 887.728C190.154 889.252 189.203 892.674 190.726 895.371C192.253 898.07 195.675 899.02 198.374 897.496Z" fill="#47A2DF" fill-opacity="0.2"/>
<path d="M1439.37 865.496C1442.07 863.972 1443.02 860.55 1441.5 857.853C1439.97 855.153 1436.55 854.202 1433.85 855.728C1431.15 857.252 1430.2 860.674 1431.73 863.371C1433.25 866.07 1436.68 867.02 1439.37 865.496Z" fill="#47A2DF" fill-opacity="0.2"/>
<path d="M206.374 663.496C209.069 661.972 210.02 658.55 208.496 655.853C206.97 653.153 203.548 652.202 200.851 653.728C198.154 655.252 197.203 658.674 198.726 661.371C200.253 664.07 203.675 665.02 206.374 663.496Z" fill="#47A2DF" fill-opacity="0.2"/>
</svg>
