<svg width="24" height="24" viewBox="0 0 24 24" fill="none" xmlns="http://www.w3.org/2000/svg">
<path d="M17.8372 2.792H6.65564C5.62641 2.792 4.79205 3.62636 4.79205 4.65559V18.7924C4.79205 19.2867 4.9884 19.7607 5.33789 20.1102L5.57264 20.3449C6.17077 20.943 7.14052 20.943 7.73865 20.3449C8.20481 19.8787 8.91696 19.7632 9.50661 20.058L11.413 21.0112C11.9376 21.2735 12.5552 21.2735 13.0798 21.0112L15.1402 19.981C15.6648 19.7187 16.2824 19.7187 16.807 19.981L17.0038 20.0794C18.2429 20.699 19.7008 19.7979 19.7008 18.4126V4.65559C19.7008 3.62636 18.8664 2.792 17.8372 2.792Z" stroke="white" stroke-width="1.7" stroke-linecap="round"/>
<path d="M10.183 11.0449L10.6942 11.5561C10.9765 11.8384 11.4343 11.8384 11.7166 11.5561L14.2727 9" stroke="white" stroke-width="1.7" stroke-linecap="round"/>
<path d="M8.51923 15.8371H15.9736" stroke="white" stroke-width="1.7" stroke-linecap="round"/>
</svg>
