<svg width="658" height="758" viewBox="0 0 658 758" fill="none" xmlns="http://www.w3.org/2000/svg">
<path fill-rule="evenodd" clip-rule="evenodd" d="M257.342 608.843C258.425 610.419 258.025 612.575 256.449 613.659C247.648 619.707 236.824 621.288 227.24 620.91C217.646 620.532 208.824 618.174 203.635 615.831C203.552 615.794 203.471 615.753 203.392 615.709C159.935 591.816 63.5323 537.84 26.2628 513.439C7.40581 501.092 -3.25485 489.649 -8.77385 480.018C-14.2596 470.446 -14.8033 462.36 -12.6955 457.164C-11.9765 455.391 -9.95675 454.537 -8.18426 455.256C-6.41177 455.975 -5.55775 457.995 -6.27675 459.767C-7.31721 462.332 -7.60482 468.127 -2.76404 476.574C2.04352 484.963 11.78 495.677 30.0571 507.643C67.0208 531.845 163.016 585.603 206.606 609.572C210.956 611.51 218.829 613.646 227.513 613.989C236.288 614.335 245.421 612.833 252.526 607.95C254.102 606.867 256.258 607.267 257.342 608.843Z" fill="#47A2DF" fill-opacity="0.2"/>
<path fill-rule="evenodd" clip-rule="evenodd" d="M219.497 151.219C219.497 151.219 219.497 151.219 219.799 150.572L219.497 151.219L219.488 151.214C147.738 117.49 94.6668 105.446 55.4769 103.013C16.3428 100.582 -9.14255 107.717 -25.889 112.688C-26.1817 112.775 -26.4847 112.823 -26.7901 112.83C-34.9988 113.03 -45.2129 115.387 -55.1755 122.434C-68.8634 132.115 -74.5163 144.843 -79.5806 158.907C-79.6771 159.175 -79.8062 159.43 -79.9651 159.666C-89.4398 173.756 -104.439 195.08 -118.298 213.86C-125.227 223.249 -131.888 232.026 -137.442 238.956C-142.89 245.753 -147.534 251.112 -150.343 253.345C-162.459 262.971 -171.381 274.878 -175.267 281.608C-175.676 282.318 -176.096 283.022 -176.527 283.745C-179.315 288.421 -182.582 293.902 -186.783 307.013C-189.054 314.1 -189.663 319.465 -189.397 323.73C-189.132 327.964 -187.994 331.292 -186.514 334.322C-183.533 340.428 -179.839 345.903 -168.039 354.669C-163.313 358.181 -157.592 358.821 -152.352 358.341C-148.434 357.982 -145.13 357.046 -142.917 356.378C-134.9 328.542 -120.795 284.524 -74.435 226.527C-25.9941 165.926 28.7387 147.049 81.3773 148.258C133.751 149.461 183.797 170.543 223.134 189.217C238.009 196.278 268.113 213.383 297.916 230.806C327.906 247.905 357.771 265.422 371.324 274.774C407.192 299.523 448.841 331.732 475.251 376.2C501.778 420.863 512.776 477.626 487.851 550.984C473.415 593.471 457.793 619.317 443.14 637.203C435.824 646.133 428.792 653.026 422.37 658.962C420.403 660.78 418.515 662.489 416.703 664.13C413.096 667.396 409.788 670.392 406.748 673.437C407.484 675.721 408.871 679.471 411.023 683.363C414.002 688.75 418.168 693.906 423.624 696.266C437.117 702.102 443.705 702.564 450.483 702.093C453.847 701.859 457.299 701.181 461.098 699.293C464.924 697.391 469.266 694.181 474.268 688.671C483.522 678.477 486.635 672.907 489.29 668.155C489.701 667.42 490.101 666.705 490.511 665.995C494.397 659.265 500.247 645.584 502.526 630.279C503.055 626.73 505.374 620.028 508.537 611.912C511.761 603.637 516.032 593.479 520.698 582.784C530.033 561.393 541 537.741 548.465 522.49C548.59 522.235 548.746 521.995 548.93 521.778C558.578 510.36 566.774 499.101 568.314 482.406C569.435 470.255 566.37 460.23 562.439 453.022C562.292 452.753 562.182 452.467 562.111 452.17C558.057 435.242 550.753 409.151 528.692 376.232C506.605 343.275 469.629 303.331 406.053 258.927L406.406 258.416C406.05 258.925 406.053 258.927 406.053 258.927L405.947 258.853L405.632 258.634C405.351 258.439 404.93 258.148 404.375 257.765C403.264 257.001 401.612 255.871 399.459 254.416C395.153 251.506 388.839 247.295 380.822 242.101C364.787 231.711 341.945 217.391 314.732 201.68C287.518 185.968 263.696 173.346 246.681 164.654C238.174 160.308 231.37 156.946 226.697 154.672C224.36 153.534 222.556 152.669 221.339 152.089C220.73 151.8 220.267 151.581 219.958 151.435L219.61 151.272L219.497 151.219ZM249.832 158.486C266.931 167.22 290.86 179.899 318.195 195.681C345.531 211.463 368.475 225.847 384.589 236.287C392.646 241.508 398.998 245.744 403.338 248.677C405.508 250.143 407.175 251.284 408.302 252.06C408.865 252.447 409.293 252.744 409.582 252.944L409.908 253.171L410.014 253.244L410.019 253.248C474.16 298.047 511.796 338.578 534.446 372.376C556.931 405.927 564.552 432.704 568.742 450.116C573.129 458.327 576.455 469.566 575.212 483.042C573.482 501.793 564.223 514.382 554.499 525.92C547.086 541.083 536.267 564.426 527.047 585.554C522.398 596.209 518.168 606.273 514.991 614.427C511.752 622.739 509.769 628.672 509.377 631.299C506.955 647.567 500.776 662.07 496.51 669.458C496.112 670.147 495.719 670.85 495.31 671.581C492.579 676.465 489.173 682.557 479.397 693.326C473.956 699.321 468.946 703.127 464.18 705.496C459.386 707.878 455.005 708.722 450.963 709.003C442.929 709.561 435.236 708.836 420.874 702.624C413.342 699.366 408.227 692.62 404.962 686.715C401.657 680.739 399.964 675.108 399.5 673.351C399.19 672.181 399.515 670.934 400.354 670.062C403.945 666.337 407.99 662.674 412.249 658.817C414.024 657.21 415.837 655.569 417.668 653.876C423.967 648.054 430.746 641.402 437.782 632.813C451.834 615.661 467.083 590.576 481.292 548.756C505.575 477.289 494.774 422.636 469.295 379.737C443.7 336.642 403.138 305.141 367.39 280.475C354.13 271.326 324.54 253.959 294.469 236.814L294.436 236.795C264.552 219.325 234.718 202.383 220.164 195.474C180.899 176.835 132.007 156.349 81.2183 155.183C30.6941 154.023 -21.9613 171.975 -69.0244 230.852C-115.635 289.163 -128.993 332.892 -136.781 360.108C-137.114 361.273 -138.033 362.179 -139.203 362.497C-139.407 362.553 -139.708 362.645 -140.095 362.765C-142.147 363.397 -146.604 364.77 -151.719 365.239C-157.844 365.8 -165.536 365.158 -172.17 360.23C-184.73 350.898 -189.205 344.598 -192.739 337.362C-194.516 333.721 -195.976 329.504 -196.31 324.162C-196.642 318.85 -195.85 312.608 -193.379 304.899C-188.941 291.048 -185.368 285.052 -182.504 280.245C-182.076 279.526 -181.663 278.833 -181.265 278.144C-177 270.756 -167.53 258.153 -154.653 247.921C-152.573 246.269 -148.426 241.585 -142.847 234.624C-137.374 227.795 -130.774 219.1 -123.871 209.747C-110.183 191.198 -95.3773 170.157 -85.9517 156.155C-80.8221 141.966 -74.5487 127.652 -59.1754 116.779C-48.1265 108.964 -36.7305 106.225 -27.4258 105.919C-10.321 100.85 15.9498 93.6178 55.9062 96.0992C96.1456 98.5982 150.071 110.933 222.431 144.944C222.432 144.944 222.43 144.943 222.431 144.944L222.551 145L222.911 145.169C223.228 145.319 223.699 145.541 224.316 145.836C225.551 146.424 227.373 147.297 229.728 148.443C234.438 150.736 241.282 154.118 249.832 158.486Z" fill="#47A2DF" fill-opacity="0.2"/>
<path fill-rule="evenodd" clip-rule="evenodd" d="M168.251 393.051C169.208 391.395 171.326 390.827 172.982 391.784L220.972 419.491C222.629 420.447 223.196 422.565 222.24 424.222L197.996 466.213C197.04 467.869 194.922 468.437 193.265 467.481L145.275 439.774C143.619 438.817 143.051 436.699 144.008 435.042L168.251 393.051ZM172.518 399.514L151.738 435.506L193.729 459.75L214.51 423.758L172.518 399.514Z" fill="#47A2DF" fill-opacity="0.2"/>
<path fill-rule="evenodd" clip-rule="evenodd" d="M51.3529 153.251C232.213 229.408 416.895 352.894 486.005 404.57C486.488 404.931 486.868 405.412 487.108 405.965C510.79 460.504 501.985 519.604 481.515 568.893C461.072 618.114 428.712 658.239 404.253 674.979C403.416 675.552 402.369 675.729 401.39 675.463C349.66 661.421 259.944 617.954 114.812 534.162C-39.3214 445.173 -108.577 393.437 -142.296 362.113C-143.255 361.222 -143.63 359.867 -143.265 358.61C-124.09 292.604 -90.2183 241.256 -54.016 206.391C-17.9404 171.648 20.8671 152.9 50.0183 152.98C50.4767 152.981 50.9303 153.073 51.3529 153.251ZM49.3135 159.908C22.7733 160.133 -14.0545 177.522 -49.211 211.38C-84.1707 245.049 -117.074 294.641 -136.011 358.489C-102.288 389.429 -33.3392 440.629 118.276 528.164C262.036 611.164 350.665 654.131 401.648 668.35C424.587 652.016 455.413 613.679 475.118 566.236C495.063 518.212 503.333 461.539 481.117 409.565C411.773 357.818 228.621 235.521 49.3135 159.908Z" fill="#47A2DF" fill-opacity="0.2"/>
<path fill-rule="evenodd" clip-rule="evenodd" d="M222.861 284.61C226.687 277.984 235.16 275.713 241.786 279.539L283.777 303.783C290.403 307.608 292.673 316.081 288.848 322.707C285.022 329.333 276.549 331.603 269.923 327.778L227.932 303.534C221.306 299.708 219.036 291.236 222.861 284.61ZM238.322 285.538C235.009 283.625 230.773 284.76 228.86 288.073C226.947 291.386 228.082 295.622 231.395 297.535L273.387 321.779C276.7 323.692 280.936 322.557 282.849 319.244C284.762 315.931 283.626 311.694 280.313 309.781L238.322 285.538Z" fill="#47A2DF" fill-opacity="0.2"/>
<path fill-rule="evenodd" clip-rule="evenodd" d="M186.869 263.829C187.825 262.173 189.943 261.605 191.6 262.562L209.596 272.952C211.253 273.908 211.82 276.026 210.864 277.683C209.908 279.34 207.789 279.907 206.133 278.951L188.137 268.561C186.48 267.604 185.913 265.486 186.869 263.829Z" fill="#47A2DF" fill-opacity="0.2"/>
<path fill-rule="evenodd" clip-rule="evenodd" d="M300.845 329.634C301.801 327.977 303.92 327.41 305.576 328.366L323.572 338.756C325.229 339.713 325.796 341.831 324.84 343.487C323.884 345.144 321.765 345.711 320.109 344.755L302.113 334.365C300.456 333.408 299.889 331.29 300.845 329.634Z" fill="#47A2DF" fill-opacity="0.2"/>
<path fill-rule="evenodd" clip-rule="evenodd" d="M330.839 346.951C331.795 345.294 333.914 344.727 335.57 345.683L353.566 356.073C355.223 357.029 355.79 359.148 354.834 360.804C353.878 362.461 351.76 363.028 350.103 362.072L332.107 351.682C330.45 350.725 329.883 348.607 330.839 346.951Z" fill="#47A2DF" fill-opacity="0.2"/>
<path fill-rule="evenodd" clip-rule="evenodd" d="M156.875 246.513C157.831 244.856 159.949 244.289 161.606 245.245L179.602 255.635C181.259 256.591 181.826 258.71 180.87 260.366C179.913 262.023 177.795 262.59 176.139 261.634L158.142 251.244C156.486 250.287 155.918 248.169 156.875 246.513Z" fill="#47A2DF" fill-opacity="0.2"/>
</svg>
