<svg width="633" height="649" viewBox="0 0 633 649" fill="none" xmlns="http://www.w3.org/2000/svg">
<path fill-rule="evenodd" clip-rule="evenodd" d="M213.061 92.5411C239.988 95.7958 290.473 110.604 317.878 120.329C346.486 130.48 383.851 145.616 411.292 162.885C422.964 170.231 428.077 177.363 429.056 184.507C430.01 191.467 426.85 197.569 424.434 202.193C414.826 220.578 402.756 242.432 388.99 267.358L388.949 267.432C381.759 280.451 372.572 288.043 362.792 291.511C353.048 294.967 343.018 294.223 334.285 291.124L186.536 238.693C175.118 234.642 167.287 228.612 162.631 221.385C157.968 214.147 156.66 205.969 157.833 197.959C160.093 182.527 164.117 158.059 168.636 130.585C169.291 126.602 169.956 122.557 170.628 118.466C172.898 104.648 177.938 96.9621 185.97 93.5554C189.825 91.92 194.114 91.3926 198.604 91.3934C203.087 91.3942 207.973 91.9261 213.061 92.5411ZM315.878 125.964C288.561 116.27 238.587 101.65 212.342 98.4773C207.235 97.86 202.68 97.3734 198.6 97.3727C194.527 97.3719 191.13 97.86 188.3 99.0603C182.961 101.325 178.634 106.592 176.525 119.433C175.853 123.526 175.188 127.572 174.533 131.553C170.012 159.042 165.998 183.448 163.746 198.823C162.754 205.597 163.875 212.277 167.655 218.144C171.441 224.022 178.065 229.342 188.536 233.058L336.285 285.488C343.968 288.215 352.569 288.794 360.798 285.876C368.991 282.97 377.12 276.489 383.719 264.542L383.732 264.519C397.52 239.552 409.563 217.748 419.138 199.424C421.665 194.589 423.794 190.127 423.135 185.322C422.502 180.699 419.1 174.865 408.108 167.947C381.244 151.041 344.386 136.08 315.878 125.964Z" fill="#47A2DF" fill-opacity="0.2"/>
<path fill-rule="evenodd" clip-rule="evenodd" d="M126.973 68.5265C152.386 74.4243 175.715 82.2293 189.475 87.638C190.861 88.1828 191.634 89.6656 191.287 91.1149C190.941 92.5642 189.581 93.5375 188.098 93.397C185.116 93.1146 182.142 95.2975 179.383 99.7783C176.764 104.032 174.989 109.374 174.171 113.026C172.703 123.07 168.354 150.465 162.529 180.858C156.505 212.293 136.924 229.069 127.373 233.656L127.365 233.66C114.608 239.786 101.379 246.14 80.8822 260.548C60.0163 275.216 24.4714 312.282 -8.6872 348.962C-33.5986 376.519 -56.9607 403.626 -71.4602 420.45C-76.2117 425.963 -80.0115 430.372 -82.6021 433.33C-82.6565 433.392 -82.7134 433.452 -82.7727 433.509C-83.0015 433.731 -83.25 433.98 -83.5186 434.249C-84.393 435.126 -85.4794 436.216 -86.7862 437.245L-70.0532 445.86C-66.9911 446.921 -64.4575 447.151 -62.1303 446.769C-59.736 446.375 -57.3213 445.293 -54.5875 443.38C-49.8595 440.071 -44.7183 434.702 -37.5821 427.25C-36.2091 425.816 -34.7621 424.305 -33.2301 422.717C-21.1131 410.155 -7.78529 394.704 3.74166 381.342L4.74242 380.181C10.6043 373.387 15.9764 367.171 20.4151 362.255C24.7816 357.419 28.4508 353.603 30.8425 351.804C36.9043 347.245 45.7709 340.623 57.8637 338.062C70.0262 335.486 85.0678 337.081 103.496 348.016L329.153 428.093C346.343 429.787 359.6 436.644 368.763 447.29C377.96 457.973 382.821 472.222 383.669 488.266C384.647 506.762 384.621 520.306 384.509 533.225C384.499 534.45 384.487 535.668 384.476 536.885C384.369 548.493 384.263 559.894 384.832 574.378C384.891 575.881 384.936 577.373 384.981 578.848C385.211 586.477 385.427 593.667 387.513 599.807C388.719 603.361 390.521 606.42 393.251 608.882C395.972 611.336 399.776 613.343 405.217 614.549L421.023 617.304C420.682 615.739 420.531 614.266 420.409 613.074C420.371 612.695 420.335 612.345 420.297 612.029C420.287 611.947 420.28 611.865 420.277 611.783C420.131 607.853 419.96 602.036 419.747 594.762C419.095 572.562 418.046 536.791 416.077 499.695C413.456 450.318 409.227 399.137 402.274 374.598C395.445 350.493 389.179 337.221 383.138 324.424L383.134 324.416C378.611 314.834 373.985 289.468 389.123 261.268C403.759 234.001 417.651 209.993 422.843 201.27C424.51 197.919 426.499 192.654 427.147 187.7C427.829 182.482 426.897 178.913 424.404 177.253C423.164 176.427 422.722 174.814 423.367 173.471C424.011 172.127 425.546 171.464 426.965 171.914C441.056 176.388 464.087 185.035 487.533 196.476C510.928 207.891 535.002 222.214 550.966 238.115C551.422 238.57 551.719 239.16 551.813 239.798C556.712 273.069 562.066 362.262 544.48 454.023C533.493 511.356 517.674 553.839 500.385 582.586C483.187 611.182 464.155 626.781 446.499 629.006C435.056 630.447 428.254 628.6 424.42 624.366C424.279 624.211 424.144 624.054 424.014 623.895L404.123 620.428C404.08 620.42 404.037 620.412 403.994 620.402C397.705 619.019 392.886 616.605 389.249 613.324C385.609 610.041 383.316 606.039 381.854 601.733C379.452 594.661 379.214 586.387 378.995 578.784C378.954 577.367 378.914 575.974 378.86 574.615C378.285 559.979 378.392 548.441 378.5 536.836C378.511 535.618 378.523 534.399 378.533 533.176C378.644 520.306 378.67 506.901 377.701 488.585C376.905 473.525 372.371 460.645 364.234 451.193C356.131 441.779 344.243 435.514 328.22 434.01C327.974 433.987 327.732 433.934 327.5 433.851L101.219 353.553C101.034 353.487 100.856 353.403 100.687 353.303C83.2445 342.889 69.6422 341.679 59.0988 343.912C48.4295 346.171 40.4986 352.02 34.4322 356.583C32.5856 357.972 29.3057 361.326 24.849 366.262C20.4644 371.118 15.1389 377.279 9.2657 384.087L8.21782 385.302C-3.27413 398.624 -16.6958 414.184 -28.9307 426.868C-30.396 428.387 -31.8013 429.856 -33.1538 431.27C-40.2582 438.696 -45.9074 444.601 -51.1637 448.279C-54.3771 450.528 -57.6237 452.087 -61.1636 452.669C-64.7241 453.254 -68.3429 452.813 -72.2374 451.431C-72.3636 451.386 -72.4866 451.333 -72.6056 451.271L-93.5986 440.464C-93.649 440.472 -93.6995 440.48 -93.7502 440.488C-99.3955 441.357 -105.84 438.504 -113.815 430.172C-126.12 417.316 -131.062 393.209 -126.387 360.169C-121.688 326.954 -107.19 284.003 -79.58 232.568C-35.3908 150.248 24.9876 84.3808 49.7633 61.6395C50.2381 61.2038 50.8408 60.9331 51.4817 60.8679C73.8979 58.5865 101.616 62.6419 126.973 68.5265ZM-93.8502 434.405C-93.9088 434.418 -93.9667 434.434 -94.0243 434.451C-94.2305 434.502 -94.4411 434.545 -94.6566 434.578C-97.3498 434.993 -101.943 433.929 -109.498 426.035C-119.86 415.208 -125.066 393.488 -120.47 361.005C-115.899 328.697 -101.71 286.429 -74.3154 235.396C-30.9316 154.576 28.2438 89.7121 53.0691 66.7208C74.329 64.7551 100.838 68.6001 125.62 74.3513C146.492 79.195 165.941 85.3431 179.669 90.33C177.481 92.0695 175.695 94.3714 174.296 96.6433C171.197 101.676 169.214 107.761 168.313 111.841C168.297 111.912 168.284 111.983 168.273 112.054C166.833 121.927 162.488 149.323 156.66 179.735C151.01 209.216 132.716 224.459 124.789 228.266C111.915 234.448 98.3439 240.967 77.448 255.656C55.9222 270.788 19.908 308.419 -13.1186 344.952C-38.0875 372.573 -61.5536 399.8 -76.044 416.614C-80.7193 422.038 -84.4602 426.379 -87.0157 429.299C-87.2752 429.55 -87.5287 429.799 -87.7777 430.043C-89.8342 432.06 -91.5822 433.775 -93.8502 434.405ZM428.264 619.609C428.439 619.865 428.633 620.112 428.849 620.35C430.678 622.369 434.914 624.439 445.755 623.073C460.624 621.2 478.356 607.619 495.265 579.505C512.081 551.543 527.709 509.786 538.611 452.9C555.876 362.811 550.824 275.156 546.044 241.659C530.779 226.731 507.775 213.006 484.912 201.85C465.656 192.454 446.682 184.967 432.881 180.185C433.483 182.914 433.419 185.828 433.073 188.473C432.307 194.333 430.01 200.307 428.138 204.043C428.122 204.074 428.106 204.105 428.089 204.136C428.071 204.169 428.053 204.201 428.033 204.233C422.929 212.805 409.032 236.812 394.387 264.095C380.19 290.543 384.784 313.908 388.538 321.86C394.635 334.775 401.061 348.39 408.024 372.965C415.197 398.28 419.434 450.195 422.045 499.375C424.018 536.556 425.072 572.484 425.723 594.671C425.933 601.83 426.101 607.558 426.245 611.435C426.288 611.794 426.328 612.147 426.367 612.493C426.675 615.208 426.939 617.536 428.129 619.405C428.177 619.471 428.222 619.539 428.264 619.609Z" fill="#47A2DF" fill-opacity="0.2"/>
<path fill-rule="evenodd" clip-rule="evenodd" d="M489.387 244.642C481.612 241.882 473.07 245.953 470.309 253.734C467.547 261.515 471.613 270.06 479.388 272.819C487.164 275.578 495.706 271.508 498.467 263.727C501.228 255.946 497.163 247.401 489.387 244.642ZM464.677 251.736C468.543 240.843 480.501 235.143 491.387 239.006C502.273 242.869 507.964 254.832 504.099 265.725C500.233 276.618 488.274 282.318 477.388 278.455C466.502 274.592 460.811 262.629 464.677 251.736Z" fill="#47A2DF" fill-opacity="0.2"/>
<path fill-rule="evenodd" clip-rule="evenodd" d="M457.39 334.809C449.614 332.05 441.073 336.121 438.312 343.902C435.55 351.683 439.615 360.227 447.391 362.986C455.167 365.746 463.709 361.675 466.47 353.894C469.231 346.113 465.166 337.568 457.39 334.809ZM432.68 341.903C436.545 331.01 448.504 325.311 459.39 329.174C470.276 333.037 475.967 344.999 472.101 355.892C468.236 366.786 456.277 372.485 445.391 368.622C434.505 364.759 428.814 352.797 432.68 341.903Z" fill="#47A2DF" fill-opacity="0.2"/>
<path fill-rule="evenodd" clip-rule="evenodd" d="M428.335 273.738C420.56 270.978 412.018 275.049 409.257 282.83C406.496 290.611 410.561 299.156 418.336 301.915C426.112 304.674 434.654 300.603 437.415 292.823C440.176 285.042 436.111 276.497 428.335 273.738ZM403.625 280.832C407.491 269.938 419.449 264.239 430.335 268.102C441.221 271.965 446.912 283.928 443.047 294.821C439.181 305.714 427.223 311.414 416.337 307.551C405.451 303.688 399.76 291.725 403.625 280.832Z" fill="#47A2DF" fill-opacity="0.2"/>
<path fill-rule="evenodd" clip-rule="evenodd" d="M356.469 324.377C334.697 316.651 310.78 328.049 303.049 349.836C295.317 371.622 306.7 395.547 328.472 403.273C350.244 410.999 374.161 399.601 381.892 377.814C389.623 356.027 378.241 332.103 356.469 324.377ZM297.417 347.837C306.253 322.938 333.587 309.911 358.469 318.741C383.351 327.571 396.359 354.913 387.524 379.812C378.688 404.711 351.354 417.738 326.472 408.909C301.59 400.079 288.581 372.736 297.417 347.837Z" fill="#47A2DF" fill-opacity="0.2"/>
<path fill-rule="evenodd" clip-rule="evenodd" d="M148.098 250.434C126.326 242.708 102.409 254.106 94.6776 275.893C86.9464 297.68 98.3286 321.604 120.101 329.33C141.872 337.056 165.79 325.658 173.521 303.871C181.252 282.085 169.87 258.16 148.098 250.434ZM89.046 273.894C97.8817 248.995 125.215 235.969 150.098 244.798C174.98 253.628 187.988 280.971 179.152 305.87C170.317 330.769 142.983 343.796 118.101 334.966C93.2185 326.136 80.2103 298.793 89.046 273.894Z" fill="#47A2DF" fill-opacity="0.2"/>
<path fill-rule="evenodd" clip-rule="evenodd" d="M144.098 261.705C128.547 256.186 111.463 264.328 105.941 279.89C100.419 295.452 108.549 312.541 124.1 318.059C139.652 323.578 156.735 315.436 162.257 299.874C167.78 284.312 159.65 267.223 144.098 261.705ZM100.309 277.891C106.936 259.217 127.436 249.447 146.098 256.069C164.76 262.691 174.516 283.198 167.889 301.873C161.262 320.547 140.762 330.317 122.1 323.695C103.439 317.072 93.6825 296.565 100.309 277.891Z" fill="#47A2DF" fill-opacity="0.2"/>
<path fill-rule="evenodd" clip-rule="evenodd" d="M352.469 335.648C336.918 330.129 319.834 338.271 314.312 353.833C308.79 369.395 316.92 386.484 332.471 392.002C348.023 397.521 365.106 389.379 370.629 373.817C376.151 358.255 368.021 341.166 352.469 335.648ZM308.68 351.834C315.307 333.16 335.807 323.39 354.469 330.012C373.131 336.634 382.887 357.141 376.26 375.816C369.633 394.49 349.133 404.26 330.471 397.638C311.81 391.015 302.054 370.508 308.68 351.834Z" fill="#47A2DF" fill-opacity="0.2"/>
<path fill-rule="evenodd" clip-rule="evenodd" d="M539.202 219.117L537.454 224.045C512.923 205.81 482.519 192.11 467.08 186.312L470.429 176.876C486.938 178.718 501.748 185.961 513.719 194.521C525.484 202.934 534.347 212.506 539.202 219.117ZM517.195 189.655C504.105 180.295 487.461 172.211 468.634 170.697C467.285 170.589 466.031 171.401 465.578 172.678L460.458 187.105C459.906 188.661 460.719 190.37 462.274 190.922C476.823 196.084 511.161 211.109 537.066 231.261C537.824 231.85 538.818 232.039 539.739 231.77C540.66 231.5 541.396 230.804 541.717 229.899L545.356 219.643C545.679 218.733 545.543 217.723 544.991 216.932C539.993 209.769 530.279 199.011 517.195 189.655Z" fill="#47A2DF" fill-opacity="0.2"/>
<path fill-rule="evenodd" clip-rule="evenodd" d="M70.593 52.8252L68.8443 57.7531C99.3817 59.0598 131.62 67.5894 147.26 72.8205L150.609 63.3838C136.632 54.408 120.569 50.6952 105.88 49.7945C91.4433 48.9092 78.5292 50.7538 70.593 52.8252ZM106.249 43.8264C122.311 44.8113 140.327 49.0264 155.897 59.7186C157.013 60.4849 157.474 61.9064 157.021 63.1829L151.902 77.6096C151.349 79.1658 149.641 79.98 148.086 79.4282C133.538 74.2655 97.4096 64.2845 64.5963 63.5993C63.637 63.5793 62.7459 63.0995 62.2008 62.3097C61.6557 61.5198 61.523 60.5159 61.8441 59.6111L65.4838 49.3546C65.8067 48.4447 66.5489 47.7465 67.4766 47.4802C75.8711 45.0702 90.1933 42.8419 106.249 43.8264Z" fill="#47A2DF" fill-opacity="0.2"/>
<path fill-rule="evenodd" clip-rule="evenodd" d="M518.442 305.713C510.666 302.954 502.124 307.025 499.363 314.806C496.602 322.587 500.667 331.131 508.443 333.89C516.219 336.65 524.76 332.579 527.522 324.798C530.283 317.017 526.218 308.472 518.442 305.713ZM493.732 312.807C497.597 301.914 509.556 296.215 520.442 300.078C531.328 303.941 537.019 315.903 533.153 326.796C529.288 337.69 517.329 343.389 506.443 339.526C495.557 335.663 489.866 323.7 493.732 312.807Z" fill="#47A2DF" fill-opacity="0.2"/>
<path fill-rule="evenodd" clip-rule="evenodd" d="M207.575 350.854C208.128 349.298 209.836 348.484 211.391 349.035L245.181 361.026C246.736 361.578 247.549 363.287 246.997 364.843C246.445 366.399 244.736 367.213 243.181 366.662L209.391 354.671C207.836 354.119 207.023 352.41 207.575 350.854Z" fill="#47A2DF" fill-opacity="0.2"/>
<path fill-rule="evenodd" clip-rule="evenodd" d="M67.9878 187.87C67.2967 186.288 65.4131 185.62 63.8793 186.413L48.3497 194.438C47.6751 194.787 47.1583 195.379 46.9043 196.095L40.0958 215.281C39.5436 216.837 40.3566 218.546 41.9117 219.098L64.4383 227.092C65.9935 227.644 67.7018 226.83 68.2541 225.273L75.0625 206.087C75.3165 205.371 75.2888 204.586 74.9848 203.89L67.9878 187.87ZM61.1385 181.1C65.74 178.722 71.3908 180.727 73.464 185.474L80.4611 201.493C81.3729 203.581 81.4563 205.938 80.6942 208.086L73.8857 227.272C72.229 231.94 67.1039 234.383 62.4385 232.727L39.9119 224.734C35.2465 223.078 32.8074 217.951 34.4641 213.283L41.2726 194.096C42.0347 191.949 43.5851 190.172 45.609 189.126L61.1385 181.1Z" fill="#47A2DF" fill-opacity="0.2"/>
<path fill-rule="evenodd" clip-rule="evenodd" d="M76.3594 151.245C77.0505 152.827 78.9341 153.496 80.4679 152.703L95.9975 144.678C96.6721 144.329 97.1889 143.737 97.4429 143.021L104.251 123.835C104.804 122.278 103.991 120.57 102.435 120.018L79.9088 112.024C78.3537 111.472 76.6453 112.286 76.0931 113.842L69.2846 133.029C69.0306 133.744 69.0584 134.53 69.3623 135.226L76.3594 151.245ZM83.2086 158.015C78.6072 160.393 72.9564 158.388 70.8831 153.642L63.8861 137.622C62.9742 135.535 62.8909 133.178 63.653 131.03L70.4614 111.844C72.1181 107.175 77.2432 104.733 81.9086 106.388L104.435 114.382C109.101 116.038 111.54 121.165 109.883 125.833L103.075 145.019C102.312 147.167 100.762 148.944 98.7382 149.99L83.2086 158.015Z" fill="#47A2DF" fill-opacity="0.2"/>
<path fill-rule="evenodd" clip-rule="evenodd" d="M53.8721 165.378C55.4538 164.686 56.1227 162.801 55.3311 161.267L47.3165 145.732C46.9683 145.057 46.3765 144.541 45.6611 144.287L26.4878 137.483C24.9327 136.931 23.2243 137.745 22.6721 139.301L14.6729 161.843C14.1206 163.399 14.9336 165.108 16.4888 165.66L35.662 172.464C36.3774 172.718 37.1627 172.69 37.8583 172.385L53.8721 165.378ZM60.6417 158.522C63.0165 163.125 61.0099 168.78 56.2649 170.856L40.2511 177.864C38.1642 178.777 35.8084 178.861 33.6622 178.1L14.489 171.296C9.82355 169.64 7.38451 164.513 9.0412 159.845L17.0404 137.303C18.6971 132.634 23.8222 130.192 28.4876 131.847L47.6609 138.651C49.8071 139.413 51.5827 140.963 52.6272 142.988L60.6417 158.522Z" fill="#47A2DF" fill-opacity="0.2"/>
<path fill-rule="evenodd" clip-rule="evenodd" d="M90.475 173.738C88.8934 174.43 88.2245 176.315 89.0161 177.849L97.0307 193.383C97.3788 194.058 97.9707 194.575 98.6861 194.829L117.859 201.633C119.414 202.185 121.123 201.37 121.675 199.814L129.674 177.272C130.227 175.716 129.414 174.007 127.858 173.455L108.685 166.652C107.97 166.398 107.184 166.426 106.489 166.73L90.475 173.738ZM83.7054 180.594C81.3307 175.991 83.3373 170.336 88.0822 168.26L104.096 161.252C106.183 160.339 108.539 160.255 110.685 161.016L129.858 167.82C134.524 169.476 136.963 174.602 135.306 179.271L127.307 201.813C125.65 206.481 120.525 208.924 115.86 207.268L96.6863 200.464C94.5401 199.703 92.7645 198.152 91.72 196.128L83.7054 180.594Z" fill="#47A2DF" fill-opacity="0.2"/>
<path fill-rule="evenodd" clip-rule="evenodd" d="M454.64 203.947C451.89 202.122 448.181 202.873 446.355 205.624L432.724 226.168C430.898 228.92 431.647 232.63 434.397 234.456C437.146 236.282 440.855 235.531 442.681 232.779L456.312 212.236C458.138 209.484 457.389 205.773 454.64 203.947Z" fill="#47A2DF" fill-opacity="0.2"/>
<path fill-rule="evenodd" clip-rule="evenodd" d="M147.798 95.0614C151.084 95.3773 153.49 98.2981 153.173 101.585L150.805 126.126C150.488 129.413 147.567 131.821 144.282 131.506C140.997 131.19 138.591 128.269 138.908 124.982L141.275 100.441C141.593 97.1542 144.513 94.7455 147.798 95.0614Z" fill="#47A2DF" fill-opacity="0.2"/>
<path fill-rule="evenodd" clip-rule="evenodd" d="M225.941 281.23C226.493 279.674 228.202 278.859 229.757 279.411L274.81 295.399C276.365 295.951 277.178 297.66 276.626 299.216C276.074 300.772 274.365 301.586 272.81 301.034L227.757 285.047C226.202 284.495 225.389 282.786 225.941 281.23Z" fill="#47A2DF" fill-opacity="0.2"/>
<path fill-rule="evenodd" clip-rule="evenodd" d="M218.677 265.962C219.23 264.406 220.938 263.592 222.493 264.144L290.073 288.125C291.628 288.677 292.441 290.386 291.889 291.942C291.337 293.498 289.628 294.312 288.073 293.76L220.493 269.779C218.938 269.227 218.125 267.518 218.677 265.962Z" fill="#47A2DF" fill-opacity="0.2"/>
</svg>
